<svg width="130" height="144" viewBox="0 0 130 144" fill="none" xmlns="http://www.w3.org/2000/svg">
<g filter="url(#filter0_d_240_5657)">
<path d="M15 18C15 9.16345 22.1634 2 31 2H99C107.837 2 115 9.16344 115 18V86C115 94.8366 107.837 102 99 102H31C22.1634 102 15 94.8366 15 86V18Z" fill="white"/>
</g>
<path d="M91.9667 65.9927C91.8019 58.8646 88.8733 52.4126 84.2445 47.7195C79.5482 42.9495 73.0918 40 65.9987 40C58.9056 40 52.3593 42.9956 47.6481 47.827C42.9368 52.6584 40.0157 59.3178 40.0157 66.6456V67.3061C39.3341 67.4905 38.705 67.8131 38.1507 68.2355C37.0497 69.0881 36.2632 70.3785 36.0535 71.8994C35.8438 73.4126 36.2632 74.872 37.0946 76.0087C37.926 77.1455 39.1843 77.9444 40.6599 78.1594C41.4987 78.2823 42.3152 78.1978 43.0642 77.9444C43.6484 77.7523 44.1952 77.4605 44.6745 77.0841C45.064 77.7523 45.5808 78.3438 46.195 78.8123C46.9515 79.3884 47.8503 79.7801 48.8465 79.9261C50.0674 80.1027 51.2508 79.8723 52.2769 79.3346C53.1832 78.8584 53.9622 78.1441 54.5165 77.2531C54.7337 77.3683 54.9659 77.4681 55.2055 77.5603C55.58 77.6986 55.9695 77.7984 56.374 77.8599H56.404C58.0368 78.098 59.6097 77.6294 60.8306 76.6847C62.044 75.7476 62.9128 74.3343 63.145 72.6752V72.6368L63.1525 72.606C63.3697 70.9469 62.9128 69.3493 61.999 68.1126C61.3699 67.26 60.531 66.5841 59.5498 66.154C59.6771 64.5179 60.4036 63.0355 61.5047 61.9371C62.6731 60.7696 64.261 60.0399 65.9912 60.0399C67.7214 60.0399 69.3617 60.7926 70.5377 61.9985C71.7136 63.2044 72.4476 64.8559 72.4476 66.6609V67.429C71.8934 67.621 71.3766 67.8976 70.9197 68.2586C69.8261 69.1112 69.0397 70.3862 68.8299 71.884C68.8299 71.8917 68.8225 71.9532 68.8225 71.9608C68.6277 73.4586 69.0397 74.9027 69.8711 76.0241C70.7025 77.1455 71.9458 77.952 73.4064 78.1671H73.4363C74.2677 78.29 75.0916 78.2055 75.8406 77.9597C76.4249 77.7677 76.9641 77.4758 77.451 77.0995C77.8405 77.7677 78.3573 78.3591 78.9715 78.8277C79.728 79.4038 80.6268 79.7955 81.623 79.9414C82.8438 80.1181 84.0273 79.8877 85.0534 79.35C85.9597 78.8738 86.7387 78.1594 87.2929 77.2684C87.5101 77.3837 87.7423 77.4835 87.982 77.5757C88.3565 77.7139 88.746 77.8138 89.1505 77.8752H89.1804C90.8132 78.1134 92.3862 77.6448 93.607 76.7C94.8204 75.763 95.6818 74.3496 95.9215 72.6905V72.6598C96.1537 70.9853 95.6968 69.3723 94.7755 68.1203C94.0714 67.1679 93.1052 66.4228 91.9592 66.0234L91.9667 65.9927ZM38.7424 69.019C39.2293 68.6426 39.791 68.3661 40.3977 68.2202C39.1019 68.5658 38.0309 69.4415 37.4466 70.6013C37.7537 69.9714 38.2031 69.4338 38.7349 69.019H38.7424ZM40.8097 77.1916C39.5888 77.015 38.5552 76.3544 37.8736 75.4173C37.3043 74.6415 36.9748 73.6814 36.9748 72.6598C36.9972 75.1561 39.0795 77.1763 41.6336 77.1763C41.9182 77.1763 42.1953 77.1532 42.465 77.0995C41.9407 77.23 41.3789 77.2608 40.8097 77.1839V77.1916ZM44.0903 68.7425L43.8881 67.9206C43.8057 67.6057 43.7607 67.2754 43.7383 66.9297C43.7233 66.6071 43.7383 66.2692 43.7757 65.9312C43.9705 64.5179 44.697 63.3197 45.7231 62.5208C46.7493 61.7297 48.0675 61.3303 49.4457 61.53C50.7639 61.722 51.8875 62.4133 52.6589 63.3965C53.4379 64.3873 53.8573 65.6701 53.76 67.0142L53.715 67.5826C53.348 67.8054 53.011 68.0819 52.7188 68.3968C53.0409 67.7747 53.2282 67.0757 53.2282 66.3306C53.2282 63.8112 51.1384 61.7681 48.5619 61.7681C45.9853 61.7681 43.8956 63.8112 43.8956 66.3306C43.8956 68.1818 45.0266 69.7794 46.6519 70.4938C46.4197 70.6781 46.21 70.8855 46.0227 71.1082C45.6707 70.1174 44.9741 69.2801 44.0753 68.7348L44.0903 68.7425ZM52.0298 69.403C51.9324 69.5874 51.85 69.7871 51.7751 69.9868C51.6927 69.9484 51.6103 69.9023 51.5279 69.8716C51.7077 69.7256 51.8725 69.572 52.0298 69.403ZM61.2575 68.681C62.0365 69.7333 62.4185 71.0852 62.2237 72.4985C62.029 73.9118 61.3024 75.1024 60.2763 75.9012C59.2502 76.6924 57.9319 77.0918 56.5538 76.8921C56.2017 76.8383 55.8647 76.7538 55.5426 76.6386C55.213 76.5157 54.8985 76.3621 54.6063 76.1777L54.1719 75.9012L53.9322 76.3621C53.4604 77.2684 52.7338 77.9981 51.8575 78.459C51.0036 78.9045 50.0149 79.0965 48.9888 78.9506C48.1574 78.8277 47.4084 78.5051 46.7717 78.0212C46.1201 77.5219 45.6033 76.8613 45.2588 76.1086L45.0715 75.6861C45.1164 75.6324 45.1614 75.5863 45.2063 75.5325C45.843 77.3145 47.5732 78.5973 49.6105 78.5973C51.6478 78.5973 53.393 77.3068 54.0221 75.5172C54.3966 75.7092 54.8086 75.8551 55.2355 75.9396C55.9096 76.316 56.6961 76.5311 57.5275 76.5311C60.104 76.5311 62.1938 74.4879 62.1938 71.9685C62.1938 69.7641 60.5984 67.9206 58.4712 67.4981C57.7971 67.1218 57.0106 66.9067 56.1793 66.9067C55.9396 66.9067 55.7074 66.9221 55.4827 66.9605C55.6999 66.876 55.9171 66.8069 56.1418 66.7608C56.711 66.6302 57.3177 66.5995 57.9319 66.6916C59.3026 66.8913 60.4711 67.6364 61.2425 68.6887L61.2575 68.681ZM71.2268 61.2842C69.8786 59.9016 68.0285 59.0413 66.0062 59.0413C63.9839 59.0413 62.1938 59.8785 60.853 61.2227C59.6471 62.4287 58.8307 64.0417 58.6435 65.8314C58.4562 65.7853 58.269 65.7469 58.0742 65.7238H58.0293C57.3177 65.624 56.6137 65.6547 55.9396 65.8083C55.5875 65.8928 55.243 66.008 54.9134 66.1463C55.0408 63.2275 56.2616 60.5698 58.1716 58.6189C60.1864 56.5527 62.9577 55.2622 65.9987 55.2622C68.4629 55.2622 70.7549 56.1072 72.6049 57.5281C74.4475 58.9415 75.8556 60.9232 76.5672 63.2044C76.0728 63.9572 75.7283 64.8328 75.5935 65.793V65.839C75.541 66.2231 75.5261 66.6071 75.541 66.9835C75.541 67.0911 75.556 67.1986 75.5635 67.2984C75.3613 67.2447 75.1441 67.1986 74.9194 67.1679H74.8744C74.3726 67.0911 73.8708 67.0987 73.3914 67.1679V66.6302C73.3914 64.5563 72.545 62.6591 71.2043 61.2765L71.2268 61.2842ZM77.2787 75.9627C76.7919 76.4389 76.2076 76.7999 75.5635 77.015C74.9418 77.2224 74.2752 77.2915 73.5786 77.1916C72.3578 77.015 71.3241 76.3544 70.6425 75.4173C70.298 74.9564 70.0433 74.4264 69.8935 73.8581C70.5527 75.5863 72.2604 76.8229 74.2602 76.8229C75.4586 76.8229 76.5522 76.3774 77.3761 75.6477C77.4135 75.6861 77.4435 75.7245 77.481 75.763L77.2712 75.9627H77.2787ZM77.7431 69.2264C77.4585 68.9191 77.1364 68.6426 76.7769 68.4199L76.6496 67.9206C76.5672 67.6057 76.5222 67.2754 76.4998 66.9297C76.4848 66.5995 76.4998 66.2692 76.5447 65.9235C76.5597 65.793 76.5896 65.6701 76.6121 65.5395C76.6121 65.5856 76.6121 65.6317 76.6121 65.6701C76.6121 66.9682 77.1664 68.1357 78.0502 68.9652C77.9453 69.042 77.8405 69.1265 77.7431 69.211V69.2264ZM78.1401 76.3237C78.2375 76.3928 78.3423 76.4619 78.4472 76.5234C78.6194 76.9381 78.8516 77.3222 79.1363 77.6679C78.7318 77.2838 78.4022 76.8306 78.1476 76.3237H78.1401ZM77.9229 61.7527C77.6982 61.9294 77.481 62.1214 77.2862 62.3211C76.4623 60.0936 75.0242 58.158 73.1817 56.7447C71.1668 55.2008 68.6801 54.2791 66.0062 54.2791C62.7031 54.2791 59.6921 55.677 57.505 57.9199C55.8722 59.5944 54.6962 61.745 54.2094 64.1338C53.9996 63.6499 53.73 63.2044 53.4079 62.7973C52.8387 62.0676 52.0972 61.4762 51.2508 61.0768C52.3593 58.0351 54.3367 55.4082 56.8683 53.534C59.4524 51.6291 62.6057 50.5077 66.0062 50.5077C69.4067 50.5077 72.4476 51.5907 75.0092 53.4418C77.481 55.2238 79.4359 57.7048 80.5893 60.6006C79.6081 60.7619 78.7018 61.169 77.9304 61.7604L77.9229 61.7527ZM82.3495 60.5698H82.3046C82.0574 60.5314 81.8177 60.5161 81.5705 60.5161C80.3646 57.3208 78.2449 54.5786 75.5485 52.6276C72.8371 50.669 69.5415 49.5168 65.9987 49.5168C62.4559 49.5168 59.0479 50.7151 56.3066 52.7352C53.6177 54.7169 51.5204 57.5051 50.3445 60.7311C50.1048 60.662 49.8576 60.6082 49.603 60.5698H49.573C48.4495 60.4009 47.3485 60.5698 46.3748 61.0077C47.5432 56.7447 50.0074 53.0271 53.2956 50.3233C56.7859 47.4583 61.2051 45.7301 65.9987 45.7301C71.3241 45.7301 76.2002 47.8577 79.8403 51.3295C82.9337 54.2714 85.1358 58.181 85.9897 62.5669C85.0759 61.5146 83.81 60.7695 82.342 60.5622L82.3495 60.5698ZM85.8398 66.6148C85.9073 66.3153 85.9372 66.0003 85.9372 65.6777C85.9372 64.6178 85.5627 63.6423 84.9485 62.8665C85.1208 63.0355 85.2856 63.2121 85.4354 63.4041C86.0945 64.2491 86.499 65.3014 86.5439 66.4228C86.3042 66.4689 86.0645 66.5303 85.8398 66.6148ZM88.716 65.8006C88.2891 65.9005 87.8771 66.0464 87.4877 66.2308C87.4577 65.8006 87.3903 65.3859 87.2779 64.9788C86.8585 59.3332 84.3269 54.2714 80.492 50.6229C76.6795 46.9898 71.5788 44.7622 66.0062 44.7622C60.9954 44.7622 56.3665 46.5673 52.7114 49.5706C49.0337 52.5969 46.3373 56.8445 45.2288 61.699C45.2063 61.7143 45.1764 61.7374 45.1539 61.7527C43.9405 62.6898 43.0792 64.1031 42.8395 65.7622V65.793C42.7795 66.1924 42.7646 66.5918 42.787 66.9835C42.787 67.0911 42.802 67.1986 42.8095 67.2984C42.5998 67.2447 42.3901 67.1986 42.1654 67.1679C41.7609 67.1141 41.3639 67.0987 40.9744 67.1371V66.6379C40.9744 59.579 43.7907 53.1653 48.3222 48.5106C52.8612 43.8559 59.1154 40.9755 65.9987 40.9755C72.8821 40.9755 79.0464 43.8175 83.5704 48.4107C87.9745 52.8734 90.7758 58.9875 91.008 65.7392C90.963 65.7315 90.9181 65.7238 90.8732 65.7161H90.8432C90.1167 65.6086 89.3976 65.647 88.716 65.8006ZM90.6035 66.9067C90.3339 66.9067 90.0642 66.9298 89.8021 66.9758C89.6223 66.8683 89.4276 66.7761 89.2328 66.6993C89.7047 66.6225 90.2065 66.6148 90.7084 66.684C91.345 66.7761 91.9442 66.9912 92.476 67.2984C91.8993 67.0526 91.2701 66.9144 90.6035 66.9144V66.9067Z" fill="#9ABA9A" stroke="#9ABA9A" stroke-width="0.8" stroke-miterlimit="10"/>
<path d="M43.9053 14.0996C43.9053 15.4805 44.6709 16.8477 46.2979 17.4902L45.4775 18.6523C44.3906 18.2148 43.6318 17.4082 43.1943 16.4102C42.7295 17.5312 41.9229 18.4746 40.7471 18.9805L39.9404 17.8047C41.6357 17.0527 42.4287 15.4941 42.4424 14.0996V12.5957H43.9053V14.0996ZM50.6182 11.8711V19.3496H49.1689V16.2051H47.9385V19.2812H46.5166V12.0762H47.9385V14.9473H49.1689V11.8711H50.6182ZM50.6182 19.9375V24.2168H49.1006V21.1543H42.1553V19.9375H50.6182ZM61.8838 11.8574V14.373H63.6201V15.6172H61.8838V18.1328H60.3662V11.8574H61.8838ZM61.8838 18.6523V21.8652H55.2803V22.8633H62.3486V24.0664H53.7764V20.7441H60.4072V19.8281H53.749V18.6523H61.8838ZM55.7725 12.4863C55.7725 14.9746 55.0068 16.4922 53.0654 17.8867L52.0537 16.9297C53.3936 16.0684 54.0977 15.2002 54.3096 13.7168H52.4639V12.4863H55.7725ZM59.3135 12.4863C59.2998 15.0293 58.6299 16.7656 56.6475 18.2559L55.5811 17.3809C56.9893 16.3486 57.6523 15.3096 57.8369 13.7168H56.2373V12.4863H59.3135ZM72.0146 14.3867C72.0146 15.7129 73.0127 17.0117 74.9541 17.5312L74.2705 18.6934C72.835 18.3174 71.8232 17.4971 71.2764 16.4375C70.7227 17.5996 69.6836 18.502 68.2275 18.9258L67.5029 17.7227C69.458 17.2031 70.4971 15.8359 70.4971 14.3867V14.3457H67.9131V13.1426H70.4971V11.8027H72.0283V13.1426H74.5986V14.3457H72.0146V14.3867ZM77.3193 11.8574V14.7285H79.042V15.9863H77.3193V18.9395H75.8018V11.8574H77.3193ZM77.4971 19.5137V20.7305H74.2295C74.5166 21.7559 75.9043 22.7129 78.0166 23.0137L77.4697 24.1758C75.5352 23.9023 74.0723 23.0752 73.3545 21.9473C72.6436 23.0684 71.1943 23.875 69.2803 24.1484L68.7197 23C70.8389 22.7061 72.2129 21.7832 72.5068 20.7305H69.2256V19.5137H77.4971ZM89.9932 11.8574V24.2168H88.4619V11.8574H89.9932ZM86.3018 13.1699C86.3018 16.8477 84.8799 19.9785 80.5459 22.0293L79.7529 20.8125C82.9863 19.2744 84.4902 17.1826 84.7568 14.373H80.3818V13.1699H86.3018Z" fill="#707070"/>
<path d="M26.1875 116.008C26.1758 117.402 28.0391 118.586 29.8555 118.855L29.5156 119.582C27.8867 119.307 26.3047 118.439 25.6719 117.18C25.0391 118.439 23.4512 119.307 21.8516 119.582L21.4883 118.855C23.293 118.586 25.1562 117.402 25.1562 116.008V115.938H21.8164V115.188H29.5156V115.938H26.1875V116.008ZM30.418 120.473V121.234H26.1055V124.949H25.2031V121.234H20.9258V120.473H30.418ZM39.9336 114.543V122.254H39.0078V119.453H36.5469V120.473H31.8242V115.234H32.7383V117.086H35.6445V115.234H36.5469V116.453H39.0078V114.543H39.9336ZM40.168 123.953V124.727H33.1953V121.492H34.1211V123.953H40.168ZM32.7383 119.711H35.6445V117.812H32.7383V119.711ZM36.5469 118.691H39.0078V117.227H36.5469V118.691ZM50.5977 114.531V124.949H49.707V114.531H50.5977ZM48.5 114.754V124.422H47.6211V119.359H46.2852C46.1855 121.387 45.3242 122.652 44.0352 122.652C42.6758 122.652 41.7969 121.246 41.7969 119.031C41.7969 116.816 42.6758 115.41 44.0352 115.41C45.3008 115.41 46.1562 116.635 46.2734 118.598H47.6211V114.754H48.5ZM44.0352 116.277C43.1914 116.277 42.6523 117.332 42.6641 119.031C42.6523 120.719 43.1914 121.785 44.0352 121.773C44.8789 121.785 45.418 120.719 45.418 119.031C45.418 117.332 44.8789 116.277 44.0352 116.277ZM55.707 117.332C55.707 119.219 56.9141 121.117 58.4258 121.809L57.875 122.559C56.6914 121.949 55.7129 120.701 55.25 119.219C54.7871 120.777 53.8086 122.113 52.625 122.746L52.0273 122.008C53.5508 121.258 54.7695 119.254 54.7695 117.332V115.434H55.707V117.332ZM60.6758 114.531V124.973H59.7617V118.844H57.2891V118.094H59.7617V114.531H60.6758ZM74.0117 114.543V122.453H73.0859V121.375H70.9297V120.707H73.0859V114.543H74.0117ZM74.2695 123.953V124.727H66.8633V121.68H67.7891V123.953H74.2695ZM65.3633 119.371C67.3086 119.359 69.9102 119.348 72.1484 119.066L72.207 119.734C71.2754 119.881 70.3027 119.975 69.3477 120.027V122.09H68.4219V120.074C67.3672 120.121 66.3652 120.127 65.4922 120.121L65.3633 119.371ZM68.7852 114.965C70.3086 114.965 71.3516 115.691 71.3633 116.781C71.3516 117.895 70.3086 118.586 68.7852 118.586C67.25 118.586 66.207 117.895 66.207 116.781C66.207 115.691 67.25 114.965 68.7852 114.965ZM68.7852 115.668C67.7656 115.656 67.0742 116.113 67.0859 116.781C67.0742 117.461 67.7656 117.906 68.7852 117.906C69.7695 117.906 70.4727 117.461 70.4844 116.781C70.4727 116.113 69.7695 115.656 68.7852 115.668ZM83.8555 114.531V118.832H85.6016V119.594H83.8555V124.949H82.9414V114.531H83.8555ZM81.9336 116.207V116.969H75.7344V116.207H78.418V114.66H79.332V116.207H81.9336ZM78.8867 117.836C80.3633 117.836 81.4297 118.82 81.4414 120.227C81.4297 121.633 80.3633 122.617 78.8867 122.617C77.3984 122.617 76.3203 121.633 76.332 120.227C76.3203 118.82 77.3984 117.836 78.8867 117.836ZM78.8867 118.609C77.9141 118.609 77.1992 119.289 77.2109 120.227C77.1992 121.176 77.9141 121.844 78.8867 121.832C79.8477 121.844 80.5508 121.176 80.5625 120.227C80.5508 119.289 79.8477 118.609 78.8867 118.609ZM94.5898 117.695V118.434H87.4531V114.918H88.3672V117.695H94.5898ZM95.6914 119.852V120.602H86.1523V119.852H95.6914ZM94.6484 123.93V124.691H87.3945V121.668H88.3086V123.93H94.6484ZM102.652 116.57C102.652 117.754 103.449 118.949 104.785 119.477L104.293 120.191C103.309 119.781 102.588 119.02 102.219 118.094C101.832 119.107 101.082 119.992 100.062 120.449L99.5586 119.734C100.93 119.125 101.773 117.754 101.773 116.57V115.176H102.652V116.57ZM108.395 114.543V120.836H107.516V118.035H106.133V120.777H105.266V114.73H106.133V117.262H107.516V114.543H108.395ZM108.395 121.41V124.949H107.492V122.172H101.375V121.41H108.395ZM32.4043 138.117C30.7168 138.117 29.5098 137.215 29.4512 135.867H30.5176C30.5762 136.676 31.3848 137.18 32.3926 137.18C33.5059 137.18 34.3262 136.57 34.3262 135.691C34.3262 134.766 33.5879 134.109 32.2637 134.109H31.5723V133.184H32.2637C33.2949 133.184 34.0098 132.609 34.0098 131.73C34.0098 130.887 33.3887 130.312 32.4277 130.312C31.5254 130.312 30.6934 130.816 30.6465 131.648H29.627C29.6855 130.301 30.9277 129.398 32.4395 129.398C34.0566 129.398 35.041 130.453 35.0293 131.672C35.041 132.633 34.4785 133.348 33.5879 133.594V133.652C34.6895 133.828 35.3691 134.613 35.3574 135.691C35.3691 137.086 34.0918 138.117 32.4043 138.117ZM44.5684 128.531V132.773H46.2559V133.547H44.5684V138.949H43.6543V128.531H44.5684ZM41.873 129.656C41.873 132.609 40.4902 135.293 37.0918 136.969L36.5762 136.242C39.2715 134.9 40.7363 132.896 40.9473 130.43H37.0566V129.656H41.873ZM50.6035 131.73C50.6035 133.5 51.8926 135.293 53.4277 135.961L52.9121 136.688C51.6934 136.131 50.6387 134.93 50.1582 133.488C49.666 135.018 48.6172 136.348 47.4277 136.945L46.877 136.219C48.3652 135.504 49.666 133.535 49.6777 131.73V130.371H47.2168V129.609H53.0879V130.371H50.6035V131.73ZM55.4668 128.531V138.949H54.541V128.531H55.4668ZM66.7754 133.371V134.098H57.2363V133.371H66.7754ZM65.5801 134.93V137.145H59.3223V138.141H65.9199V138.809H58.3965V136.512H64.666V135.621H58.3848V134.93H65.5801ZM65.5449 128.848V131.004H59.3926V131.918H65.7324V132.586H58.4785V130.371H64.6191V129.516H58.4434V128.848H65.5449ZM74.1816 130.711C74.1816 131.953 75.2363 133.102 76.7715 133.559L76.3379 134.262C75.1367 133.904 74.1992 133.131 73.748 132.129C73.291 133.23 72.3242 134.068 71.0879 134.473L70.6309 133.746C72.1777 133.277 73.2793 132.082 73.2793 130.711V130.512H70.9238V129.75H73.2793V128.484H74.2051V129.75H76.5371V130.512H74.1816V130.711ZM78.7754 128.531V131.109H80.3457V131.883H78.7754V134.59H77.8613V128.531H78.7754ZM78.9629 135.152V135.902H76.0098C76.1621 136.992 77.6914 137.93 79.3613 138.199L79.0215 138.914C77.4922 138.662 76.1094 137.906 75.5176 136.863C74.9199 137.9 73.5488 138.639 72.0371 138.902L71.6855 138.199C73.3672 137.93 74.8789 137.01 75.0371 135.902H72.0957V135.152H78.9629ZM83.791 129.34C85.3262 129.352 86.416 130.758 86.4277 132.973C86.416 135.188 85.3262 136.594 83.791 136.594C82.2441 136.594 81.166 135.188 81.166 132.973C81.166 130.758 82.2441 129.352 83.791 129.34ZM83.791 130.16C82.7598 130.172 82.0332 131.273 82.0332 132.973C82.0332 134.672 82.7598 135.773 83.791 135.773C84.834 135.773 85.5371 134.672 85.5371 132.973C85.5371 131.273 84.834 130.172 83.791 130.16ZM89.0645 128.531V132.691H90.8105V133.488H89.0645V138.949H88.1504V128.531H89.0645ZM100.912 136.84V137.613H91.373V136.84H93.7402V134.027C92.8496 133.564 92.3105 132.814 92.3105 131.871C92.3105 130.254 93.8926 129.199 96.1191 129.188C98.3457 129.199 99.9277 130.254 99.9277 131.871C99.9277 132.797 99.4062 133.541 98.5449 134.004V136.84H100.912ZM96.1191 129.949C94.4082 129.938 93.2012 130.711 93.2012 131.871C93.2012 133.031 94.4082 133.816 96.1191 133.816C97.8184 133.816 99.0371 133.031 99.0371 131.871C99.0371 130.711 97.8184 129.938 96.1191 129.949ZM94.6426 136.84H97.6191V134.355C97.168 134.479 96.6641 134.543 96.1191 134.543C95.5859 134.543 95.0879 134.484 94.6426 134.367V136.84Z" fill="#8F8F8F"/>
<defs>
<filter id="filter0_d_240_5657" x="12" y="0" width="108" height="108" filterUnits="userSpaceOnUse" color-interpolation-filters="sRGB">
<feFlood flood-opacity="0" result="BackgroundImageFix"/>
<feColorMatrix in="SourceAlpha" type="matrix" values="0 0 0 0 0 0 0 0 0 0 0 0 0 0 0 0 0 0 127 0" result="hardAlpha"/>
<feOffset dx="1" dy="2"/>
<feGaussianBlur stdDeviation="2"/>
<feComposite in2="hardAlpha" operator="out"/>
<feColorMatrix type="matrix" values="0 0 0 0 0.254902 0 0 0 0 0.254902 0 0 0 0 0.254902 0 0 0 0.15 0"/>
<feBlend mode="normal" in2="BackgroundImageFix" result="effect1_dropShadow_240_5657"/>
<feBlend mode="normal" in="SourceGraphic" in2="effect1_dropShadow_240_5657" result="shape"/>
</filter>
</defs>
</svg>
