<svg width="130" height="144" viewBox="0 0 130 144" fill="none" xmlns="http://www.w3.org/2000/svg">
<g filter="url(#filter0_d_240_5647)">
<path d="M15 18C15 9.16345 22.1634 2 31 2H99C107.837 2 115 9.16344 115 18V86C115 94.8366 107.837 102 99 102H31C22.1634 102 15 94.8366 15 86V18Z" fill="white"/>
</g>
<g clip-path="url(#clip0_240_5647)">
<mask id="mask0_240_5647" style="mask-type:luminance" maskUnits="userSpaceOnUse" x="43" y="37" width="43" height="48">
<path d="M43 37.0012H86V84.0002H43V37.0012Z" fill="white"/>
</mask>
<g mask="url(#mask0_240_5647)">
<path fill-rule="evenodd" clip-rule="evenodd" d="M70.4669 42.9916C70.4669 46.2949 67.7986 48.9821 64.5196 48.9821C61.2407 48.9821 58.5723 46.2949 58.5723 42.9916C58.5723 39.6882 61.2407 37 64.5196 37C67.7986 37 70.4669 39.6872 70.4669 42.9916ZM84.7717 60.4709C84.7717 52.5695 80.1767 45.3062 73.064 41.9664C72.7583 41.8228 72.6271 41.4575 72.7686 41.1494C72.9101 40.8414 73.2748 40.7092 73.5795 40.8518C77.2345 42.5669 80.3316 45.2791 82.5341 48.6938C84.7975 52.2001 85.9928 56.2715 85.9928 60.4709C85.9928 61.9237 85.8492 63.3756 85.5651 64.7868C85.5062 65.0782 85.251 65.2801 84.9669 65.2801C84.9277 65.2801 84.8864 65.276 84.8461 65.2676C84.5155 65.2 84.3017 64.8753 84.3688 64.5433C84.6364 63.2122 84.7717 61.8415 84.7717 60.4709ZM55.9752 41.9664C48.8626 45.3051 44.2676 52.5695 44.2676 60.4709C44.2676 61.8415 44.4029 63.2122 44.6705 64.5433C44.7376 64.8763 44.5238 65.2 44.1932 65.2676C44.1519 65.276 44.1116 65.2801 44.0723 65.2801C43.7872 65.2801 43.5331 65.0782 43.4742 64.7868C43.1901 63.3756 43.0465 61.9237 43.0465 60.4709C43.0465 56.2715 44.2417 52.2001 46.5041 48.6938C48.7066 45.2802 51.8037 42.568 55.4587 40.8518C55.7645 40.7082 56.1271 40.8414 56.2696 41.1494C56.4122 41.4575 56.28 41.8228 55.9742 41.9664H55.9752ZM63.2975 54.549L64.063 55.4139C64.1787 55.545 64.345 55.62 64.5186 55.62C64.6921 55.62 64.8585 55.545 64.9742 55.4139L65.7407 54.549C66.0806 54.166 66.501 53.9568 66.9556 53.9444C67.4421 53.9287 67.9483 54.1504 68.3419 54.5449C69.4452 55.8146 68.781 57.0728 68.2851 57.7098C67.5475 58.6579 66.3409 59.5217 65.1736 60.3543C65.0041 60.4761 64.8357 60.5968 64.6715 60.7144C64.6219 60.7508 64.5702 60.7862 64.5196 60.8205C64.468 60.7862 64.4163 60.7498 64.3657 60.7144C64.2014 60.5957 64.0331 60.4761 63.8636 60.3543C62.6973 59.5217 61.4907 58.6579 60.7521 57.7098C60.2572 57.0728 59.593 55.8146 60.6952 54.5449C61.0888 54.1504 61.5919 53.9308 62.0816 53.9444C62.5362 53.9568 62.9566 54.166 63.2965 54.549H63.2975ZM60.0362 50.3163C56.2769 50.3163 53.1488 52.787 52.25 56.465L50.4297 63.9136C50.3957 64.0541 50.3151 64.1769 50.1994 64.2623L44.7459 68.3212C43.6756 69.1184 43.4473 70.6441 44.2386 71.7213C44.6198 72.2417 45.1818 72.581 45.8213 72.6777C46.4607 72.7756 47.0971 72.6163 47.6126 72.2333L53.1054 68.1463C54.0764 67.4241 54.7128 66.4551 55.1126 65.0959L56.9576 58.8161C57.0434 58.5236 57.3306 58.3363 57.6302 58.381C57.9298 58.4248 58.1529 58.6849 58.1529 58.9899V69.2527C58.1529 69.5097 57.9928 69.7408 57.7531 69.8303L48.4504 73.2803C47.7407 73.5436 47.1735 74.0713 46.8554 74.7676C46.5351 75.4628 46.5041 76.2402 46.7655 76.9552L46.8006 77.053C47.1333 77.9637 47.8006 78.5777 48.7314 78.8285L67.3244 83.848C68.0578 84.0458 68.8264 83.9428 69.4897 83.5566C70.1539 83.1705 70.626 82.5513 70.8233 81.8124C71.2314 80.2804 70.3244 78.6984 68.8037 78.2874L55.4742 74.6895C55.1488 74.601 54.9556 74.2649 55.0424 73.936C55.1157 73.6612 55.3616 73.4802 55.6312 73.4802C55.6828 73.4802 55.7366 73.4864 55.7893 73.501L59.9969 74.6375C59.9969 74.6375 60.0052 74.6364 60.0093 74.6354L73.406 73.0795C73.7417 73.042 74.0444 73.2824 74.0826 73.6207C74.1209 73.9579 73.8812 74.2628 73.5465 74.3013L63.2025 75.5023L69.1157 77.0988C70.6105 77.5026 71.6901 78.6974 72.0269 80.1159L80.1508 79.173C81.4587 79.02 82.4587 78.0365 82.6395 76.721C82.8223 75.3868 82.1302 74.166 80.9143 73.6852L71.2686 69.8646C71.0351 69.772 70.8812 69.5451 70.8812 69.2922V58.9899C70.8812 58.6849 71.1033 58.4258 71.4039 58.381C71.7056 58.3373 71.9907 58.5226 72.0764 58.8161L73.9215 65.0959C74.3213 66.4551 74.9587 67.4241 75.9287 68.1463L81.4215 72.2333C81.937 72.6163 82.5744 72.7756 83.2128 72.6777C83.8523 72.581 84.4143 72.2417 84.7955 71.7213C85.5857 70.6441 85.3574 69.1184 84.2882 68.3212L78.8337 64.2623C78.719 64.178 78.6374 64.0541 78.6043 63.9136L76.7841 56.465C75.8853 52.787 72.7572 50.3163 68.9979 50.3163H60.031H60.0362ZM59.7944 53.7164C58.5661 55.1131 58.5661 56.8897 59.7934 58.4674C60.6395 59.5571 61.9194 60.4719 63.1581 61.3565C63.3264 61.4762 63.4928 61.5949 63.656 61.7135C63.7903 61.8113 63.9236 61.8977 64.0517 61.9831L64.1828 62.0705C64.2841 62.1392 64.4029 62.1746 64.5207 62.1746C64.6384 62.1746 64.7562 62.1392 64.8585 62.0705L64.9897 61.9831C65.1178 61.8977 65.251 61.8113 65.3853 61.7135C65.5475 61.5959 65.7138 61.4773 65.8833 61.3565C67.1209 60.4709 68.4008 59.5571 69.2479 58.4674C70.4752 56.8897 70.4752 55.1131 69.2469 53.7164C69.2397 53.7081 69.2314 53.6998 69.2231 53.6915C68.5919 53.0483 67.7552 52.6944 66.9256 52.7142C66.1364 52.735 65.3926 53.0941 64.8316 53.7289L64.5217 54.0807L64.2118 53.7289C63.6498 53.0951 62.907 52.735 62.1167 52.7142C61.2872 52.6913 60.4504 53.0483 59.8202 53.6915C59.812 53.6998 59.8037 53.7081 59.7965 53.7164H59.7944Z" fill="#9ABA9A"/>
</g>
</g>
<path d="M43.1533 14.0996C43.1533 14.8857 43.3789 15.9316 44.0967 16.6836C44.7939 15.9385 45.0264 14.9131 45.04 14.0996V13.7168H44.3291V12.4863H47.8291V13.7168H46.4756V14.0996C46.4756 15.166 47.0225 16.4512 48.376 17.0664L47.6514 18.1465C46.7148 17.7432 46.127 17.0186 45.792 16.1777C45.5049 17.0322 44.9922 17.8252 44.083 18.2832C43.1875 17.8252 42.6816 17.0391 42.4014 16.1777C42.0527 17.0117 41.4648 17.7295 40.5557 18.1465L39.8311 17.0664C41.1709 16.4375 41.7314 15.1387 41.7314 14.0996V13.7168H40.3096V12.4863H43.8779V13.7168H43.1533V14.0996ZM47.4189 18.8848V20.293H48.7725V18.8848H50.126V24.1074H46.0244V18.8848H47.4189ZM47.4189 22.9453H48.7725V21.4141H47.4189V22.9453ZM50.126 11.8574V14.3184H51.5205V15.6035H50.126V18.2969H48.6084V11.8574H50.126ZM45.3408 18.9941V22.0156H42.8662V22.9727C43.9736 22.9727 44.6982 22.9453 45.5732 22.7676L45.6963 23.8887C44.5752 24.0938 43.7139 24.1074 42.0869 24.1074H41.4033V20.9492H43.8643V20.1152H41.376V18.9941H45.3408ZM63.415 18.2422V19.459H52.1494V18.2422H63.415ZM62.1436 22.7402V23.9707H53.5439V20.375H55.0615V22.7402H62.1436ZM57.7686 12.2539C60.4619 12.2539 62.2119 13.1973 62.2256 14.7559C62.2119 16.3281 60.4619 17.2852 57.7686 17.2852C55.0752 17.2852 53.3115 16.3281 53.3115 14.7559C53.3115 13.1973 55.0752 12.2539 57.7686 12.2539ZM57.7686 13.4707C55.9775 13.4707 54.8838 13.9355 54.8975 14.7559C54.8838 15.5898 55.9775 16.0547 57.7686 16.041C59.5732 16.0547 60.6533 15.5898 60.6533 14.7559C60.6533 13.9355 59.5732 13.4707 57.7686 13.4707ZM77.9209 11.8574V19.1309H76.4033V17.4219H73.915V18.3789H68.1045V12.7871H73.915V13.7441H76.4033V11.8574H77.9209ZM69.6221 13.9902V17.1621H72.4111V13.9902H69.6221ZM73.7373 19.459C76.3623 19.459 77.9619 20.334 77.9619 21.8379C77.9619 23.3418 76.3623 24.2031 73.7373 24.2031C71.126 24.2031 69.5264 23.3418 69.54 21.8379C69.5264 20.334 71.126 19.459 73.7373 19.459ZM73.7373 20.6211C72.0146 20.6211 71.0439 21.0449 71.0439 21.8379C71.0439 22.6035 72.0146 23.0273 73.7373 23.0273C75.46 23.0273 76.4443 22.6035 76.4443 21.8379C76.4443 21.0449 75.46 20.6211 73.7373 20.6211ZM73.915 16.1914H76.4033V14.9473H73.915V16.1914ZM84.0459 13.8262C84.0459 15.3848 85.0576 16.8477 86.958 17.4492L86.1377 18.6387C84.8047 18.1875 83.8477 17.2852 83.3213 16.1367C82.7744 17.4492 81.7764 18.4814 80.3545 18.9805L79.5342 17.791C81.5303 17.0938 82.5146 15.4531 82.5283 13.6895V12.5137H84.0459V13.8262ZM89.4189 11.8574V14.8652H91.1416V16.123H89.4189V19.2539H87.9014V11.8574H89.4189ZM85.3994 19.5273C87.9561 19.5137 89.5283 20.3887 89.542 21.8516C89.5283 23.3418 87.9561 24.2031 85.3994 24.2031C82.8154 24.2031 81.2158 23.3418 81.2158 21.8516C81.2158 20.3887 82.8154 19.5137 85.3994 19.5273ZM85.3994 20.7168C83.7041 20.7168 82.7334 21.127 82.7334 21.8516C82.7334 22.6172 83.7041 23 85.3994 23C87.0947 23 88.0381 22.6172 88.0381 21.8516C88.0381 21.127 87.0947 20.7168 85.3994 20.7168Z" fill="#707070"/>
<path d="M39.9688 116.418C39.957 117.801 40.9883 119.043 42.5352 119.559L42.0664 120.297C40.8711 119.887 39.9629 119.043 39.5117 117.977C39.0664 119.16 38.1113 120.092 36.875 120.543L36.3945 119.793C37.9648 119.254 39.0312 117.93 39.043 116.43V116.02H36.6758V115.27H42.2891V116.02H39.9688V116.418ZM44.5859 114.531V117.133H46.1562V117.906H44.5859V120.672H43.6719V114.531H44.5859ZM44.5859 121.152V124.809H38.0117V121.152H44.5859ZM38.9141 121.891V124.059H43.6719V121.891H38.9141ZM50.5156 117.332C50.5039 119.23 51.8047 121.152 53.3398 121.844L52.7773 122.57C51.5938 121.99 50.5684 120.766 50.0703 119.277C49.584 120.854 48.5586 122.166 47.3398 122.781L46.7539 122.008C48.3008 121.293 49.5898 119.312 49.6016 117.332V115.434H50.5156V117.332ZM55.4023 114.531V124.973H54.4766V114.531H55.4023ZM68.832 114.531V120.52H67.9062V117.871H65.4688V119.875H60.6875V115.27H65.4688V117.109H67.9062V114.531H68.832ZM61.6016 116.02V119.137H64.5664V116.02H61.6016ZM68.832 121.059V124.809H62.0234V121.059H68.832ZM62.9375 121.809V124.059H67.9297V121.809H62.9375ZM80.0586 120.836V121.609H75.7578V124.973H74.8555V121.609H70.5664V120.836H80.0586ZM75.7695 116.594C75.7695 117.895 77.5859 119.031 79.4492 119.289L79.1094 120.027C77.498 119.781 75.9805 118.973 75.3242 117.836C74.6562 118.984 73.1152 119.781 71.5039 120.027L71.1641 119.289C73.0156 119.031 74.8555 117.906 74.8555 116.594V116.582H71.4922V115.832H74.8555V114.531H75.7578V115.832H79.1445V116.582H75.7695V116.594ZM89.293 115.586V116.629C89.2812 117.906 89.2812 119.336 88.9062 121.434L87.9688 121.328C88.3672 119.336 88.3672 117.871 88.3672 116.629V116.348H81.9453V115.586H89.293ZM90.4297 122.711V123.473H80.9375V122.711H84.6641V118.984H85.5664V122.711H90.4297ZM93.0195 123.215L92.1055 126.402H91.2383L91.8828 123.215H93.0195ZM31.4316 130.078V130.84H22.9004V130.078H26.7207V128.707H27.623V130.078H31.4316ZM31.9707 136.969V137.73H22.4316V136.969H26.7207V135.504C24.8691 135.404 23.7441 134.684 23.7559 133.512C23.7441 132.27 25.0566 131.543 27.1777 131.555C29.2754 131.543 30.5996 132.27 30.5996 133.512C30.5996 134.684 29.4629 135.404 27.623 135.504V136.969H31.9707ZM27.1777 132.281C25.6191 132.281 24.6699 132.738 24.6816 133.512C24.6699 134.309 25.6191 134.754 27.1777 134.766C28.7129 134.754 29.6621 134.309 29.6621 133.512C29.6621 132.738 28.7129 132.281 27.1777 132.281ZM34.9238 135.422V136.371H40.1504V135.422H41.0879V138.809H34.0098V135.422H34.9238ZM34.9238 138.094H40.1504V137.062H34.9238V138.094ZM41.7441 129.387V130.113H33.2949V129.387H37.0918V128.379H38.0059V129.387H41.7441ZM37.5488 130.512C39.7051 130.512 40.9238 131.016 40.9238 131.977C40.9238 132.926 39.7051 133.43 37.5488 133.43C35.3691 133.43 34.1621 132.926 34.1621 131.977C34.1621 131.016 35.3691 130.512 37.5488 130.512ZM37.5488 131.168C36.002 131.168 35.1465 131.449 35.1582 131.977C35.1465 132.492 36.002 132.785 37.5488 132.785C39.0723 132.785 39.9512 132.492 39.9512 131.977C39.9512 131.449 39.0723 131.168 37.5488 131.168ZM42.2949 134.086V134.836H32.8027V134.086H42.2949ZM52.1035 128.531V138.949H51.2129V128.531H52.1035ZM50.0059 128.754V138.422H49.127V133.359H47.791C47.6914 135.387 46.8301 136.652 45.541 136.652C44.1816 136.652 43.3027 135.246 43.3027 133.031C43.3027 130.816 44.1816 129.41 45.541 129.41C46.8066 129.41 47.6621 130.635 47.7793 132.598H49.127V128.754H50.0059ZM45.541 130.277C44.6973 130.277 44.1582 131.332 44.1699 133.031C44.1582 134.719 44.6973 135.785 45.541 135.773C46.3848 135.785 46.9238 134.719 46.9238 133.031C46.9238 131.332 46.3848 130.277 45.541 130.277ZM58.8066 129.48V134.273H53.9902V129.48H58.8066ZM54.8926 130.23V133.535H57.916V130.23H54.8926ZM61.6895 128.531V131.707H63.2598V132.48H61.6895V136.172H60.7754V128.531H61.6895ZM62.1699 137.953V138.727H55.1738V135.445H56.0762V137.953H62.1699ZM70.6777 130.254C70.6777 131.613 71.8145 132.82 73.3613 133.289L72.8926 134.016C71.6738 133.629 70.6953 132.791 70.2207 131.719C69.7637 132.867 68.7793 133.764 67.5371 134.191L67.0566 133.465C68.627 132.973 69.752 131.684 69.752 130.254V129.984H67.3145V129.234H73.0801V129.984H70.6777V130.254ZM75.5293 128.531V134.168H74.6152V128.531H75.5293ZM69.6934 134.684V135.949H74.6152V134.684H75.5293V138.809H68.7793V134.684H69.6934ZM69.6934 138.059H74.6152V136.688H69.6934V138.059ZM86.791 133.406V134.168H82.4902V135.281C84.459 135.363 85.6191 136.008 85.6309 137.109C85.6191 138.27 84.2832 138.926 82.0449 138.926C79.7832 138.926 78.4473 138.27 78.4473 137.109C78.4473 136.008 79.6016 135.363 81.5879 135.281V134.168H77.2988V133.406H86.791ZM82.0449 135.984C80.3691 135.996 79.373 136.406 79.3848 137.109C79.373 137.801 80.3691 138.211 82.0449 138.211C83.6973 138.211 84.7051 137.801 84.7051 137.109C84.7051 136.406 83.6973 135.996 82.0449 135.984ZM85.9473 129.023V129.773H82.6426C82.7012 130.945 84.4238 131.854 86.2637 132.047L85.9238 132.773C84.2188 132.568 82.6191 131.807 82.0449 130.641C81.4766 131.807 79.8828 132.568 78.166 132.773L77.8379 132.047C79.6426 131.854 81.377 130.945 81.4473 129.773H78.166V129.023H85.9473ZM92.873 130.336V131.086H87.6465V130.336H89.8145V128.848H90.7285V130.336H92.873ZM90.2598 131.789C91.5723 131.789 92.5098 132.773 92.5215 134.156C92.5098 135.551 91.5723 136.547 90.2598 136.547C88.959 136.547 88.0215 135.551 88.0215 134.156C88.0215 132.773 88.959 131.789 90.2598 131.789ZM90.2598 132.562C89.4395 132.574 88.8418 133.242 88.8418 134.156C88.8418 135.082 89.4395 135.75 90.2598 135.738C91.0918 135.75 91.7012 135.082 91.7012 134.156C91.7012 133.242 91.0918 132.574 90.2598 132.562ZM96.541 128.531V138.949H95.6621V133.688H94.2793V138.434H93.4121V128.789H94.2793V132.926H95.6621V128.531H96.541ZM107.58 136.84V137.613H98.041V136.84H100.408V134.027C99.5176 133.564 98.9785 132.814 98.9785 131.871C98.9785 130.254 100.561 129.199 102.787 129.188C105.014 129.199 106.596 130.254 106.596 131.871C106.596 132.797 106.074 133.541 105.213 134.004V136.84H107.58ZM102.787 129.949C101.076 129.938 99.8691 130.711 99.8691 131.871C99.8691 133.031 101.076 133.816 102.787 133.816C104.486 133.816 105.705 133.031 105.705 131.871C105.705 130.711 104.486 129.938 102.787 129.949ZM101.311 136.84H104.287V134.355C103.836 134.479 103.332 134.543 102.787 134.543C102.254 134.543 101.756 134.484 101.311 134.367V136.84Z" fill="#8F8F8F"/>
<defs>
<filter id="filter0_d_240_5647" x="12" y="0" width="108" height="108" filterUnits="userSpaceOnUse" color-interpolation-filters="sRGB">
<feFlood flood-opacity="0" result="BackgroundImageFix"/>
<feColorMatrix in="SourceAlpha" type="matrix" values="0 0 0 0 0 0 0 0 0 0 0 0 0 0 0 0 0 0 127 0" result="hardAlpha"/>
<feOffset dx="1" dy="2"/>
<feGaussianBlur stdDeviation="2"/>
<feComposite in2="hardAlpha" operator="out"/>
<feColorMatrix type="matrix" values="0 0 0 0 0.254902 0 0 0 0 0.254902 0 0 0 0 0.254902 0 0 0 0.15 0"/>
<feBlend mode="normal" in2="BackgroundImageFix" result="effect1_dropShadow_240_5647"/>
<feBlend mode="normal" in="SourceGraphic" in2="effect1_dropShadow_240_5647" result="shape"/>
</filter>
<clipPath id="clip0_240_5647">
<rect width="43" height="47" fill="white" transform="matrix(-1 0 0 1 86 37)"/>
</clipPath>
</defs>
</svg>
