<svg width="130" height="144" viewBox="0 0 130 144" fill="none" xmlns="http://www.w3.org/2000/svg">
<g filter="url(#filter0_d_240_5623)">
<path d="M15 18C15 9.16345 22.1634 2 31 2H99C107.837 2 115 9.16344 115 18V86C115 94.8366 107.837 102 99 102H31C22.1634 102 15 94.8366 15 86V18Z" fill="white"/>
</g>
<path d="M63.8633 52.3436C64.2104 52.0599 64.6653 51.943 65.1084 52.0262C67.6323 52.4958 69.4618 54.6731 69.4619 57.1962C69.4619 57.6581 69.3996 58.1278 69.2715 58.5897C69.1998 58.8484 69.1275 59.1037 69.0596 59.3485C68.5484 61.171 68.1384 62.6257 68.1602 63.8563C70.9597 63.2845 77.3419 62.325 79.3408 64.9276C80.1503 65.9802 80.1477 67.4004 79.3369 69.1571C80.2133 70.1681 80.9203 72.1024 79.2754 74.5018C79.8186 75.9547 80.0331 78.3638 77.9385 79.746C78.0973 80.4982 78.1435 81.7532 77.2148 82.9686C75.6709 84.987 72.1319 85.9999 66.6494 85.9999L66.6523 85.9969C63.7125 85.9969 60.2142 85.7053 56.165 85.1219C55.8373 85.3895 55.4283 85.5359 54.9951 85.536H50.1631C49.151 85.536 48.3272 84.7245 48.3271 83.7274V69.4559C48.3274 68.459 49.1511 67.6474 50.1631 67.6473H54.9951C55.2636 67.6474 55.5181 67.7061 55.748 67.8085C60.2601 62.7749 62.9225 56.6039 63.2432 55.3417C63.2892 55.1627 63.3135 54.9809 63.3135 54.8007V53.494C63.3135 53.0473 63.5123 52.6288 63.8633 52.3436ZM64.8994 54.8046C64.8994 55.1136 64.8593 55.4253 64.7812 55.7255C64.3189 57.5414 61.281 64.06 56.7744 69.0194C56.8098 69.1594 56.831 69.3054 56.8311 69.4559V83.6434C70.8221 85.5984 74.8044 83.5017 75.9326 82.0536C76.8086 80.9306 76.3066 79.7498 76.2822 79.6962C76.1017 79.31 76.2718 78.859 76.6611 78.6747C78.9382 77.5933 77.7986 75.0276 77.6621 74.7382C77.5367 74.4731 77.5687 74.1605 77.748 73.9296C79.6553 71.4634 78.0718 70.0824 77.8848 69.9335C77.5802 69.7025 77.4972 69.2952 77.6738 68.9608C78.4296 67.5435 78.5639 66.5031 78.0811 65.8719C76.947 64.3941 72.3771 64.5778 68.3555 65.412C67.9275 65.5003 67.4847 65.3985 67.1426 65.1346C66.8019 64.8721 66.6 64.4788 66.582 64.0536C66.5181 62.5542 66.9673 60.9547 67.5322 58.9354C67.6027 58.6919 67.6724 58.4392 67.7441 58.1805C67.8363 57.8552 67.8808 57.5245 67.8809 57.1991C67.8807 55.451 66.6316 53.9393 64.8994 53.577V54.8046Z" fill="#9ABA9A"/>
<mask id="mask0_240_5623" style="mask-type:luminance" maskUnits="userSpaceOnUse" x="58" y="33" width="13" height="12">
<path d="M70.9966 33H58.5469V44.8334H70.9966V33Z" fill="white"/>
</mask>
<g mask="url(#mask0_240_5623)">
<path fill-rule="evenodd" clip-rule="evenodd" d="M64.9663 34.1987L64.9642 34.2018C64.9642 34.2018 64.9663 34.1997 64.9663 34.1987ZM60.1489 37.9055L61.9292 39.8846C62.138 40.1191 62.2387 40.4306 62.2051 40.7421L61.9218 43.3919L64.3411 42.2999C64.6243 42.1721 64.9485 42.1721 65.2318 42.2978L67.652 43.3908L67.3677 40.7379C67.3331 40.4295 67.4328 40.1159 67.6426 39.8836L69.4219 37.9045L66.8274 37.3563C66.5243 37.293 66.262 37.1008 66.1057 36.8283L64.7869 34.5165L63.4693 36.8283C63.3161 37.0987 63.0507 37.294 62.7464 37.3585L60.152 37.9045L60.1489 37.9055ZM67.8944 44.8271C67.7423 44.8271 67.588 44.7943 67.4475 44.7299L64.788 43.5281L62.1243 44.7299C61.7676 44.8904 61.3501 44.8461 61.0343 44.6148C60.7185 44.3835 60.5507 43.9981 60.5916 43.6062L60.9042 40.6893L58.9476 38.5096C58.6854 38.2192 58.5972 37.8062 58.7179 37.4334C58.8396 37.0596 59.1512 36.7776 59.5351 36.6995L62.3876 36.0964L63.8406 33.5502C64.0284 33.2123 64.3893 33 64.7806 33H64.7838C65.1741 33 65.5381 33.2112 65.7322 33.5523L67.1831 36.0985L70.0367 36.7016C70.4196 36.7839 70.7301 37.0659 70.8508 37.4377C70.9735 37.8168 70.8864 38.2181 70.6231 38.5138L68.6655 40.6936L68.9781 43.6126C69.0201 44.0023 68.8512 44.3899 68.5333 44.6211C68.3455 44.7574 68.1178 44.8281 67.8933 44.8281L67.8944 44.8271Z" fill="#9ABA9A"/>
</g>
<path d="M51.8724 39.6309C52.2237 39.6331 52.5526 39.8245 52.7288 40.1328L53.8157 42.0381L55.9534 42.4883C56.2985 42.5602 56.5816 42.8163 56.6907 43.1562C56.7997 43.4941 56.7198 43.8709 56.4827 44.1338L55.0208 45.7627L55.2532 47.9463C55.292 48.3001 55.1383 48.6502 54.8519 48.8604C54.5655 49.0704 54.1887 49.1095 53.8645 48.9639L51.8743 48.0645L49.8831 48.9639C49.7509 49.0209 49.6143 49.0498 49.4769 49.0498L49.4739 49.0488C49.2674 49.0488 49.0618 48.9859 48.8909 48.8594C48.6024 48.6513 48.4487 48.3012 48.4886 47.9453L48.722 45.7617L47.2561 44.1318C47.0201 43.87 46.9381 43.4952 47.0481 43.1562C47.1572 42.8184 47.4384 42.5623 47.7845 42.4883L49.9222 42.0381L51.0081 40.1328C51.1885 39.8213 51.5199 39.6287 51.8724 39.6309ZM77.7669 39.6309C78.1203 39.6331 78.4473 39.8246 78.6214 40.1328L79.7063 42.0381L81.8431 42.4883C82.1903 42.5601 82.4742 42.8162 82.5833 43.1562C82.6923 43.4941 82.6122 43.8709 82.3753 44.1338L80.9124 45.7627L81.1458 47.9463C81.1857 48.3001 81.0299 48.6502 80.7435 48.8604C80.4571 49.0702 80.0802 49.1095 79.7561 48.9639L77.7669 48.0645L75.7757 48.9639C75.6415 49.0208 75.5049 49.0498 75.3665 49.0498L75.3626 49.0488C75.1582 49.0487 74.9524 48.986 74.7815 48.8594C74.4941 48.6513 74.3403 48.3012 74.3802 47.9453L74.6126 45.7617L73.1487 44.1318C72.9127 43.87 72.8327 43.4952 72.9417 43.1562C73.0508 42.8173 73.3318 42.5622 73.678 42.4883L75.8177 42.0381L76.9017 40.1328C77.0821 39.8213 77.4154 39.6287 77.7669 39.6309ZM66.6624 36.4248L69.7581 37.4463L67.9612 40.3301L68.2278 44.1084L64.9544 42.8369L61.555 43.6611L61.431 40.5088L59.5267 37.5713L62.5159 36.8369L64.2425 34.0781L64.9007 33.5586L66.6624 36.4248Z" fill="#9ABA9A"/>
<path d="M49.0391 13.2383V14.4414H46.4004C46.4072 15.8154 47.4873 17.1621 49.4629 17.6816L48.752 18.8574C47.3164 18.4814 46.2637 17.6338 45.6895 16.5469C45.1289 17.7568 44.0762 18.707 42.5996 19.1445L41.8613 17.9688C43.8232 17.3945 44.876 15.9248 44.8828 14.4414H42.2441V13.2383H44.8828V11.8711H46.4141V13.2383H49.0391ZM52.0059 11.8711V19.3633H50.4746V11.8711H52.0059ZM47.8223 19.582C50.4199 19.582 52.0332 20.4297 52.0332 21.8926C52.0332 23.3555 50.4199 24.2031 47.8223 24.2031C45.1973 24.2031 43.5977 23.3555 43.5977 21.8926C43.5977 20.4297 45.1973 19.582 47.8223 19.582ZM47.8223 20.7578C46.0723 20.7578 45.1289 21.168 45.1289 21.8926C45.1289 22.6309 46.0723 23.0273 47.8223 23.0273C49.5586 23.0273 50.5293 22.6309 50.543 21.8926C50.5293 21.168 49.5586 20.7578 47.8223 20.7578ZM58.2539 14.7285C58.2539 16.1777 59.252 17.5996 61.207 18.1738L60.4414 19.3906C59.0537 18.9668 58.0625 18.0781 57.5156 16.957C56.9619 18.167 55.9502 19.124 54.5215 19.5957L53.7559 18.3926C55.6973 17.791 56.7363 16.3008 56.7363 14.7285V14.6191H54.1523V13.416H56.7363V11.9395H58.2676V13.416H60.8379V14.6191H58.2539V14.7285ZM63.5586 11.8574V15.5762H65.2812V16.834H63.5586V21.0039H62.041V11.8574H63.5586ZM64.0508 22.7402V23.9707H55.6426V20.1973H57.1602V22.7402H64.0508ZM75.5898 11.8574V16.7793H77.4902V18.0371H75.5898V24.2168H74.0859V11.8574H75.5898ZM73.1289 13.7578V14.9746H65.8418V13.7578H68.7676V12.0352H70.2852V13.7578H73.1289ZM69.5332 15.7812C71.3105 15.7812 72.6367 16.9844 72.6367 18.6934C72.6367 20.4023 71.3105 21.5918 69.5332 21.5918C67.7285 21.5918 66.4023 20.4023 66.416 18.6934C66.4023 16.9844 67.7285 15.7812 69.5332 15.7812ZM69.5332 17.0254C68.5625 17.0254 67.8652 17.6816 67.8652 18.6934C67.8652 19.7051 68.5625 20.3477 69.5332 20.334C70.4766 20.3477 71.1738 19.7051 71.1875 18.6934C71.1738 17.6816 70.4766 17.0254 69.5332 17.0254ZM88.332 11.8574V24.2168H86.8008V11.8574H88.332ZM84.6406 13.1699C84.6406 16.8477 83.2188 19.9785 78.8848 22.0293L78.0918 20.8125C81.3252 19.2744 82.8291 17.1826 83.0957 14.373H78.7207V13.1699H84.6406Z" fill="#707070"/>
<path d="M28.2266 115.211C30.4414 115.223 32.0352 116.301 32.0352 117.941C32.0352 119.494 30.6523 120.525 28.6719 120.648V122.84H33.0195V123.613H23.4805V122.84H27.7695V120.648C25.7949 120.52 24.418 119.488 24.418 117.941C24.418 116.301 26.0117 115.223 28.2266 115.211ZM28.2266 115.973C26.5391 115.973 25.3086 116.77 25.3086 117.941C25.3086 119.148 26.5391 119.922 28.2266 119.934C29.9141 119.922 31.1445 119.148 31.1445 117.941C31.1445 116.77 29.9141 115.973 28.2266 115.973ZM42.2539 117.039V117.801H35.1406V114.707H36.043V117.039H42.2539ZM43.3789 118.832V119.582H33.8398V118.832H43.3789ZM42.1484 120.52V122.957H35.9844V124.07H42.5234V124.809H35.0586V122.254H41.2461V121.246H35.0352V120.52H42.1484ZM50.7617 116.184C50.75 117.426 51.8281 118.551 53.3633 119.008L52.9297 119.723C51.7227 119.365 50.7793 118.598 50.3164 117.613C49.8711 118.732 48.8867 119.594 47.6094 119.992L47.1523 119.277C48.7227 118.785 49.8242 117.566 49.8359 116.207V115.879H47.4688V115.129H53.082V115.879H50.7617V116.184ZM55.3789 114.531V116.816H56.9492V117.578H55.3789V119.91H54.4648V114.531H55.3789ZM55.3789 120.391V122.887H49.6602V124.129H55.7656V124.855H48.7578V122.207H54.4648V121.129H48.7344V120.391H55.3789ZM65.75 114.543V117.977H67.3203V118.75H65.75V122.348H64.8359V114.543H65.75ZM63.8398 115.82V116.57H57.6289V115.82H60.2773V114.543H61.1914V115.82H63.8398ZM60.7344 117.145C62.2227 117.145 63.2305 117.906 63.2422 119.09C63.2305 120.262 62.2227 121.012 60.7344 121.012C59.2344 121.012 58.2148 120.262 58.2266 119.09C58.2148 117.906 59.2344 117.145 60.7344 117.145ZM60.7344 117.871C59.75 117.871 59.0938 118.352 59.1055 119.09C59.0938 119.828 59.75 120.297 60.7344 120.285C61.707 120.297 62.3633 119.828 62.375 119.09C62.3633 118.352 61.707 117.871 60.7344 117.871ZM66.2305 123.953V124.727H59.2344V121.727H60.1367V123.953H66.2305ZM74.3633 115.516V124H73.2969V116.617H73.25L71.1875 117.988V116.922L73.2969 115.516H74.3633ZM84.3125 114.531V118.773H86V119.547H84.3125V124.949H83.3984V114.531H84.3125ZM81.6172 115.656C81.6172 118.609 80.2344 121.293 76.8359 122.969L76.3203 122.242C79.0156 120.9 80.4805 118.896 80.6914 116.43H76.8008V115.656H81.6172ZM90.3477 117.73C90.3477 119.5 91.6367 121.293 93.1719 121.961L92.6562 122.688C91.4375 122.131 90.3828 120.93 89.9023 119.488C89.4102 121.018 88.3613 122.348 87.1719 122.945L86.6211 122.219C88.1094 121.504 89.4102 119.535 89.4219 117.73V116.371H86.9609V115.609H92.832V116.371H90.3477V117.73ZM95.2109 114.531V124.949H94.2852V114.531H95.2109ZM106.531 122.887V123.66H96.9922V122.887H101.281V120.918H98.1875V117.707H104.422V116.066H98.1641V115.305H105.324V118.457H99.1016V120.156H105.57V120.918H102.184V122.887H106.531ZM32.8086 130.066C32.8086 131.848 34.8477 133.441 36.6641 133.781L36.2422 134.555C34.6719 134.191 33.0137 133.072 32.3398 131.531C31.666 133.066 30.0137 134.186 28.4375 134.555L28.0156 133.781C29.8203 133.43 31.8477 131.859 31.8477 130.066V129.27H32.8086V130.066ZM37.1562 136.77V137.531H27.6172V136.77H37.1562ZM43.1797 130.066C43.1797 131.848 45.2188 133.441 47.0352 133.781L46.6133 134.555C45.043 134.191 43.3848 133.072 42.7109 131.531C42.0371 133.066 40.3848 134.186 38.8086 134.555L38.3867 133.781C40.1914 133.43 42.2188 131.859 42.2188 130.066V129.27H43.1797V130.066ZM47.5273 136.77V137.531H37.9883V136.77H47.5273ZM57.8984 136.887V137.66H48.3594V136.887H52.6484V134.918H49.5547V131.707H55.7891V130.066H49.5312V129.305H56.6914V132.457H50.4688V134.156H56.9375V134.918H53.5508V136.887H57.8984ZM65.5273 130.711C65.5273 132.035 66.6641 133.207 68.2227 133.652L67.7891 134.367C66.5586 134.004 65.5742 133.213 65.0938 132.176C64.6367 133.318 63.6641 134.215 62.4102 134.637L61.9531 133.91C63.5 133.418 64.6133 132.141 64.6133 130.711V130.57H62.2109V129.832H64.6133V128.531H65.5391V129.832H67.918V130.57H65.5273V130.711ZM70.3438 128.543V134.93H69.4297V128.543H70.3438ZM66.8633 135.152C69.043 135.141 70.3672 135.832 70.3789 137.027C70.3672 138.246 69.043 138.926 66.8633 138.926C64.6719 138.926 63.3477 138.246 63.3477 137.027C63.3477 135.832 64.6719 135.141 66.8633 135.152ZM66.8633 135.879C65.2344 135.879 64.2734 136.312 64.2734 137.027C64.2734 137.766 65.2344 138.199 66.8633 138.199C68.4805 138.199 69.4648 137.766 69.4648 137.027C69.4648 136.312 68.4805 135.879 66.8633 135.879ZM75.6641 131.004C75.6641 132.34 76.7188 133.559 78.2539 134.039L77.7852 134.789C76.5957 134.391 75.6816 133.576 75.2305 132.527C74.7734 133.67 73.8242 134.543 72.6055 134.977L72.125 134.227C73.6836 133.734 74.7617 132.457 74.7617 131.004V130.711H72.4062V129.961H74.7617V128.602H75.6875V129.961H78.0195V130.711H75.6641V131.004ZM80.2578 128.531V131.777H81.8281V132.551H80.2578V136.242H79.3438V128.531H80.2578ZM80.7383 137.953V138.727H73.7422V135.574H74.6445V137.953H80.7383ZM87.6875 130.336V131.086H82.4609V130.336H84.6289V128.848H85.543V130.336H87.6875ZM85.0742 131.789C86.3867 131.789 87.3242 132.773 87.3359 134.156C87.3242 135.551 86.3867 136.547 85.0742 136.547C83.7734 136.547 82.8359 135.551 82.8359 134.156C82.8359 132.773 83.7734 131.789 85.0742 131.789ZM85.0742 132.562C84.2539 132.574 83.6562 133.242 83.6562 134.156C83.6562 135.082 84.2539 135.75 85.0742 135.738C85.9062 135.75 86.5156 135.082 86.5156 134.156C86.5156 133.242 85.9062 132.574 85.0742 132.562ZM91.3555 128.531V138.949H90.4766V133.688H89.0938V138.434H88.2266V128.789H89.0938V132.926H90.4766V128.531H91.3555ZM102.395 136.84V137.613H92.8555V136.84H95.2227V134.027C94.332 133.564 93.793 132.814 93.793 131.871C93.793 130.254 95.375 129.199 97.6016 129.188C99.8281 129.199 101.41 130.254 101.41 131.871C101.41 132.797 100.889 133.541 100.027 134.004V136.84H102.395ZM97.6016 129.949C95.8906 129.938 94.6836 130.711 94.6836 131.871C94.6836 133.031 95.8906 133.816 97.6016 133.816C99.3008 133.816 100.52 133.031 100.52 131.871C100.52 130.711 99.3008 129.938 97.6016 129.949ZM96.125 136.84H99.1016V134.355C98.6504 134.479 98.1465 134.543 97.6016 134.543C97.0684 134.543 96.5703 134.484 96.125 134.367V136.84Z" fill="#8F8F8F"/>
<defs>
<filter id="filter0_d_240_5623" x="12" y="0" width="108" height="108" filterUnits="userSpaceOnUse" color-interpolation-filters="sRGB">
<feFlood flood-opacity="0" result="BackgroundImageFix"/>
<feColorMatrix in="SourceAlpha" type="matrix" values="0 0 0 0 0 0 0 0 0 0 0 0 0 0 0 0 0 0 127 0" result="hardAlpha"/>
<feOffset dx="1" dy="2"/>
<feGaussianBlur stdDeviation="2"/>
<feComposite in2="hardAlpha" operator="out"/>
<feColorMatrix type="matrix" values="0 0 0 0 0.254902 0 0 0 0 0.254902 0 0 0 0 0.254902 0 0 0 0.15 0"/>
<feBlend mode="normal" in2="BackgroundImageFix" result="effect1_dropShadow_240_5623"/>
<feBlend mode="normal" in="SourceGraphic" in2="effect1_dropShadow_240_5623" result="shape"/>
</filter>
</defs>
</svg>
