<svg width="130" height="144" viewBox="0 0 130 144" fill="none" xmlns="http://www.w3.org/2000/svg">
<g filter="url(#filter0_d_240_5664)">
<path d="M15 18C15 9.16345 22.1634 2 31 2H99C107.837 2 115 9.16344 115 18V86C115 94.8366 107.837 102 99 102H31C22.1634 102 15 94.8366 15 86V18Z" fill="white"/>
</g>
<path d="M48.0957 13.5527C48.0957 15.4668 49.9688 17.3809 52.5527 17.832L51.8691 19.1035C49.7979 18.666 48.1025 17.415 47.3027 15.7539C46.4824 17.4014 44.7871 18.6592 42.7227 19.1035L42.0527 17.832C44.6094 17.3672 46.4688 15.4531 46.4824 13.5527V12.6367H48.0957V13.5527ZM53.0039 21.3867V22.6445H41.7109V21.3867H53.0039ZM63.8594 18.3379V19.541H55.1914V12.8281H63.75V14.0586H56.7363V15.5488H63.4629V16.7383H56.7363V18.3379H63.8594ZM65.1035 21.4688V22.7129H53.8105V21.4688H65.1035ZM70.668 13.1426V17.6816H67.7422V20.0059C69.0205 19.9922 70.2305 19.9375 71.625 19.6777L71.748 20.9219C70.0938 21.2227 68.6992 21.2637 67.1406 21.2637H66.2793V16.4785H69.2051V14.3594H66.2656V13.1426H70.668ZM76.5469 11.8574V24.2168H75.0977V11.8574H76.5469ZM74.0039 12.1172V23.5879H72.5684V17.3945H71.2148V16.1504H72.5684V12.1172H74.0039ZM85.3379 13.2383V14.4414H82.6992C82.7061 15.8154 83.7861 17.1621 85.7617 17.6816L85.0508 18.8574C83.6152 18.4814 82.5625 17.6338 81.9883 16.5469C81.4277 17.7568 80.375 18.707 78.8984 19.1445L78.1602 17.9688C80.1221 17.3945 81.1748 15.9248 81.1816 14.4414H78.543V13.2383H81.1816V11.8711H82.7129V13.2383H85.3379ZM88.3047 11.8711V19.3633H86.7734V11.8711H88.3047ZM84.1211 19.582C86.7188 19.582 88.332 20.4297 88.332 21.8926C88.332 23.3555 86.7188 24.2031 84.1211 24.2031C81.4961 24.2031 79.8965 23.3555 79.8965 21.8926C79.8965 20.4297 81.4961 19.582 84.1211 19.582ZM84.1211 20.7578C82.3711 20.7578 81.4277 21.168 81.4277 21.8926C81.4277 22.6309 82.3711 23.0273 84.1211 23.0273C85.8574 23.0273 86.8281 22.6309 86.8418 21.8926C86.8281 21.168 85.8574 20.7578 84.1211 20.7578Z" fill="#707070"/>
<path d="M39.5469 114.977V118.492H36.4648V119.828H40.7539V120.578H31.2617V119.828H35.5508V118.492H32.4922V114.977H39.5469ZM33.3945 115.715V117.754H38.6328V115.715H33.3945ZM39.582 121.668V124.949H38.6562V122.406H32.3164V121.668H39.582ZM42.7344 121.047C42.3242 121.047 41.9727 120.707 41.9844 120.285C41.9727 119.875 42.3242 119.535 42.7344 119.535C43.1445 119.535 43.4844 119.875 43.4844 120.285C43.4844 120.707 43.1445 121.047 42.7344 121.047ZM47.4805 115.34C48.8984 115.352 49.918 116.564 50.0703 118.516H52.4023V114.531H53.3164V124.973H52.4023V119.277H50.082C49.9707 121.316 48.9336 122.594 47.4805 122.594C45.9453 122.594 44.8672 121.188 44.8672 118.973C44.8672 116.758 45.9453 115.352 47.4805 115.34ZM47.4805 116.16C46.4492 116.172 45.7461 117.273 45.7461 118.973C45.7461 120.672 46.4492 121.773 47.4805 121.773C48.5 121.773 49.2148 120.672 49.2148 118.973C49.2148 117.273 48.5 116.172 47.4805 116.16ZM64.0977 114.52V124.949H63.1953V119.512H61.8828V124.434H61.0273V114.766H61.8828V118.75H63.1953V114.52H64.0977ZM57.6406 115.809C57.6406 117.977 57.3359 120.391 55.8125 122.371L55.0742 121.914C56.3691 120.332 56.7793 118.457 56.8672 116.57H55.2969V115.809H57.6406ZM60.1016 115.809C60.1016 117.941 59.9492 120.871 58.2969 123.109L57.5352 122.664C58.9824 120.859 59.2578 118.516 59.3047 116.57H57.9922V115.809H60.1016ZM66.5234 121.047C66.1133 121.047 65.7617 120.707 65.7734 120.285C65.7617 119.875 66.1133 119.535 66.5234 119.535C66.9336 119.535 67.2734 119.875 67.2734 120.285C67.2734 120.707 66.9336 121.047 66.5234 121.047ZM76.9062 123.953V124.727H69.6992V121.727H70.625V123.953H76.9062ZM77.9961 120.121V120.895H68.4688V120.121H72.7578V118.352H73.6602V120.121H77.9961ZM73.6719 115.281C73.6719 116.758 75.5 118.012 77.3281 118.305L76.9648 119.031C75.4004 118.727 73.8594 117.842 73.2148 116.582C72.5703 117.848 71.041 118.738 69.4648 119.031L69.0898 118.305C70.918 118 72.7461 116.746 72.7461 115.281V114.812H73.6719V115.281ZM87.125 114.977V118.492H84.043V119.828H88.332V120.578H78.8398V119.828H83.1289V118.492H80.0703V114.977H87.125ZM80.9727 115.715V117.754H86.2109V115.715H80.9727ZM87.1602 121.668V124.949H86.2344V122.406H79.8945V121.668H87.1602ZM93.957 114.719C96.2773 114.719 97.6367 115.352 97.6367 116.512C97.6367 117.695 96.2773 118.328 93.957 118.34C91.6367 118.328 90.2656 117.695 90.2656 116.512C90.2656 115.352 91.6367 114.719 93.957 114.719ZM93.957 115.41C92.2227 115.41 91.2148 115.832 91.2266 116.512C91.2148 117.238 92.2227 117.637 93.957 117.637C95.6797 117.637 96.6992 117.238 96.6992 116.512C96.6992 115.832 95.6797 115.41 93.957 115.41ZM98.7031 119.043V119.793H89.2109V119.043H98.7031ZM97.4844 120.695V123.027H91.2969V124.105H97.8008V124.832H90.3828V122.348H96.582V121.398H90.3594V120.695H97.4844ZM36.3535 131.027C36.3535 132.41 37.4551 133.629 39.002 134.109L38.5449 134.848C37.3379 134.455 36.3887 133.629 35.9199 132.562C35.4688 133.705 34.5254 134.59 33.2949 135.023L32.8379 134.309C34.373 133.793 35.4512 132.492 35.4512 131.027V130.688H33.0957V129.938H35.4512V128.602H36.377V129.938H38.709V130.688H36.3535V131.027ZM41.4395 128.543V136.324H40.5137V132.516H38.3457V131.754H40.5137V128.543H41.4395ZM41.7324 137.953V138.727H34.748V135.621H35.6738V137.953H41.7324ZM46.7246 131.027C46.7246 132.41 47.8262 133.629 49.373 134.109L48.916 134.848C47.709 134.455 46.7598 133.629 46.291 132.562C45.8398 133.705 44.8965 134.59 43.666 135.023L43.209 134.309C44.7441 133.793 45.8223 132.492 45.8223 131.027V130.688H43.4668V129.938H45.8223V128.602H46.748V129.938H49.0801V130.688H46.7246V131.027ZM51.8105 128.543V136.324H50.8848V132.516H48.7168V131.754H50.8848V128.543H51.8105ZM52.1035 137.953V138.727H45.1191V135.621H46.0449V137.953H52.1035ZM62.1348 128.531V138.949H61.209V128.531H62.1348ZM60.084 130.23V130.98H53.7793V130.23H56.4629V128.637H57.3887V130.23H60.084ZM56.9551 131.836C58.4551 131.836 59.5332 132.82 59.5332 134.227C59.5332 135.633 58.4551 136.617 56.9551 136.617C55.4434 136.617 54.3535 135.633 54.3652 134.227C54.3535 132.82 55.4434 131.836 56.9551 131.836ZM56.9551 132.609C55.959 132.609 55.2324 133.289 55.2324 134.227C55.2324 135.176 55.959 135.844 56.9551 135.832C57.9395 135.844 58.6543 135.176 58.6543 134.227C58.6543 133.289 57.9395 132.609 56.9551 132.609ZM75.3301 131.039V131.801H68.2168V128.707H69.1191V131.039H75.3301ZM76.4551 132.832V133.582H66.916V132.832H76.4551ZM75.2246 134.52V136.957H69.0605V138.07H75.5996V138.809H68.1348V136.254H74.3223V135.246H68.1113V134.52H75.2246ZM85.9238 128.531V138.973H85.0098V134.531H82.8418V133.758H85.0098V131.684H82.9238V130.91H85.0098V128.531H85.9238ZM82.2441 129.48V133.184H78.6113V135.75C80.1758 135.744 81.4707 135.686 83.0527 135.445L83.1348 136.219C81.4707 136.477 80.1348 136.535 78.4707 136.535H77.6973V132.434H81.3418V130.242H77.6621V129.48H82.2441ZM97.209 136.84V137.613H87.6699V136.84H90.0371V134.027C89.1465 133.564 88.6074 132.814 88.6074 131.871C88.6074 130.254 90.1895 129.199 92.416 129.188C94.6426 129.199 96.2246 130.254 96.2246 131.871C96.2246 132.797 95.7031 133.541 94.8418 134.004V136.84H97.209ZM92.416 129.949C90.7051 129.938 89.498 130.711 89.498 131.871C89.498 133.031 90.7051 133.816 92.416 133.816C94.1152 133.816 95.334 133.031 95.334 131.871C95.334 130.711 94.1152 129.938 92.416 129.949ZM90.9395 136.84H93.916V134.355C93.4648 134.479 92.9609 134.543 92.416 134.543C91.8828 134.543 91.3848 134.484 90.9395 134.367V136.84Z" fill="#8F8F8F"/>
<g clip-path="url(#clip0_240_5664)">
<path d="M74.55 41.7545C74.7636 41.8597 74.9727 41.9786 75.1727 42.1021C75.3727 42.2301 75.5727 42.3627 75.7591 42.5091C75.9455 42.6554 76.1273 42.8109 76.3 42.9709C76.4727 43.1355 76.6409 43.3047 76.7955 43.4876C76.95 43.666 77.1 43.8535 77.2364 44.0501C77.3727 44.2467 77.5045 44.4479 77.6227 44.6537C77.7409 44.8595 77.85 45.0744 77.95 45.2939C78.05 45.5134 78.1364 45.7329 78.2136 45.9615C78.2909 46.1902 78.3545 46.4188 78.4091 46.652C78.4636 46.8852 78.5045 47.1184 78.5364 47.3562C78.5682 47.594 78.5864 47.8318 78.5955 48.0696C78.6045 48.3074 78.5955 48.5452 78.5818 48.7875C78.5682 49.0253 78.5409 49.2631 78.5 49.5009C78.4591 49.7387 78.4091 49.9719 78.35 50.2005C78.2864 50.4292 78.2182 50.6578 78.1318 50.8819C78.0455 51.1059 77.9545 51.3254 77.85 51.5403C77.7455 51.7553 77.6273 51.9656 77.5045 52.1668C77.3773 52.368 77.2455 52.5646 77.1 52.7567C76.9545 52.9488 76.8 53.1271 76.6409 53.3054C76.4818 53.4838 76.3091 53.6438 76.1273 53.8039C75.95 53.9594 75.7636 54.1103 75.5682 54.2474C75.3727 54.3846 75.1773 54.5172 74.9682 54.6361C74.7591 54.755 74.55 54.8648 74.3364 54.9654C74.1182 55.066 73.9 55.1529 73.6727 55.2306C73.4455 55.3083 73.2182 55.3724 72.9864 55.4272C72.7545 55.4821 72.5227 55.5233 72.2864 55.5553C72.05 55.5873 71.8136 55.6056 71.5773 55.6147C71.3409 55.6239 71.1 55.6147 70.8636 55.6056C70.6273 55.5918 70.3909 55.5644 70.1545 55.5233C69.9182 55.4821 69.6864 55.4318 69.4591 55.3724C69.2318 55.3083 69.0045 55.2397 68.7818 55.1529C68.5591 55.066 68.3409 54.9745 68.1273 54.8693C67.9136 54.7642 67.7045 54.6453 67.5045 54.5218C67.3045 54.3938 67.1045 54.2612 66.9182 54.1148C66.7318 53.9685 66.55 53.813 66.3773 53.653C66.2045 53.4929 66.0364 53.3192 65.8818 53.1363C65.7273 52.9533 65.5773 52.7704 65.4409 52.5738C65.3045 52.3772 65.1727 52.1805 65.0545 51.9702C64.9364 51.7598 64.8273 51.5495 64.7273 51.3346C64.6273 51.1151 64.5409 50.8956 64.4636 50.6669C64.3864 50.4429 64.3227 50.2097 64.2682 49.9764C64.2136 49.7432 64.1727 49.51 64.1409 49.2722C64.1091 49.0344 64.0909 48.7967 64.0818 48.5589C64.0727 48.3211 64.0818 48.0787 64.0955 47.8409C64.1091 47.6032 64.1364 47.3654 64.1773 47.1276C64.2182 46.8898 64.2682 46.6566 64.3273 46.4279C64.3909 46.1947 64.4591 45.9707 64.5455 45.7466C64.6318 45.5225 64.7227 45.303 64.8273 45.0881C64.9318 44.8732 65.05 44.6628 65.1727 44.4616C65.3 44.2604 65.4318 44.0638 65.5773 43.8717C65.7227 43.6797 65.8773 43.5014 66.0364 43.323C66.2 43.1492 66.3682 42.9846 66.55 42.8246C66.7273 42.6645 66.9136 42.5182 67.1091 42.3764C67.3045 42.2347 67.5 42.1066 67.7091 41.9878C67.9182 41.8689 68.1273 41.7591 68.3409 41.6585C68.5591 41.5579 68.7773 41.471 69.0045 41.3933C69.2318 41.3156 69.4591 41.2515 69.6909 41.1967C69.9227 41.1418 70.1545 41.1006 70.3909 41.0686C70.6273 41.0366 70.8636 41.0183 71.1 41.0092C71.3364 41 71.5727 41.0092 71.8136 41.0229C72.05 41.0366 72.2864 41.064 72.5227 41.1052C72.7591 41.1464 72.9909 41.1967 73.2182 41.2561C73.4455 41.3201 73.6727 41.3933 73.8955 41.4756C74.1182 41.5579 74.3364 41.6539 74.55 41.7591V41.7545Z" fill="#9ABA9A"/>
<mask id="mask0_240_5664" style="mask-type:luminance" maskUnits="userSpaceOnUse" x="43" y="50" width="45" height="29">
<path d="M88 50.8179H43V78.9909H88V50.8179Z" fill="white"/>
</mask>
<g mask="url(#mask0_240_5664)">
<path d="M85.4545 71.1897C77.7909 68.0116 70.8 66.9919 65.0591 66.9919C62.0909 66.9919 59.4636 67.2617 57.2318 67.6412C58.8773 65.4417 60.6545 63.4159 62.1545 61.6783C60.2591 60.4893 59.0136 59.5382 58.5091 59.1404H58.5045L58.4727 59.1084C57.0954 57.9743 56.8864 55.9257 58.0091 54.5401C58.6227 53.781 59.5364 53.342 60.5136 53.342C61.2545 53.342 61.9773 53.6027 62.5545 54.0737L62.6091 54.1194C62.6545 54.156 62.7318 54.2155 62.8364 54.2978C63.0318 54.4441 63.3636 54.691 63.8273 55.0157C64.1773 55.2581 64.6273 55.5599 65.1636 55.9028C65.2273 54.6316 64.8818 53.4427 64.0136 52.6104C61.9545 50.6395 57.7454 49.9673 53.9954 53.2917C48.8682 57.8966 46.3682 61.3719 43.55 68.0573C41.8636 73.1057 44.6954 75.3418 47.2864 76.7777C48.5227 77.4636 49.4636 77.9072 50.3273 77.7425C50.9954 77.7928 51.6864 77.6739 52.3364 77.3676C52.4045 77.3356 52.6909 77.2121 53.1954 77.0246C54.9409 76.3844 59.1818 75.1086 65.0591 75.1086C69.8591 75.1086 75.7454 75.9454 82.3818 78.6937C82.8863 78.904 83.4045 79.0001 83.9182 79.0001C85.5045 79.0001 87.0091 78.0535 87.65 76.485C88.5 74.4135 87.5182 72.0402 85.4545 71.1851V71.1897Z" fill="#9ABA9A"/>
</g>
<path d="M62.4455 54.8144C62.3364 54.7275 62.2545 54.6681 62.2045 54.6269C62.1773 54.6086 62.1636 54.5949 62.15 54.5858C62.15 54.5858 62.1485 54.5858 62.1455 54.5858C61.0409 53.6803 59.4136 53.845 58.5136 54.9562C57.6136 56.0674 57.7773 57.7044 58.8818 58.6098C58.9545 58.6647 60.2545 59.7256 62.5909 61.1797C66.3318 63.5073 72.7318 66.8363 81.0591 68.6609C81.2409 68.702 81.4273 68.7203 81.6091 68.7203C82.8 68.7203 83.8682 67.8881 84.1318 66.6717C84.4364 65.2678 83.55 63.8868 82.1545 63.5805C76.0045 62.2406 70.9545 59.9634 67.4682 58.0245C66.5682 57.5261 65.7773 57.0505 65.0909 56.6207C64.45 56.2183 63.9 55.8524 63.4636 55.5461C63.0136 55.2305 62.6682 54.979 62.45 54.8098L62.4455 54.8144Z" fill="#9ABA9A"/>
</g>
<defs>
<filter id="filter0_d_240_5664" x="12" y="0" width="108" height="108" filterUnits="userSpaceOnUse" color-interpolation-filters="sRGB">
<feFlood flood-opacity="0" result="BackgroundImageFix"/>
<feColorMatrix in="SourceAlpha" type="matrix" values="0 0 0 0 0 0 0 0 0 0 0 0 0 0 0 0 0 0 127 0" result="hardAlpha"/>
<feOffset dx="1" dy="2"/>
<feGaussianBlur stdDeviation="2"/>
<feComposite in2="hardAlpha" operator="out"/>
<feColorMatrix type="matrix" values="0 0 0 0 0.254902 0 0 0 0 0.254902 0 0 0 0 0.254902 0 0 0 0.15 0"/>
<feBlend mode="normal" in2="BackgroundImageFix" result="effect1_dropShadow_240_5664"/>
<feBlend mode="normal" in="SourceGraphic" in2="effect1_dropShadow_240_5664" result="shape"/>
</filter>
<clipPath id="clip0_240_5664">
<rect width="45" height="38" fill="white" transform="translate(43 41)"/>
</clipPath>
</defs>
</svg>
