<svg width="130" height="144" viewBox="0 0 130 144" fill="none" xmlns="http://www.w3.org/2000/svg">
<g filter="url(#filter0_d_240_5609)">
<path d="M15 18C15 9.16345 22.1634 2 31 2H99C107.837 2 115 9.16344 115 18V86C115 94.8366 107.837 102 99 102H31C22.1634 102 15 94.8366 15 86V18Z" fill="white"/>
</g>
<g clip-path="url(#clip0_240_5609)">
<mask id="mask0_240_5609" style="mask-type:luminance" maskUnits="userSpaceOnUse" x="47" y="35" width="36" height="55">
<path d="M83 35.7076H47V89.9996H83V35.7076Z" fill="white"/>
</mask>
<g mask="url(#mask0_240_5609)">
<path d="M82.1936 78.4442C82.8547 78.8227 83.071 79.6494 82.675 80.2874L77.5136 88.6024C77.1442 89.2554 76.2868 89.4784 75.6278 89.0935L72.8636 87.4755C72.056 87.0885 71.7599 86.117 72.2224 85.3675L72.4742 84.959C70.1769 82.8918 66.1026 78.9803 65.8874 77.0568C65.8275 76.5249 65.7221 75.8559 65.609 75.1461C65.0921 71.8865 64.7693 69.3057 65.6822 68.2013C66.6351 67.0508 67.1486 65.5722 67.1486 64.7659C67.1486 64.3927 66.3644 63.3002 65.9418 62.7126C65.4504 62.0285 65.1908 61.6586 65.1176 61.3594C65.1143 61.3498 65.0666 61.1503 64.9967 60.8265C64.9268 61.1503 64.878 61.3498 64.8758 61.3594C64.8026 61.6586 64.543 62.0285 64.0516 62.7126C63.6301 63.2991 62.8458 64.3917 62.8458 64.7659C62.8458 65.5722 63.3594 67.0508 64.3123 68.2013C65.2252 69.3057 64.9024 71.8854 64.3855 75.1461C64.2723 75.8559 64.167 76.5249 64.1071 77.0568C63.8919 78.9803 59.8175 82.8918 57.5203 84.959L57.7732 85.3675C58.2346 86.117 57.9396 87.0874 57.1309 87.4755L54.0327 89.1546C53.457 89.4667 52.7293 89.2608 52.4176 88.6989L47.416 80.0976C47.0843 79.5282 47.2784 78.8066 47.8564 78.4657L50.6872 76.7919C51.2662 76.4595 51.9751 76.5399 52.4653 76.9335C54.249 75.9674 56.9645 74.4459 57.7232 73.794C58.3356 73.2675 57.7465 70.6749 57.4304 69.2821C57.2618 68.5422 57.1176 67.9032 57.0599 67.4035C56.8835 65.8628 60.3444 58.7496 62.4232 54.6473C62.7016 54.0994 63.2662 53.7595 63.8996 53.7595H64.3001C64.5696 53.767 64.807 53.8625 65 54.0276C65.1919 53.8614 65.426 53.767 65.6822 53.7606H66.1004C66.7338 53.7606 67.2995 54.1005 67.5768 54.6484C69.6556 58.7507 73.1176 65.8638 72.9401 67.4046C72.8824 67.9043 72.7382 68.5422 72.5696 69.2831C72.2535 70.6749 71.6645 73.2686 72.2768 73.7951C73.0344 74.4459 75.7499 75.9684 77.5336 76.9345C78.0239 76.5399 78.7316 76.4606 79.3117 76.793L82.1958 78.4453L82.1936 78.4442ZM64.2257 54.9197H63.8985C63.7266 54.9197 63.5735 55.0119 63.4981 55.1588C60.2601 61.5481 58.1514 66.4182 58.2501 67.277C58.3001 67.7145 58.4465 68.3557 58.6007 69.0344C59.0954 71.2131 59.6567 73.6825 58.5197 74.6603C57.6423 75.4141 54.8092 76.9914 53.162 77.8845L53.1997 77.9456L56.8968 83.9415C59.6101 81.4786 62.7748 78.2287 62.9201 76.9335C62.9823 76.3759 63.091 75.694 63.2052 74.9713C63.5169 73.007 64.0394 69.7206 63.3805 68.9261C62.1925 67.4904 61.6511 65.7641 61.6511 64.767C61.6511 64.0829 62.2402 63.2112 63.071 62.0532C63.3228 61.7025 63.6678 61.2233 63.7166 61.0807C64.2246 59.0209 64.6617 55.5062 64.2269 54.9186L64.2257 54.9197ZM76.837 77.8845C75.1897 76.9924 72.3566 75.4141 71.4792 74.6603C70.3411 73.6825 70.9024 71.2121 71.3982 69.0344C71.5524 68.3557 71.6977 67.7145 71.7488 67.277C71.8475 66.4182 69.7388 61.5481 66.5008 55.1588C66.4265 55.0108 66.2723 54.9197 66.1004 54.9197H65.7732C65.3383 55.5072 65.7754 59.0231 66.2879 61.0924C66.3345 61.2233 66.6794 61.7036 66.9301 62.0532C67.761 63.2112 68.35 64.0829 68.35 64.767C68.35 65.7641 67.8087 67.4915 66.6206 68.9261C65.9628 69.7206 66.4853 73.007 66.7959 74.9713C66.9102 75.694 67.0189 76.3759 67.081 76.9335C67.2263 78.2298 70.391 81.4797 73.1043 83.9415L76.8015 77.9456L76.8381 77.8845H76.837Z" fill="#9ABA9A"/>
</g>
<path d="M74.3315 35.4158C76.2916 37.3105 76.2916 40.3872 74.3315 42.2818L66.9749 49.3928C65.9153 50.4171 64.1943 50.4171 63.1347 49.3928L57.9524 44.3835L67.2299 35.4158C69.19 33.5211 72.3729 33.5211 74.3331 35.4158L74.3315 35.4158Z" fill="#9ABA9A"/>
<path d="M55.6681 35.476C57.6282 33.5813 60.8112 33.5813 62.7713 35.476L72.048 44.4429L67.0069 49.3157C65.8688 50.4158 64.0216 50.4151 62.8843 49.3157L55.6681 42.3405C53.708 40.4458 53.708 37.3691 55.6681 35.4745L55.6681 35.476Z" fill="#9ABA9A"/>
</g>
<path d="M49.7979 11.8574V14.6738H51.5205V15.918H49.7979V18.8027H48.2803V11.8574H49.7979ZM46.3662 12.6094C46.3525 15.8223 44.2471 18.0508 40.5557 19.0352L39.9541 17.8184C42.8184 17.0801 44.4453 15.624 44.7119 13.8398H40.542V12.6094H46.3662ZM49.7979 19.2949V24.0527H41.7998V19.2949H49.7979ZM43.3174 20.5391V22.8496H48.2939V20.5391H43.3174ZM56.5654 14.8242C56.5518 17.0254 57.6592 19.2676 59.5732 20.1836L58.6436 21.4004C57.3037 20.7236 56.3398 19.418 55.8135 17.8457C55.2734 19.5273 54.2617 20.9219 52.8467 21.6328L51.917 20.416C53.8994 19.4727 55.0342 17.1074 55.0479 14.8242V12.8555H56.5654V14.8242ZM61.8291 11.8574V16.6973H63.7295V17.9961H61.8291V24.2168H60.3115V11.8574H61.8291ZM77.8662 11.8711V20.7988H76.335V11.8711H77.8662ZM78.208 22.7402V23.9707H69.6904V19.8965H71.2217V22.7402H78.208ZM71.126 12.6777C72.999 12.6777 74.4482 13.9766 74.4482 15.7676C74.4482 17.5996 72.999 18.8711 71.126 18.8711C69.2393 18.8711 67.79 17.5996 67.79 15.7676C67.79 13.9766 69.2393 12.6777 71.126 12.6777ZM71.126 14.0039C70.0732 14.0039 69.2666 14.7012 69.2803 15.7676C69.2666 16.8613 70.0732 17.5449 71.126 17.5449C72.1514 17.5449 72.958 16.8613 72.958 15.7676C72.958 14.7012 72.1514 14.0039 71.126 14.0039ZM84.0869 14.8242C84.0732 17.0254 85.1807 19.2676 87.0947 20.1836L86.165 21.4004C84.8252 20.7236 83.8613 19.418 83.335 17.8457C82.7949 19.5273 81.7832 20.9219 80.3682 21.6328L79.4385 20.416C81.4209 19.4727 82.5557 17.1074 82.5693 14.8242V12.8555H84.0869V14.8242ZM89.3506 11.8574V16.6973H91.251V17.9961H89.3506V24.2168H87.833V11.8574H89.3506Z" fill="#707070"/>
<path d="M25.6719 115.211C27.8867 115.223 29.4805 116.301 29.4805 117.941C29.4805 119.494 28.0977 120.525 26.1172 120.648V122.84H30.4648V123.613H20.9258V122.84H25.2148V120.648C23.2402 120.52 21.8633 119.488 21.8633 117.941C21.8633 116.301 23.457 115.223 25.6719 115.211ZM25.6719 115.973C23.9844 115.973 22.7539 116.77 22.7539 117.941C22.7539 119.148 23.9844 119.922 25.6719 119.934C27.3594 119.922 28.5898 119.148 28.5898 117.941C28.5898 116.77 27.3594 115.973 25.6719 115.973ZM39.6992 117.039V117.801H32.5859V114.707H33.4883V117.039H39.6992ZM40.8242 118.832V119.582H31.2852V118.832H40.8242ZM39.5938 120.52V122.957H33.4297V124.07H39.9688V124.809H32.5039V122.254H38.6914V121.246H32.4805V120.52H39.5938ZM52.8242 114.531V117.086H54.3945V117.848H52.8242V120.449H51.9102V114.531H52.8242ZM49.9766 115.211C49.9648 117.836 48.125 119.711 45.043 120.555L44.668 119.816C47.2344 119.125 48.7988 117.736 48.9922 115.973H45.1367V115.211H49.9766ZM52.8242 120.93V124.809H46.2266V120.93H52.8242ZM47.1406 121.691V124.059H51.9102V121.691H47.1406ZM58.543 117.332C58.543 119.172 59.7617 121.059 61.2383 121.785L60.6758 122.523C59.5273 121.92 58.5664 120.689 58.1094 119.242C57.6406 120.783 56.6562 122.096 55.4844 122.723L54.8984 121.984C56.4219 121.234 57.6289 119.23 57.6406 117.332V115.434H58.543V117.332ZM63.1133 114.531V118.762H64.8594V119.559H63.1133V124.949H62.1992V114.531H63.1133ZM74.2695 114.543V121H73.3906V118.176H72.0312V120.836H71.1523V114.707H72.0312V117.414H73.3906V114.543H74.2695ZM70.707 115.727V116.488H65.3633V115.727H67.5898V114.578H68.5039V115.727H70.707ZM68.0469 117.016C69.3711 117.016 70.2734 117.707 70.2852 118.797C70.2734 119.863 69.3711 120.578 68.0469 120.578C66.7344 120.578 65.8086 119.863 65.8203 118.797C65.8086 117.707 66.7344 117.016 68.0469 117.016ZM68.0469 117.707C67.2148 117.707 66.6406 118.129 66.6406 118.797C66.6406 119.453 67.2148 119.887 68.0469 119.887C68.8789 119.887 69.4531 119.453 69.4531 118.797C69.4531 118.129 68.8789 117.707 68.0469 117.707ZM69.1133 121.668C69.1016 122.559 69.5879 123.484 70.5781 124.012C71.5625 123.438 72.0664 122.43 72.0781 121.668V121.293H72.9805V121.668C72.9688 122.688 73.7656 123.719 75.1016 124.129L74.668 124.832C73.6191 124.469 72.8809 123.76 72.5234 122.91C72.2012 123.736 71.5684 124.527 70.5898 124.914C69.582 124.539 68.9492 123.801 68.6445 122.957C68.2578 123.766 67.5312 124.469 66.5352 124.832L66.0898 124.129C67.3906 123.684 68.2109 122.617 68.2109 121.668V121.293H69.1133V121.668ZM81.1953 115.41V116.172H77.3047V119.852C79.1738 119.852 80.3809 119.787 81.7812 119.512L81.8984 120.273C80.4102 120.531 79.1445 120.613 77.1875 120.613H76.4023V115.41H81.1953ZM84.4297 114.543V122.148H83.5039V118.188H80.5156V117.438H83.5039V114.543H84.4297ZM84.7109 124.035V124.785H77.7148V121.574H78.6406V124.035H84.7109ZM94.4023 115.328C94.4023 116.688 96.3008 117.93 98.1055 118.211L97.7422 118.938C96.1602 118.668 94.5957 117.789 93.9336 116.57C93.2773 117.812 91.6953 118.68 90.1133 118.949L89.75 118.223C91.5664 117.941 93.4531 116.734 93.4531 115.328V114.801H94.4023V115.328ZM98.7031 119.84V120.602H94.4609V122.734H93.5469V120.602H89.1641V119.84H98.7031ZM97.6367 123.953V124.727H90.3828V121.715H91.3086V123.953H97.6367ZM107.691 114.531V117.707H109.262V118.48H107.691V122.16H106.766V114.531H107.691ZM104.879 115.34C104.879 118.023 102.957 120.016 99.957 120.953L99.5586 120.215C102.055 119.436 103.684 117.947 103.883 116.113H99.9922V115.34H104.879ZM108.172 123.953V124.727H101.164V121.387H102.078V123.953H108.172ZM27.2188 138.117C25.5312 138.117 24.3242 137.215 24.2656 135.867H25.332C25.3906 136.676 26.1992 137.18 27.207 137.18C28.3203 137.18 29.1406 136.57 29.1406 135.691C29.1406 134.766 28.4023 134.109 27.0781 134.109H26.3867V133.184H27.0781C28.1094 133.184 28.8242 132.609 28.8242 131.73C28.8242 130.887 28.2031 130.312 27.2422 130.312C26.3398 130.312 25.5078 130.816 25.4609 131.648H24.4414C24.5 130.301 25.7422 129.398 27.2539 129.398C28.8711 129.398 29.8555 130.453 29.8438 131.672C29.8555 132.633 29.293 133.348 28.4023 133.594V133.652C29.5039 133.828 30.1836 134.613 30.1719 135.691C30.1836 137.086 28.9062 138.117 27.2188 138.117ZM39.3828 128.531V132.773H41.0703V133.547H39.3828V138.949H38.4688V128.531H39.3828ZM36.6875 129.656C36.6875 132.609 35.3047 135.293 31.9062 136.969L31.3906 136.242C34.0859 134.9 35.5508 132.896 35.7617 130.43H31.8711V129.656H36.6875ZM45.418 131.73C45.418 133.5 46.707 135.293 48.2422 135.961L47.7266 136.688C46.5078 136.131 45.4531 134.93 44.9727 133.488C44.4805 135.018 43.4316 136.348 42.2422 136.945L41.6914 136.219C43.1797 135.504 44.4805 133.535 44.4922 131.73V130.371H42.0312V129.609H47.9023V130.371H45.418V131.73ZM50.2812 128.531V138.949H49.3555V128.531H50.2812ZM61.5898 133.371V134.098H52.0508V133.371H61.5898ZM60.3945 134.93V137.145H54.1367V138.141H60.7344V138.809H53.2109V136.512H59.4805V135.621H53.1992V134.93H60.3945ZM60.3594 128.848V131.004H54.207V131.918H60.5469V132.586H53.293V130.371H59.4336V129.516H53.2578V128.848H60.3594ZM68.3516 129.586V130.348H66.6758V135.48C67.1855 135.475 67.7598 135.434 68.3984 135.281L68.5156 136.055C67.6133 136.254 66.875 136.266 66.207 136.266H65.7734V129.586H68.3516ZM71.7734 129.586V130.348H69.8516V135.492C70.7012 135.48 71.416 135.439 72.207 135.246L72.3008 136.008C71.3281 136.242 70.5312 136.266 69.4531 136.266H68.9258V129.586H71.7734ZM74.1992 128.531V138.949H73.2734V133.113H71.2578V132.363H73.2734V128.531H74.1992ZM80.5625 128.66C82.8828 128.66 84.2422 129.305 84.2422 130.465C84.2422 131.561 83.0527 132.188 80.9961 132.27V133.066H85.3086V133.816H75.8164V133.066H80.0938V132.27C78.0605 132.182 76.8711 131.555 76.8711 130.465C76.8711 129.305 78.2422 128.66 80.5625 128.66ZM80.5625 129.363C78.8281 129.375 77.8203 129.773 77.832 130.465C77.8203 131.18 78.8281 131.566 80.5625 131.578C82.2852 131.566 83.3047 131.18 83.3047 130.465C83.3047 129.773 82.2852 129.375 80.5625 129.363ZM84.0898 134.695V137.027H77.9023V138.105H84.4062V138.832H76.9883V136.348H83.1875V135.41H76.9648V134.695H84.0898ZM94.8125 128.531V138.973H93.8984V134.531H91.7305V133.758H93.8984V131.684H91.8125V130.91H93.8984V128.531H94.8125ZM91.1328 129.48V133.184H87.5V135.75C89.0645 135.744 90.3594 135.686 91.9414 135.445L92.0234 136.219C90.3594 136.477 89.0234 136.535 87.3594 136.535H86.5859V132.434H90.2305V130.242H86.5508V129.48H91.1328ZM106.098 136.84V137.613H96.5586V136.84H98.9258V134.027C98.0352 133.564 97.4961 132.814 97.4961 131.871C97.4961 130.254 99.0781 129.199 101.305 129.188C103.531 129.199 105.113 130.254 105.113 131.871C105.113 132.797 104.592 133.541 103.73 134.004V136.84H106.098ZM101.305 129.949C99.5938 129.938 98.3867 130.711 98.3867 131.871C98.3867 133.031 99.5938 133.816 101.305 133.816C103.004 133.816 104.223 133.031 104.223 131.871C104.223 130.711 103.004 129.938 101.305 129.949ZM99.8281 136.84H102.805V134.355C102.354 134.479 101.85 134.543 101.305 134.543C100.771 134.543 100.273 134.484 99.8281 134.367V136.84Z" fill="#8F8F8F"/>
<defs>
<filter id="filter0_d_240_5609" x="12" y="0" width="108" height="108" filterUnits="userSpaceOnUse" color-interpolation-filters="sRGB">
<feFlood flood-opacity="0" result="BackgroundImageFix"/>
<feColorMatrix in="SourceAlpha" type="matrix" values="0 0 0 0 0 0 0 0 0 0 0 0 0 0 0 0 0 0 127 0" result="hardAlpha"/>
<feOffset dx="1" dy="2"/>
<feGaussianBlur stdDeviation="2"/>
<feComposite in2="hardAlpha" operator="out"/>
<feColorMatrix type="matrix" values="0 0 0 0 0.254902 0 0 0 0 0.254902 0 0 0 0 0.254902 0 0 0 0.15 0"/>
<feBlend mode="normal" in2="BackgroundImageFix" result="effect1_dropShadow_240_5609"/>
<feBlend mode="normal" in="SourceGraphic" in2="effect1_dropShadow_240_5609" result="shape"/>
</filter>
<clipPath id="clip0_240_5609">
<rect width="36" height="56" fill="white" transform="translate(47 34)"/>
</clipPath>
</defs>
</svg>
