<svg width="130" height="144" viewBox="0 0 130 144" fill="none" xmlns="http://www.w3.org/2000/svg">
<g filter="url(#filter0_d_240_5676)">
<path d="M15 18C15 9.16345 22.1634 2 31 2H99C107.837 2 115 9.16344 115 18V86C115 94.8366 107.837 102 99 102H31C22.1634 102 15 94.8366 15 86V18Z" fill="white"/>
</g>
<path d="M50.3447 11.8574V24.2305H48.8408V11.8574H50.3447ZM46.5439 12.9375V17.5723H42.292V20.0605C44.2402 20.0469 45.9219 19.9512 47.8428 19.623L47.9795 20.8672C45.874 21.2363 44.0283 21.3047 41.8135 21.3047H40.7334V16.3691H44.999V14.168H40.7197V12.9375H46.5439ZM63.4287 17.4902V18.7207H52.1494V17.4902H63.4287ZM62.1709 15.2754V16.4785H53.5303V12.2266H62.0615V13.4434H55.0479V15.2754H62.1709ZM62.0752 19.8145V24.0254H53.4756V19.8145H62.0752ZM54.9795 21.0176V22.8223H60.585V21.0176H54.9795ZM78.0029 11.8711V24.2031H76.458V21.373H73.833V20.2246H76.458V11.8711H78.0029ZM67.5166 18.2148C69.8408 18.2148 72.9307 18.2012 75.6104 17.832L75.7061 18.9531C74.5713 19.1514 73.4023 19.2676 72.2607 19.3359V23.834H70.7295V19.418C69.6494 19.4521 68.624 19.459 67.708 19.459L67.5166 18.2148ZM71.5771 12.4043C73.3955 12.4043 74.7217 13.4297 74.7217 14.9062C74.7217 16.4102 73.3955 17.3945 71.5771 17.3945C69.7178 17.3945 68.4053 16.4102 68.4053 14.9062C68.4053 13.4297 69.7178 12.4043 71.5771 12.4043ZM71.5771 13.5664C70.5381 13.5664 69.8408 14.0996 69.8408 14.9062C69.8408 15.7402 70.5381 16.2324 71.5771 16.2324C72.5615 16.2324 73.2725 15.7402 73.2725 14.9062C73.2725 14.0996 72.5615 13.5664 71.5771 13.5664ZM86.3154 12.6367C86.3018 15.9727 84.6064 18.2422 80.5049 19.4316L79.9443 18.2148C81.8379 17.6953 83.0684 16.957 83.7998 16.041L80.1221 16.3145L79.8896 15.1113L84.4287 14.9336C84.5586 14.5986 84.6406 14.2363 84.6885 13.8535H80.5186V12.6367H86.3154ZM89.9658 11.8711V19.1992H88.4346V11.8711H89.9658ZM85.8096 19.377C88.3799 19.377 90.0068 20.2656 90.0068 21.7969C90.0068 23.3281 88.3799 24.1895 85.8096 24.1895C83.1846 24.1895 81.5576 23.3281 81.5576 21.7969C81.5576 20.2656 83.1846 19.377 85.8096 19.377ZM85.8096 20.5801C84.0459 20.5801 83.0889 21.0039 83.0889 21.7969C83.0889 22.5762 84.0459 23.0137 85.8096 23.0137C87.5049 23.0137 88.4893 22.5762 88.4893 21.7969C88.4893 21.0039 87.5049 20.5801 85.8096 20.5801Z" fill="#707070"/>
<path d="M27.623 117.637V118.867H31.959V119.629H22.4199V118.867H26.7207V117.637H27.623ZM31.0801 114.859V115.586H27.7871C27.8633 116.652 29.6094 117.432 31.4199 117.578L31.1152 118.27C29.3809 118.105 27.7461 117.432 27.1895 116.336C26.6211 117.432 24.9863 118.105 23.2402 118.27L22.9355 117.578C24.7344 117.432 26.4805 116.652 26.5801 115.586H23.2988V114.859H31.0801ZM31.0566 121.012V121.738H23.3223V121.012H26.7207V120.027H27.6348V121.012H31.0566ZM27.1777 122.254C29.1816 122.254 30.3301 122.723 30.3301 123.625C30.3301 124.539 29.1816 125.008 27.1777 125.008C25.1504 125.008 24.0371 124.539 24.0371 123.625C24.0371 122.723 25.1504 122.254 27.1777 122.254ZM27.1777 122.898C25.7715 122.91 24.9629 123.145 24.9629 123.625C24.9629 124.105 25.7715 124.375 27.1777 124.363C28.5957 124.375 29.3809 124.105 29.3926 123.625C29.3809 123.145 28.5957 122.91 27.1777 122.898ZM35.5918 115.34C37.127 115.352 38.2168 116.758 38.2285 118.973C38.2168 121.188 37.127 122.594 35.5918 122.594C34.0449 122.594 32.9668 121.188 32.9668 118.973C32.9668 116.758 34.0449 115.352 35.5918 115.34ZM35.5918 116.16C34.5605 116.172 33.834 117.273 33.834 118.973C33.834 120.672 34.5605 121.773 35.5918 121.773C36.6348 121.773 37.3379 120.672 37.3379 118.973C37.3379 117.273 36.6348 116.172 35.5918 116.16ZM40.8652 114.531V118.691H42.6113V119.488H40.8652V124.949H39.9512V114.531H40.8652ZM51.2363 114.531V118.832H52.9824V119.594H51.2363V124.949H50.3223V114.531H51.2363ZM49.3145 116.207V116.969H43.1152V116.207H45.7988V114.66H46.7129V116.207H49.3145ZM46.2676 117.836C47.7441 117.836 48.8105 118.82 48.8223 120.227C48.8105 121.633 47.7441 122.617 46.2676 122.617C44.7793 122.617 43.7012 121.633 43.7129 120.227C43.7012 118.82 44.7793 117.836 46.2676 117.836ZM46.2676 118.609C45.2949 118.609 44.5801 119.289 44.5918 120.227C44.5801 121.176 45.2949 121.844 46.2676 121.832C47.2285 121.844 47.9316 121.176 47.9434 120.227C47.9316 119.289 47.2285 118.609 46.2676 118.609ZM61.9707 117.695V118.434H54.834V114.918H55.748V117.695H61.9707ZM63.0723 119.852V120.602H53.5332V119.852H63.0723ZM62.0293 123.93V124.691H54.7754V121.668H55.6895V123.93H62.0293ZM75.7754 114.543V119.969H74.8965V114.543H75.7754ZM73.7949 114.754V119.91H72.916V117.613H71.4395V119.348H67.3965V115.199H71.4395V116.84H72.916V114.754H73.7949ZM75.7754 120.426V122.91H69.7988V124.07H76.1973V124.809H68.8848V122.207H74.873V121.176H68.8613V120.426H75.7754ZM68.2637 115.938V118.633H70.5723V115.938H68.2637ZM86.8379 122.887V123.66H77.2988V122.887H81.5879V120.918H78.4941V117.707H84.7285V116.066H78.4707V115.305H85.6309V118.457H79.4082V120.156H85.877V120.918H82.4902V122.887H86.8379ZM96.2598 114.531V124.973H95.334V114.531H96.2598ZM93.3066 115.527V116.301H89.2754V121.586C91.3027 121.586 92.6387 121.521 94.1973 121.246L94.291 122.02C92.6738 122.312 91.3027 122.371 89.1934 122.383H88.3496V115.527H93.3066ZM106.971 114.531V124.949H106.08V114.531H106.971ZM104.873 114.754V124.422H103.994V119.359H102.658C102.559 121.387 101.697 122.652 100.408 122.652C99.0488 122.652 98.1699 121.246 98.1699 119.031C98.1699 116.816 99.0488 115.41 100.408 115.41C101.674 115.41 102.529 116.635 102.646 118.598H103.994V114.754H104.873ZM100.408 116.277C99.5645 116.277 99.0254 117.332 99.0371 119.031C99.0254 120.719 99.5645 121.785 100.408 121.773C101.252 121.785 101.791 120.719 101.791 119.031C101.791 117.332 101.252 116.277 100.408 116.277ZM36.2539 128.531V133.887H35.3281V131.812H33.0195V131.051H35.3281V128.531H36.2539ZM32.9375 129.047C32.9375 131.637 31.1094 133.348 28.1094 134.109L27.7812 133.348C30.2773 132.744 31.7715 131.479 31.9648 129.809H28.3203V129.047H32.9375ZM36.2539 134.332V136.875H30.4414V138.094H36.6055V138.855H29.5273V136.172H35.3281V135.082H29.5039V134.332H36.2539ZM42.7344 128.766C44.9961 128.766 46.4141 129.492 46.4141 130.746C46.4141 131.977 44.9961 132.691 42.7344 132.691C40.4727 132.691 39.043 131.977 39.043 130.746C39.043 129.492 40.4727 128.766 42.7344 128.766ZM42.7344 129.504C41.0469 129.504 39.9805 129.973 39.9922 130.746C39.9805 131.508 41.0469 131.953 42.7344 131.965C44.3984 131.953 45.4766 131.508 45.4766 130.746C45.4766 129.973 44.3984 129.504 42.7344 129.504ZM46.3203 135.387V138.809H39.1484V135.387H46.3203ZM40.0625 136.125V138.059H45.418V136.125H40.0625ZM47.4805 133.594V134.355H37.9883V133.594H47.4805ZM53.1055 128.719C55.4258 128.719 56.7852 129.352 56.7852 130.512C56.7852 131.695 55.4258 132.328 53.1055 132.34C50.7852 132.328 49.4141 131.695 49.4141 130.512C49.4141 129.352 50.7852 128.719 53.1055 128.719ZM53.1055 129.41C51.3711 129.41 50.3633 129.832 50.375 130.512C50.3633 131.238 51.3711 131.637 53.1055 131.637C54.8281 131.637 55.8477 131.238 55.8477 130.512C55.8477 129.832 54.8281 129.41 53.1055 129.41ZM57.8516 133.043V133.793H48.3594V133.043H57.8516ZM56.6328 134.695V137.027H50.4453V138.105H56.9492V138.832H49.5312V136.348H55.7305V135.398H49.5078V134.695H56.6328ZM67.0039 129.246V133.699H62.1875V129.246H67.0039ZM63.0898 129.996V132.949H66.1133V129.996H63.0898ZM69.8867 128.531V131.039H71.457V131.812H69.8867V134.484H68.9727V128.531H69.8867ZM70.0742 135.094V135.844H67.1211C67.2207 136.957 68.7734 137.93 70.4727 138.199L70.1328 138.914C68.6094 138.662 67.2266 137.906 66.6289 136.863C66.0371 137.912 64.666 138.656 63.1484 138.902L62.7969 138.199C64.5195 137.93 66.043 136.975 66.1602 135.844H63.207V135.094H70.0742ZM75.957 130.465C75.957 131.508 77 132.41 78.4648 132.727L78.0664 133.453C76.877 133.154 75.9512 132.51 75.5117 131.648C75.0723 132.586 74.1289 133.283 72.8984 133.594L72.5 132.891C73.9648 132.551 75.0078 131.578 75.0078 130.465V130.43H72.7227V129.691H75.0312V128.566H75.9453V129.691H78.2305V130.43H75.957V130.465ZM80.7383 128.543V138.961H79.8008V136.547H77.3984V135.809H79.8008V128.543H80.7383ZM72.0664 134.273C74.0469 134.285 76.6836 134.262 78.9805 133.934L79.0391 134.637C78.0078 134.812 76.9473 134.918 75.9102 134.977V138.633H74.9844V135.023C73.9883 135.059 73.0332 135.064 72.1953 135.059L72.0664 134.273ZM83.9727 129.398V130.992H87.3594V129.398H88.2734V134.086H86.1289V135.949C87.0898 135.914 88.0566 135.844 88.9531 135.727L89.0117 136.418C86.8086 136.77 84.3359 136.805 82.5078 136.816L82.3555 136.031C83.2051 136.025 84.1836 136.02 85.2031 135.984V134.086H83.0586V129.398H83.9727ZM83.9727 133.336H87.3594V131.707H83.9727V133.336ZM90.5352 128.531V132.914H92.2344V133.688H90.5352V138.949H89.6211V128.531H90.5352ZM102.395 136.84V137.613H92.8555V136.84H95.2227V134.027C94.332 133.564 93.793 132.814 93.793 131.871C93.793 130.254 95.375 129.199 97.6016 129.188C99.8281 129.199 101.41 130.254 101.41 131.871C101.41 132.797 100.889 133.541 100.027 134.004V136.84H102.395ZM97.6016 129.949C95.8906 129.938 94.6836 130.711 94.6836 131.871C94.6836 133.031 95.8906 133.816 97.6016 133.816C99.3008 133.816 100.52 133.031 100.52 131.871C100.52 130.711 99.3008 129.938 97.6016 129.949ZM96.125 136.84H99.1016V134.355C98.6504 134.479 98.1465 134.543 97.6016 134.543C97.0684 134.543 96.5703 134.484 96.125 134.367V136.84Z" fill="#8F8F8F"/>
<g clip-path="url(#clip0_240_5676)">
<path d="M59.1153 69.5913C59.143 69.5089 59.1523 69.4174 59.1523 69.3258V57.5702C59.1523 57.5702 59.1523 57.497 59.1523 57.4603C59.1523 57.4237 59.143 57.3871 59.1338 57.3505C59.1338 57.3139 59.1153 57.2864 59.106 57.2498C59.0968 57.2131 59.0783 57.1857 59.0598 57.1491C59.0413 57.1216 59.0228 57.085 59.0043 57.0575C58.9858 57.03 58.9581 57.0026 58.9396 56.9751C58.9119 56.9476 58.8934 56.9202 58.8656 56.9019C58.8379 56.8744 58.8102 56.8561 58.7824 56.8378C58.7547 56.8195 58.7177 56.8011 58.6899 56.7828C58.6622 56.7645 58.6252 56.7554 58.5882 56.7371C58.5513 56.7279 58.5235 56.7188 58.4865 56.7096C58.4495 56.7004 58.4125 56.7004 58.3756 56.6913C58.3386 56.6913 58.3016 56.6913 58.2646 56.6913C58.2276 56.6913 58.1906 56.6913 58.1536 56.6913C58.1167 56.6913 58.0797 56.7004 58.0519 56.7096C58.0242 56.7188 57.9872 56.7279 57.9502 56.7462L48.1397 60.7472C48.0565 60.7838 47.9825 60.8204 47.9178 60.8753C47.853 60.9303 47.7883 60.9943 47.7421 61.0676C47.6958 61.1408 47.6589 61.2141 47.6311 61.2965C47.6034 61.3789 47.5941 61.4613 47.5941 61.5528V70.0857C46.9931 69.7653 46.3551 69.6096 45.6801 69.6096C43.6551 69.6096 42 71.0562 42 72.8415C42 74.6268 43.6459 76.0734 45.6801 76.0734C47.4462 76.0734 48.9256 74.9656 49.277 73.5007C49.3325 73.3908 49.351 73.2718 49.351 73.1436V62.1296L57.3954 58.852V66.332C56.7944 66.0115 56.1564 65.8559 55.4814 65.8559C53.4564 65.8559 51.8013 67.3025 51.8013 69.0878C51.8013 70.8731 53.4472 72.3196 55.4814 72.3196C57.3215 72.3196 58.8471 71.1294 59.1153 69.573V69.5913Z" fill="#9ABA9A"/>
<path d="M65.7913 55.3913C67.5574 55.3913 69.046 54.2834 69.3882 52.8186C69.4436 52.7087 69.4621 52.5897 69.4621 52.4615V41.4567L77.5066 38.179V45.659C76.9056 45.3386 76.2676 45.1829 75.5926 45.1829C73.5676 45.1829 71.9125 46.6295 71.9125 48.4148C71.9125 50.2001 73.5583 51.6467 75.5926 51.6467C77.4326 51.6467 78.9583 50.4473 79.2264 48.9C79.2542 48.8176 79.2634 48.7261 79.2634 48.6345V48.424V36.8698C79.2634 36.8698 79.2634 36.7965 79.2634 36.7599C79.2634 36.7233 79.2542 36.6867 79.2449 36.6592C79.2449 36.6226 79.2264 36.5951 79.2172 36.5585C79.208 36.5219 79.1895 36.4944 79.171 36.4578C79.1525 36.4303 79.134 36.3937 79.1155 36.3662C79.097 36.3388 79.0693 36.3113 79.0508 36.2838C79.023 36.2564 79.0045 36.2289 78.9768 36.2106C78.9491 36.1923 78.9213 36.1648 78.8936 36.1465C78.8658 36.1282 78.8288 36.1099 78.8011 36.0916C78.7734 36.0732 78.7364 36.0641 78.6994 36.0458C78.6624 36.0366 78.6347 36.0275 78.5977 36.0183C78.5607 36.0092 78.5237 36 78.4867 36C78.4497 36 78.4128 36 78.3758 36C78.3388 36 78.3018 36 78.2648 36C78.2278 36 78.1908 36.0092 78.1631 36.0183C78.1261 36.0275 78.0984 36.0366 78.0614 36.0549L68.2508 40.0559C68.1676 40.0925 68.0937 40.1291 68.0289 40.184C67.9642 40.239 67.8995 40.3031 67.8532 40.3763C67.807 40.4496 67.77 40.5228 67.7423 40.6052C67.7145 40.6876 67.7053 40.77 67.7053 40.8615V49.3944C67.1043 49.074 66.4663 48.9183 65.7913 48.9183C63.7663 48.9183 62.1112 50.3649 62.1112 52.1502C62.1112 53.9355 63.757 55.3821 65.7913 55.3821V55.3913Z" fill="#9ABA9A"/>
<path d="M83.6648 75.0114V63.4846C83.6648 63.4846 83.6648 63.4114 83.6648 63.3748C83.6648 63.3381 83.6555 63.3015 83.6463 63.2741C83.6463 63.2374 83.6278 63.21 83.6185 63.1734C83.6093 63.1367 83.5908 63.1093 83.5723 63.0726C83.5538 63.036 83.5353 63.0086 83.5168 62.9811C83.4983 62.9536 83.4706 62.9262 83.4521 62.8987C83.4244 62.8712 83.4059 62.8438 83.3781 62.8254C83.3504 62.798 83.3226 62.7797 83.2949 62.7614C83.2672 62.743 83.2302 62.7247 83.2024 62.7064C83.1747 62.6881 83.1377 62.679 83.1007 62.6606C83.0637 62.6515 83.036 62.6423 82.999 62.6332C82.962 62.624 82.925 62.624 82.8881 62.6149C82.8511 62.6149 82.8141 62.6149 82.7771 62.6149C82.7401 62.6149 82.7031 62.6149 82.6661 62.6149C82.6292 62.6149 82.5922 62.624 82.5644 62.6332C82.5367 62.6423 82.4997 62.6515 82.4627 62.6698L72.6522 66.6707C72.569 66.7074 72.495 66.744 72.4303 66.7989C72.3655 66.8538 72.3008 66.9179 72.2546 66.9912C72.2083 67.0644 72.1714 67.1377 72.1436 67.2201C72.1159 67.3025 72.1066 67.3849 72.1066 67.4764V76.0093C71.5056 75.6889 70.8676 75.5332 70.1926 75.5332C68.1676 75.5332 66.5125 76.9798 66.5125 78.7651C66.5125 80.5504 68.1584 81.997 70.1926 81.997C71.9587 81.997 73.4474 80.8892 73.7895 79.4243C73.845 79.3144 73.8635 79.1954 73.8635 79.0672V78.7742V68.0624L81.9079 64.7847V72.2647C81.3069 71.9443 80.6689 71.7886 79.9939 71.7886C77.9689 71.7886 76.323 73.2352 76.323 75.0205C76.323 76.8058 77.9689 78.2524 79.9939 78.2524C81.834 78.2524 83.3689 77.053 83.6278 75.5058C83.6555 75.4234 83.6648 75.3318 83.6648 75.2402V75.0114Z" fill="#9ABA9A"/>
<path d="M67.5111 64.0981L69.2495 63.1551C69.3142 63.1185 69.3789 63.0727 69.4344 63.0178C69.4899 62.9629 69.5361 62.8988 69.5823 62.8347C69.6193 62.7706 69.6563 62.6973 69.6748 62.6241C69.6933 62.5509 69.7025 62.4685 69.7025 62.3952C69.7025 62.322 69.6933 62.2396 69.6748 62.1663C69.6563 62.0931 69.6193 62.0198 69.5823 61.9558C69.5453 61.8917 69.4899 61.8276 69.4344 61.7726C69.3789 61.7177 69.3142 61.6719 69.2495 61.6353L67.5111 60.6923L66.5587 58.9711C66.5217 58.907 66.4755 58.8429 66.42 58.788C66.3645 58.733 66.2998 58.6873 66.2351 58.6415C66.1704 58.5957 66.0964 58.5682 66.0224 58.5499C65.9485 58.5316 65.8652 58.5225 65.7913 58.5225C65.7173 58.5225 65.6341 58.5316 65.5601 58.5499C65.4861 58.5682 65.4122 58.6049 65.3474 58.6415C65.2827 58.6781 65.218 58.733 65.1625 58.788C65.107 58.8429 65.0608 58.907 65.0238 58.9711L64.0714 60.6923L62.3331 61.6353C62.2683 61.6719 62.2036 61.7177 62.1481 61.7726C62.0927 61.8276 62.0464 61.8917 62.0002 61.9558C61.9632 62.0198 61.9262 62.0931 61.9077 62.1663C61.8892 62.2396 61.88 62.322 61.88 62.3952C61.88 62.4685 61.8892 62.5509 61.9077 62.6241C61.9262 62.6973 61.9632 62.7706 62.0002 62.8347C62.0372 62.8988 62.0927 62.9629 62.1481 63.0178C62.2036 63.0727 62.2683 63.1185 62.3331 63.1551L64.0714 64.0981L65.0238 65.8194C65.0608 65.8834 65.107 65.9475 65.1625 66.0025C65.218 66.0574 65.2827 66.1032 65.3474 66.149C65.4122 66.1947 65.4861 66.2222 65.5601 66.2405C65.6341 66.2588 65.7173 66.268 65.7913 66.268C65.8652 66.268 65.9485 66.2588 66.0224 66.2405C66.0964 66.2222 66.1704 66.1856 66.2351 66.149C66.2998 66.1123 66.3645 66.0574 66.42 66.0025C66.4755 65.9475 66.5217 65.8834 66.5587 65.8194L67.5111 64.1073V64.0981Z" fill="#9ABA9A"/>
<path d="M46.1794 48.6803L47.9178 49.6233L48.8702 51.3445C48.9071 51.4086 48.9534 51.4727 49.0089 51.5276C49.0643 51.5825 49.1291 51.6283 49.1938 51.6741C49.2585 51.7199 49.3325 51.7473 49.4065 51.7657C49.4804 51.784 49.5636 51.7931 49.6376 51.7931C49.7116 51.7931 49.7948 51.784 49.8688 51.7657C49.9428 51.7473 50.0167 51.7107 50.0815 51.6741C50.1462 51.6375 50.2109 51.5825 50.2664 51.5276C50.3219 51.4727 50.3681 51.4086 50.4051 51.3445L51.3575 49.6233L53.0958 48.6803C53.1605 48.6436 53.2253 48.5979 53.2807 48.5429C53.3362 48.488 53.3825 48.4239 53.4287 48.3598C53.4749 48.2957 53.5027 48.2225 53.5212 48.1493C53.5396 48.076 53.5489 47.9936 53.5489 47.9204C53.5489 47.8471 53.5396 47.7647 53.5212 47.6915C53.5027 47.6182 53.4657 47.545 53.4287 47.4809C53.3917 47.4168 53.3362 47.3527 53.2807 47.2978C53.2253 47.2429 53.1605 47.1971 53.0958 47.1605L51.3575 46.2175L50.4051 44.4962C50.3681 44.4321 50.3219 44.368 50.2664 44.3131C50.2109 44.2582 50.1462 44.2124 50.0815 44.1666C50.0167 44.13 49.9428 44.0934 49.8688 44.0751C49.7948 44.0568 49.7116 44.0476 49.6376 44.0476C49.5636 44.0476 49.4804 44.0568 49.4065 44.0751C49.3325 44.0934 49.2585 44.13 49.1938 44.1666C49.1291 44.2033 49.0643 44.2582 49.0089 44.3131C48.9534 44.368 48.9071 44.4321 48.8702 44.4962L47.9178 46.2175L46.1794 47.1605C46.1055 47.1971 46.05 47.2429 45.9853 47.2978C45.9298 47.3527 45.8835 47.4168 45.8373 47.4809C45.7911 47.545 45.7633 47.6182 45.7448 47.6915C45.7263 47.7647 45.7171 47.8471 45.7171 47.9204C45.7171 47.9936 45.7263 48.076 45.7448 48.1493C45.7633 48.2225 45.8003 48.2957 45.8373 48.3598C45.8743 48.4239 45.9298 48.488 45.9853 48.5429C46.0407 48.5979 46.1055 48.6436 46.1794 48.6803Z" fill="#9ABA9A"/>
<mask id="mask0_240_5676" style="mask-type:luminance" maskUnits="userSpaceOnUse" x="81" y="51" width="8" height="9">
<path d="M89 51.1888H81.0388V59.09H89V51.1888Z" fill="white"/>
</mask>
<g mask="url(#mask0_240_5676)">
<path d="M88.5377 54.3475L86.7993 53.4045L85.8469 51.6832C85.8099 51.6191 85.7637 51.5551 85.7082 51.5001C85.6528 51.4452 85.588 51.3994 85.5233 51.3536C85.4586 51.317 85.3846 51.2804 85.3106 51.2621C85.2367 51.2438 85.1534 51.2346 85.0795 51.2346C85.0055 51.2346 84.9223 51.2438 84.8483 51.2621C84.7743 51.2804 84.7004 51.317 84.6356 51.3536C84.5709 51.3903 84.5062 51.4452 84.4507 51.5001C84.3952 51.5551 84.349 51.6191 84.312 51.6832L83.3596 53.4045L81.6213 54.3475C81.5473 54.3841 81.4918 54.4299 81.4271 54.4848C81.3716 54.5397 81.3254 54.6038 81.2792 54.6679C81.2422 54.732 81.2052 54.8052 81.1867 54.8785C81.1682 54.9517 81.159 55.0341 81.159 55.1074C81.159 55.1806 81.1682 55.263 81.1867 55.3363C81.2052 55.4095 81.2422 55.4828 81.2792 55.5468C81.3161 55.6109 81.3716 55.675 81.4271 55.7299C81.4826 55.7849 81.5473 55.8307 81.6213 55.8673L83.3596 56.8103L84.312 58.5315C84.349 58.5956 84.3952 58.6597 84.4507 58.7146C84.5062 58.7696 84.5709 58.8153 84.6356 58.8611C84.7004 58.9069 84.7743 58.9344 84.8483 58.9527C84.9223 58.971 85.0055 58.9801 85.0795 58.9801C85.1534 58.9801 85.2367 58.971 85.3106 58.9527C85.3846 58.9344 85.4586 58.8977 85.5233 58.8611C85.588 58.8245 85.6528 58.7696 85.7082 58.7146C85.7637 58.6597 85.8099 58.5956 85.8469 58.5315L86.7993 56.8103L88.5377 55.8673C88.6116 55.8307 88.6671 55.7849 88.7318 55.7299C88.7873 55.675 88.8336 55.6109 88.8798 55.5468C88.9168 55.4828 88.9538 55.4095 88.9723 55.3363C88.9907 55.263 89 55.1806 89 55.1074C89 55.0341 88.9907 54.9517 88.9723 54.8785C88.9538 54.8052 88.9168 54.732 88.8798 54.6679C88.8428 54.6038 88.7873 54.5397 88.7318 54.4848C88.6764 54.4299 88.6116 54.3841 88.5377 54.3475Z" fill="#9ABA9A"/>
</g>
<mask id="mask1_240_5676" style="mask-type:luminance" maskUnits="userSpaceOnUse" x="53" y="77" width="9" height="8">
<path d="M61.2975 77.1996H53.3177V84.9634H61.2975V77.1996Z" fill="white"/>
</mask>
<g mask="url(#mask1_240_5676)">
<path d="M60.7242 80.3674L58.9858 79.4244L58.0334 77.7031C57.9965 77.639 57.9502 77.575 57.8947 77.52C57.8393 77.4651 57.7745 77.4193 57.7098 77.3735C57.6451 77.3369 57.5711 77.3003 57.4971 77.282C57.4232 77.2637 57.34 77.2545 57.266 77.2545C57.192 77.2545 57.1088 77.2637 57.0348 77.282C56.9608 77.3003 56.8869 77.3369 56.8221 77.3735C56.7574 77.4102 56.6927 77.4651 56.6372 77.52C56.5817 77.575 56.5355 77.639 56.4985 77.7031L55.5461 79.4244L53.7985 80.3674C53.7338 80.404 53.6691 80.4498 53.6136 80.5047C53.5581 80.5596 53.5119 80.6237 53.4657 80.6878C53.4287 80.7519 53.3917 80.8251 53.3732 80.8984C53.3547 80.9716 53.3455 81.054 53.3455 81.1273C53.3455 81.2005 53.3547 81.2829 53.3732 81.3562C53.3917 81.4294 53.4287 81.5026 53.4657 81.5667C53.5026 81.6308 53.5581 81.6949 53.6136 81.7498C53.6691 81.8048 53.7338 81.8506 53.7985 81.8872L55.5369 82.8302L56.4893 84.5514C56.5263 84.6155 56.5725 84.6796 56.628 84.7345C56.6834 84.7895 56.7482 84.8352 56.8129 84.881C56.8776 84.9176 56.9516 84.9543 57.0256 84.9726C57.0995 84.9909 57.1828 85 57.2567 85C57.3307 85 57.4139 84.9909 57.4879 84.9726C57.5619 84.9543 57.6358 84.9176 57.7006 84.881C57.7653 84.8444 57.83 84.7895 57.8855 84.7345C57.941 84.6796 57.9872 84.6155 58.0242 84.5514L58.9766 82.8302L60.7149 81.8872C60.7889 81.8506 60.8444 81.8048 60.9091 81.7498C60.9738 81.6949 61.0108 81.6308 61.057 81.5667C61.1033 81.5026 61.131 81.4294 61.1495 81.3562C61.168 81.2829 61.1773 81.2005 61.1773 81.1273C61.1773 81.054 61.168 80.9716 61.1495 80.8984C61.131 80.8251 61.094 80.7519 61.057 80.6878C61.0201 80.6237 60.9646 80.5596 60.9091 80.5047C60.8536 80.4498 60.7889 80.404 60.7149 80.3674H60.7242Z" fill="#9ABA9A"/>
</g>
</g>
<defs>
<filter id="filter0_d_240_5676" x="12" y="0" width="108" height="108" filterUnits="userSpaceOnUse" color-interpolation-filters="sRGB">
<feFlood flood-opacity="0" result="BackgroundImageFix"/>
<feColorMatrix in="SourceAlpha" type="matrix" values="0 0 0 0 0 0 0 0 0 0 0 0 0 0 0 0 0 0 127 0" result="hardAlpha"/>
<feOffset dx="1" dy="2"/>
<feGaussianBlur stdDeviation="2"/>
<feComposite in2="hardAlpha" operator="out"/>
<feColorMatrix type="matrix" values="0 0 0 0 0.254902 0 0 0 0 0.254902 0 0 0 0 0.254902 0 0 0 0.15 0"/>
<feBlend mode="normal" in2="BackgroundImageFix" result="effect1_dropShadow_240_5676"/>
<feBlend mode="normal" in="SourceGraphic" in2="effect1_dropShadow_240_5676" result="shape"/>
</filter>
<clipPath id="clip0_240_5676">
<rect width="47" height="49" fill="white" transform="translate(42 36)"/>
</clipPath>
</defs>
</svg>
