<svg width="24" height="24" viewBox="0 0 24 24" fill="none" xmlns="http://www.w3.org/2000/svg">
<g clip-path="url(#clip0_765_4691)">
<path d="M18.4869 6.54701C20.2568 6.54701 21.6915 5.13311 21.6915 3.38898C21.6915 1.64485 20.2568 0.230957 18.4869 0.230957C16.717 0.230957 15.2822 1.64485 15.2822 3.38898C15.2822 5.13311 16.717 6.54701 18.4869 6.54701Z" fill="#4DB960"/>
<path d="M21.2272 13.0256V8.06231L19.2305 9.30191V13.4142L20.4685 16.405C20.5583 16.6214 20.4685 16.7936 20.4235 16.8576C20.3736 16.9313 20.2538 17.0642 20.0392 17.0642H3.96595C3.75131 17.0642 3.6365 16.9363 3.5816 16.8576C3.53667 16.7936 3.44682 16.6214 3.53667 16.405L4.77461 13.4142V7.31461C4.77461 4.36811 8.0192 1.96762 12.0026 1.96762C12.3869 1.96762 12.7663 1.99713 13.1357 2.0414L13.6897 0.127895C13.1407 0.0491904 12.5766 0 12.0026 0C6.91604 0 2.77294 3.281 2.77294 7.31461V13.0256L1.68476 15.6622C1.37028 16.4198 1.46013 17.2806 1.92436 17.9594C2.38359 18.6333 3.14732 19.0318 3.96595 19.0318H20.0392C20.8578 19.0318 21.6215 18.6284 22.0808 17.9594C22.545 17.2806 22.6348 16.4247 22.3204 15.6622L21.2322 13.0305L21.2272 13.0256Z" fill="#707070"/>
<path d="M11.8676 23.9999C9.62139 23.9999 7.79443 22.2192 7.79443 20.0352H9.79111C9.79111 21.137 10.7246 22.0323 11.8676 22.0323C13.0107 22.0323 13.9442 21.137 13.9442 20.0352H15.9409C15.9409 22.2241 14.1139 23.9999 11.8676 23.9999Z" fill="#707070"/>
</g>
<defs>
<clipPath id="clip0_765_4691">
<rect width="21" height="24" fill="white" transform="translate(1.5)"/>
</clipPath>
</defs>
</svg>
