<svg width="24" height="24" viewBox="0 0 24 24" fill="none" xmlns="http://www.w3.org/2000/svg">
<circle cx="12" cy="12" r="12" fill="white"/>
<path d="M8.49974 16.6664C8.17891 16.6664 7.90425 16.5522 7.67578 16.3237C7.44731 16.0952 7.33307 15.8206 7.33307 15.4997V11.1977L6.74974 11.6497C6.62335 11.747 6.47995 11.7859 6.31953 11.7664C6.15911 11.747 6.0303 11.6692 5.93307 11.5331C5.83585 11.4067 5.79939 11.2657 5.8237 11.1102C5.848 10.9546 5.92335 10.8282 6.04974 10.731L11.2997 6.70599C11.4067 6.62821 11.5209 6.56988 11.6424 6.53099C11.764 6.4921 11.8879 6.47266 12.0143 6.47266C12.1407 6.47266 12.2622 6.4921 12.3789 6.53099C12.4956 6.56988 12.6074 6.62821 12.7143 6.70599L17.0747 10.0456C17.2595 10.1817 17.3056 10.3567 17.2133 10.5706C17.1209 10.7845 16.9629 10.8768 16.7393 10.8477C16.4865 10.8185 16.2313 10.8209 15.9737 10.8549C15.7161 10.889 15.4609 10.9546 15.2081 11.0518C14.6247 10.8282 14.0244 10.7772 13.407 10.8987C12.7897 11.0202 12.2477 11.3143 11.781 11.781C11.3143 12.2477 11.0202 12.7897 10.8987 13.407C10.7772 14.0244 10.8282 14.6247 11.0518 15.2081C10.9935 15.3636 10.9449 15.5192 10.906 15.6747C10.8671 15.8303 10.8428 15.9907 10.8331 16.156C10.8234 16.2921 10.7723 16.4112 10.6799 16.5133C10.5876 16.6154 10.4734 16.6664 10.3372 16.6664H8.49974ZM15.2081 18.0518C14.7997 18.3338 14.3501 18.4529 13.8591 18.4091C13.3681 18.3654 12.9477 18.1685 12.5977 17.8185C12.2477 17.4685 12.0508 17.048 12.007 16.557C11.9633 16.0661 12.0824 15.6164 12.3643 15.2081C12.0824 14.7997 11.9633 14.3501 12.007 13.8591C12.0508 13.3681 12.2477 12.9477 12.5977 12.5977C12.9477 12.2477 13.3681 12.0508 13.8591 12.007C14.3501 11.9633 14.7997 12.0824 15.2081 12.3643C15.6164 12.0824 16.0661 11.9633 16.557 12.007C17.048 12.0508 17.4685 12.2477 17.8185 12.5977C18.1685 12.9477 18.3654 13.3681 18.4091 13.8591C18.4529 14.3501 18.3338 14.7997 18.0518 15.2081C18.3338 15.6164 18.4529 16.0661 18.4091 16.557C18.3654 17.048 18.1685 17.4685 17.8185 17.8185C17.4685 18.1685 17.048 18.3654 16.557 18.4091C16.0661 18.4529 15.6164 18.3338 15.2081 18.0518ZM15.2081 15.9372C15.4122 15.9372 15.5848 15.8668 15.7258 15.7258C15.8668 15.5848 15.9372 15.4122 15.9372 15.2081C15.9372 15.0039 15.8668 14.8313 15.7258 14.6904C15.5848 14.5494 15.4122 14.4789 15.2081 14.4789C15.0039 14.4789 14.8313 14.5494 14.6904 14.6904C14.5494 14.8313 14.4789 15.0039 14.4789 15.2081C14.4789 15.4122 14.5494 15.5848 14.6904 15.7258C14.8313 15.8668 15.0039 15.9372 15.2081 15.9372Z" fill="#2AB943"/>
</svg>
