<svg width="10" height="10" viewBox="0 0 10 10" fill="none" xmlns="http://www.w3.org/2000/svg">
<path d="M8.8457 9.16016C9.03871 9.1605 9.19531 9.31668 9.19531 9.50977C9.19518 9.70274 9.03863 9.85903 8.8457 9.85938H0.981445C0.788228 9.85938 0.630994 9.70295 0.630859 9.50977C0.630859 9.31647 0.788146 9.16016 0.981445 9.16016H8.8457ZM6.64453 0.536133C6.92315 0.154029 7.42989 0.0307891 7.84473 0.248047L7.92773 0.295898L7.96191 0.322266L9.0791 1.27441L9.10156 1.2959C9.27536 1.47351 9.37043 1.71463 9.36914 1.96191C9.36777 2.19858 9.27704 2.42736 9.11523 2.60059L8.27441 3.67578L5.38672 7.36719L5.38281 7.37207C5.28684 7.49047 5.1555 7.57678 5.00586 7.61523L5.00098 7.61719L3.50391 7.97754C3.48216 7.98278 3.45984 7.9863 3.4375 7.9873C3.04112 8.00449 2.72303 7.69945 2.68164 7.32324C2.67973 7.30556 2.6789 7.2873 2.67969 7.26953L2.75 5.72168V5.71484C2.75996 5.56318 2.8173 5.41652 2.91602 5.29883H2.91699L5.6709 1.78027L6.64453 0.536133ZM3.45996 5.74023L3.45215 5.74902C3.45119 5.75021 3.449 5.75325 3.44824 5.75781L3.38086 7.25488C3.3838 7.26741 3.38794 7.27719 3.39355 7.28223L3.39551 7.2832L4.83203 6.9375L4.83887 6.93164L7.28711 3.7998C6.94272 3.71418 6.64745 3.52579 6.41113 3.30566C6.1958 3.10499 6.01924 2.87071 5.88184 2.64551L3.45996 5.74023ZM7.53125 0.875C7.42476 0.812798 7.28773 0.838005 7.20703 0.953125C7.20354 0.958089 7.19905 0.962996 7.19531 0.967773L6.35156 2.04492C6.46766 2.28433 6.64998 2.5713 6.8877 2.79297C7.15377 3.04086 7.45751 3.1823 7.80469 3.13867L8.57129 2.16113C8.57996 2.15008 8.58967 2.13981 8.59961 2.12988C8.64147 2.08811 8.6685 2.02586 8.66895 1.95801C8.66922 1.89379 8.64514 1.83501 8.60742 1.79297L7.53125 0.875Z" fill="#707070"/>
</svg>
