<svg width="20" height="20" viewBox="0 0 20 20" fill="none" xmlns="http://www.w3.org/2000/svg">
<path d="M8 10.5H10L10.7708 11.6667C10.8403 11.7778 10.931 11.8611 11.0429 11.9167C11.155 11.9722 11.2726 12 11.3958 12H14.25C14.4625 12 14.6406 11.9283 14.7844 11.7848C14.9281 11.6412 15 11.4633 15 11.2513V8.25583C15 8.04361 14.9281 7.86458 14.7844 7.71875C14.6406 7.57292 14.4625 7.5 14.25 7.5H12.5L11.7292 6.33333C11.6597 6.22222 11.569 6.13889 11.4571 6.08333C11.345 6.02778 11.2274 6 11.1042 6H7.75C7.5375 6 7.35938 6.07187 7.21563 6.21562C7.07188 6.35937 7 6.5375 7 6.75V14.5C7 14.6444 7.04722 14.7639 7.14167 14.8583C7.23611 14.9528 7.35556 15 7.5 15C7.64444 15 7.76389 14.9528 7.85833 14.8583C7.95278 14.7639 8 14.6444 8 14.5V10.5ZM10.0058 18C8.90472 18 7.86806 17.7917 6.89583 17.375C5.92361 16.9583 5.07292 16.3854 4.34375 15.6562C3.61458 14.9271 3.04167 14.0767 2.625 13.105C2.20833 12.1333 2 11.0951 2 9.99042C2 8.88569 2.20833 7.85069 2.625 6.88542C3.04167 5.92014 3.61458 5.07292 4.34375 4.34375C5.07292 3.61458 5.92333 3.04167 6.895 2.625C7.86667 2.20833 8.90486 2 10.0096 2C11.1143 2 12.1493 2.20833 13.1146 2.625C14.0799 3.04167 14.9271 3.61458 15.6562 4.34375C16.3854 5.07292 16.9583 5.92167 17.375 6.89C17.7917 7.85847 18 8.89319 18 9.99417C18 11.0953 17.7917 12.1319 17.375 13.1042C16.9583 14.0764 16.3854 14.9271 15.6562 15.6562C14.9271 16.3854 14.0783 16.9583 13.11 17.375C12.1415 17.7917 11.1068 18 10.0058 18Z" fill="#707070"/>
</svg>
