<svg width="20" height="24" viewBox="0 0 20 24" fill="none" xmlns="http://www.w3.org/2000/svg">
<path d="M12.6221 3.60645L15.873 3.14941L15.7256 6.9541L15.5684 6.91699C15.6703 7.28737 15.7256 7.67359 15.7256 8.07129C15.7256 10.6091 13.5276 12.6964 10.7041 12.9629V21.5156L19.5312 14.4639V20.0684L17.8232 22.5518L15.1406 23.499L10.0029 23.708L10.3896 21.8643H9.61035L10.0029 23.708L4.85938 23.499L2.18164 22.5518L0.46875 20.0684V14.4639L9.29688 21.5166V12.9434C6.56217 12.6057 4.45801 10.5538 4.45801 8.07129C4.45802 7.68682 4.511 7.3132 4.60645 6.9541L4.45801 3.14941L7.70996 3.60645L9.85547 0.62793L10.166 0.981445L10.4766 0.62793L12.6221 3.60645Z" fill="#8F8F8F"/>
</svg>
