<svg width="20" height="24" viewBox="0 0 20 24" fill="none" xmlns="http://www.w3.org/2000/svg">
<mask id="mask0_765_4326" style="mask-type:luminance" maskUnits="userSpaceOnUse" x="0" y="0" width="20" height="24">
<path d="M20 0H0V24H20V0Z" fill="white"/>
</mask>
<g mask="url(#mask0_765_4326)">
<path d="M0.806139 13.6324C0.674387 13.5168 0.474123 13.4837 0.30021 13.5443C0.126297 13.6049 0.015625 13.7535 0.015625 13.9132V19.3254C0.015625 21.8801 2.4346 23.9614 5.40693 23.9614H14.6401C17.6125 23.9614 20.0314 21.8801 20.0314 19.3254V13.9132C20.0314 13.7535 19.9208 13.6049 19.7469 13.5443C19.5729 13.4837 19.3727 13.5168 19.2409 13.6324L10.4873 21.1534V13.4121C13.623 13.2084 16.1052 10.951 16.1052 8.20361V2.91249C16.1052 2.69226 15.8997 2.51607 15.6414 2.51607C14.5136 2.51607 13.4596 2.78586 12.5532 3.24835C11.6098 1.3158 10.4135 0.214627 10.3608 0.165074C10.3608 0.165074 10.3555 0.165074 10.3503 0.159568C10.345 0.154062 10.3503 0.154062 10.345 0.148556C10.3239 0.132039 10.3028 0.126533 10.2818 0.115521C10.2554 0.0990038 10.2291 0.0824863 10.1974 0.0714746C10.1711 0.0604629 10.1447 0.0604629 10.1184 0.054957C10.0868 0.0494512 10.0552 0.0439453 10.0235 0.0439453C9.99718 0.0439453 9.97083 0.0494512 9.94448 0.054957C9.91286 0.054957 9.88124 0.0604629 9.85489 0.0714746C9.82854 0.0824863 9.80219 0.0990038 9.77584 0.115521C9.75476 0.126533 9.7284 0.137545 9.70732 0.154062C9.70732 0.154062 9.70732 0.159568 9.70205 0.165074C9.70205 0.165074 9.69678 0.165074 9.69151 0.17058C9.63881 0.220133 8.43723 1.3213 7.49916 3.25386C6.5927 2.79136 5.53868 2.52158 4.41088 2.52158C4.15265 2.52158 3.94711 2.69777 3.94711 2.918V8.21463C3.94711 10.962 6.42933 13.2194 9.56503 13.4232V21.1644L0.806139 13.6324ZM0.943161 19.3309V14.8822L9.55976 22.2876V23.174H5.40693C2.9458 23.174 0.943161 21.4507 0.943161 19.3364V19.3309ZM19.1039 19.3309C19.1039 21.4452 17.1013 23.1685 14.6401 23.1685H10.4873V22.2876L19.1039 14.8822V19.3309ZM15.1777 8.20912C15.1777 10.5161 13.1118 12.4211 10.4873 12.6248V7.74663C10.4873 5.43968 12.5532 3.53465 15.1777 3.33094V8.20912ZM10.0235 1.05702C10.4451 1.51951 11.1777 2.43899 11.7732 3.71084C11.0143 4.25041 10.4082 4.94966 10.0235 5.7425C9.63881 4.94966 9.03802 4.25041 8.27386 3.71084C8.86938 2.43899 9.60192 1.51951 10.0235 1.05702ZM4.86938 8.20912V3.32543C7.49389 3.52915 9.55976 5.42867 9.55976 7.74112V12.6193C6.93526 12.4156 4.86938 10.5161 4.86938 8.20361V8.20912Z" fill="#4DB960"/>
</g>
<path d="M12.6221 3.60645L15.873 3.14941L15.7256 6.9541L15.5684 6.91699C15.6703 7.28737 15.7256 7.67359 15.7256 8.07129C15.7256 10.6091 13.5276 12.6964 10.7041 12.9629V21.5156L19.5312 14.4639V20.0684L17.8232 22.5518L15.1406 23.499L10.0029 23.708L10.3896 21.8643H9.61035L10.0029 23.708L4.85938 23.499L2.18164 22.5518L0.46875 20.0684V14.4639L9.29688 21.5166V12.9434C6.56217 12.6057 4.45801 10.5538 4.45801 8.07129C4.45802 7.68682 4.511 7.3132 4.60645 6.9541L4.45801 3.14941L7.70996 3.60645L9.85547 0.62793L10.166 0.981445L10.4766 0.62793L12.6221 3.60645Z" fill="#4DB960"/>
</svg>
