<svg width="20" height="26" viewBox="0 0 20 26" fill="none" xmlns="http://www.w3.org/2000/svg">
<g clip-path="url(#clip0_765_1609)">
<path d="M5.8601 5.04795C7.08808 4.99918 8.04145 3.82866 7.98446 2.4338C7.93264 1.03894 6.88601 -0.048658 5.65803 0.00011334C4.43005 0.0488847 3.47668 1.2194 3.53368 2.61426C3.59067 4.00912 4.63212 5.09672 5.8601 5.04795Z" fill="#4DB960"/>
<path d="M11.2177 5.55516C12.1451 5.6527 12.9845 4.88212 13.0881 3.82866C13.1918 2.77519 12.5234 1.84366 11.5959 1.74612C10.6684 1.64858 9.82906 2.41916 9.72544 3.47263C9.62181 4.52609 10.2902 5.45762 11.2177 5.55516Z" fill="#4DB960"/>
<path d="M17.0071 7.1235C17.1458 6.20616 16.5968 5.3739 15.7809 5.26459C14.965 5.15529 14.1911 5.81033 14.0524 6.72768C13.9137 7.64502 14.4627 8.47728 15.2786 8.58658C16.0945 8.69589 16.8684 8.04084 17.0071 7.1235Z" fill="#4DB960"/>
<path d="M17.9224 11.8417C18.539 12.2221 19.3731 11.9685 19.7773 11.2711C20.1866 10.5737 20.0156 9.69579 19.3991 9.31049C18.7825 8.93008 17.9483 9.18369 17.5441 9.88112C17.1348 10.5785 17.3058 11.4564 17.9224 11.8417Z" fill="#4DB960"/>
<path d="M14.1917 10.6564C13.0259 10.2028 12.0362 10.3735 12.0362 10.3735C12.0362 10.3735 11.5699 7.50573 8.70461 6.66199C6.25901 5.94505 4.16057 7.34479 3.40927 8.49091C1.9015 10.8027 2.10875 13.1925 2.68388 14.8995C3.00513 15.8505 3.25383 16.5187 3.4559 17.0113C2.30046 17.7233 1.25901 18.7524 0.626888 19.8741C-0.792801 22.381 0.362639 24.366 2.57507 25.4194C4.78751 26.4729 7.22274 26.1998 8.64761 23.6881C9.18129 22.7419 9.49735 21.6153 9.56471 20.5179C10.7046 20.3911 11.8549 20.2399 12.7668 20.04C13.6632 19.8449 15.4093 19.1865 16.4455 17.9184C17.4455 16.6943 17.4663 15.0263 17.1398 13.7485C16.8134 12.4707 15.3626 11.1099 14.1968 10.6564H14.1917Z" fill="#4DB960"/>
</g>
<defs>
<clipPath id="clip0_765_1609">
<rect width="20" height="26" fill="white"/>
</clipPath>
</defs>
</svg>
