<svg width="20" height="26" viewBox="0 0 20 26" fill="none" xmlns="http://www.w3.org/2000/svg">
<g clip-path="url(#clip0_631_106)">
<path d="M5.8601 5.04795C7.08808 4.99918 8.04145 3.82866 7.98446 2.4338C7.93264 1.03894 6.88601 -0.048658 5.65803 0.00011334C4.43005 0.0488847 3.47668 1.2194 3.53368 2.61426C3.59067 4.00912 4.63212 5.09672 5.8601 5.04795Z" fill="#8F8F8F"/>
<path d="M11.2177 5.55516C12.1451 5.6527 12.9845 4.88212 13.0881 3.82866C13.1918 2.77519 12.5234 1.84366 11.5959 1.74612C10.6684 1.64858 9.82906 2.41916 9.72544 3.47263C9.62181 4.52609 10.2902 5.45762 11.2177 5.55516Z" fill="#8F8F8F"/>
<path d="M17.0076 7.1235C17.1463 6.20616 16.5973 5.3739 15.7814 5.26459C14.9655 5.15529 14.1916 5.81033 14.0529 6.72768C13.9142 7.64502 14.4632 8.47728 15.2791 8.58658C16.095 8.69589 16.8689 8.04084 17.0076 7.1235Z" fill="#8F8F8F"/>
<path d="M17.9224 11.8417C18.539 12.2221 19.3731 11.9685 19.7773 11.2711C20.1866 10.5737 20.0156 9.69579 19.3991 9.31049C18.7825 8.93008 17.9483 9.18369 17.5441 9.88112C17.1348 10.5785 17.3058 11.4564 17.9224 11.8417Z" fill="#8F8F8F"/>
<path d="M14.1912 10.6566C13.0254 10.203 12.0357 10.3737 12.0357 10.3737C12.0357 10.3737 11.5694 7.50598 8.70412 6.66223C6.25852 5.94529 4.16008 7.34503 3.40878 8.49116C1.90101 10.8029 2.10826 13.1927 2.68339 14.8997C3.00464 15.8508 3.25334 16.5189 3.45542 17.0115C2.29997 17.7236 1.25852 18.7526 0.626399 19.8744C-0.79329 22.3812 0.362151 24.3662 2.57459 25.4197C4.78702 26.4731 7.22225 26.2 8.64712 23.6883C9.1808 22.7421 9.49686 21.6155 9.56422 20.5182C10.7041 20.3914 11.8544 20.2402 12.7663 20.0402C13.6627 19.8451 15.4088 19.1867 16.4451 17.9187C17.4451 16.6945 17.4658 15.0265 17.1394 13.7487C16.8129 12.4709 15.3622 11.1102 14.1963 10.6566H14.1912Z" fill="#8F8F8F"/>
</g>
<defs>
<clipPath id="clip0_631_106">
<rect width="20" height="26" fill="white"/>
</clipPath>
</defs>
</svg>
