<svg width="24" height="24" viewBox="0 0 24 24" fill="none" xmlns="http://www.w3.org/2000/svg">
<path d="M12 0.400391C18.4065 0.400391 23.5996 5.5935 23.5996 12C23.5996 18.4065 18.4065 23.5996 12 23.5996C5.5935 23.5996 0.400391 18.4065 0.400391 12C0.400391 5.5935 5.5935 0.400391 12 0.400391Z" stroke="#707070" stroke-width="0.8" stroke-miterlimit="10"/>
<path d="M12.0352 6.2002C15.2537 6.2002 17.8629 8.8056 17.8701 12.0225C17.8702 12.027 17.8721 12.0315 17.8721 12.0361C17.8721 12.0404 17.8702 12.0446 17.8701 12.0488C17.8629 15.2654 15.2543 17.8697 12.0361 17.8701V17.8711L12.0352 17.8701V17.8711C8.81243 17.8707 6.2002 15.258 6.2002 12.0352C6.2006 8.81268 8.81267 6.20056 12.0352 6.2002ZM12.6357 9.04395C12.6356 9.37515 12.3673 9.64345 12.0361 9.64355C11.7048 9.64355 11.4366 9.37522 11.4365 9.04395V7.43945C9.35563 7.70817 7.7082 9.35564 7.43945 11.4365H9.04395C9.37522 11.4366 9.64355 11.7048 9.64355 12.0361C9.64343 12.3673 9.37514 12.6356 9.04395 12.6357H7.43945C7.70856 14.7162 9.35597 16.3631 11.4365 16.6318V15.0273C11.4368 14.6962 11.7049 14.4277 12.0361 14.4277C12.3673 14.4278 12.6355 14.6962 12.6357 15.0273V16.6318C14.7158 16.3627 16.3627 14.7159 16.6318 12.6357H15.0283C14.697 12.6357 14.4288 12.3674 14.4287 12.0361C14.4287 11.7048 14.6969 11.4365 15.0283 11.4365H16.6318C16.3631 9.35602 14.7162 7.70859 12.6357 7.43945V9.04395Z" fill="#414141"/>
</svg>
