<svg width="14" height="14" viewBox="0 0 14 14" fill="none" xmlns="http://www.w3.org/2000/svg">
<path d="M6.47461 12.6C5.50239 12.6 4.676 12.2597 3.99544 11.5792C3.31489 10.8986 2.97461 10.0722 2.97461 9.1V8.05C3.66489 8.05 4.30412 8.19097 4.89232 8.47292C5.48051 8.75486 6.00794 9.16806 6.47461 9.7125V7.71458C5.61905 7.57847 4.90933 7.17986 4.34544 6.51875C3.78155 5.85764 3.49961 5.08472 3.49961 4.2V2.08542C3.49961 1.87153 3.59197 1.71597 3.77669 1.61875C3.96141 1.52153 4.14128 1.53125 4.31628 1.64792L5.59961 2.50833L6.63503 1.47292C6.74197 1.36597 6.8635 1.3125 6.99961 1.3125C7.13572 1.3125 7.25725 1.36597 7.36419 1.47292L8.39961 2.50833L9.68294 1.64792C9.85794 1.53125 10.0378 1.52153 10.2225 1.61875C10.4072 1.71597 10.4996 1.87153 10.4996 2.08542V4.2C10.4996 5.08472 10.2177 5.85764 9.65378 6.51875C9.08989 7.17986 8.38017 7.57847 7.52461 7.71458V9.7125C7.99128 9.16806 8.51871 8.75486 9.1069 8.47292C9.6951 8.19097 10.3343 8.05 11.0246 8.05V9.1C11.0246 10.0722 10.6843 10.8986 10.0038 11.5792C9.32322 12.2597 8.49683 12.6 7.52461 12.6H6.47461Z" fill="#707070"/>
</svg>
