<svg width="14" height="14" viewBox="0 0 14 14" fill="none" xmlns="http://www.w3.org/2000/svg">
<path d="M3.8469 11.0878C3.58343 11.0878 3.36176 10.9968 3.1819 10.8148C3.00204 10.6329 2.91211 10.4103 2.91211 10.1469C2.91211 9.88343 3.00311 9.66176 3.18511 9.4819C3.36701 9.30204 3.58965 9.21211 3.85303 9.21211C4.1165 9.21211 4.33816 9.30311 4.51803 9.48511C4.69789 9.66701 4.78782 9.88965 4.78782 10.153C4.78782 10.4165 4.69682 10.6382 4.51482 10.818C4.33291 10.9979 4.11028 11.0878 3.8469 11.0878ZM8.0469 11.0878C7.78343 11.0878 7.56176 10.9968 7.3819 10.8148C7.20204 10.6329 7.11211 10.4103 7.11211 10.1469C7.11211 9.88343 7.20311 9.66176 7.38511 9.4819C7.56701 9.30204 7.78965 9.21211 8.05303 9.21211C8.3165 9.21211 8.53817 9.30311 8.71803 9.48511C8.89789 9.66701 8.98782 9.88965 8.98782 10.153C8.98782 10.4165 8.89682 10.6382 8.71482 10.818C8.53292 10.9979 8.31028 11.0878 8.0469 11.0878ZM5.9469 8.98782C5.68343 8.98782 5.46176 8.89682 5.2819 8.71482C5.10204 8.53292 5.01211 8.31028 5.01211 8.0469C5.01211 7.78343 5.10311 7.56176 5.28511 7.3819C5.46701 7.20204 5.68965 7.11211 5.95303 7.11211C6.2165 7.11211 6.43817 7.20311 6.61803 7.38511C6.79789 7.56701 6.88782 7.78965 6.88782 8.05303C6.88782 8.3165 6.79682 8.53817 6.61482 8.71803C6.43291 8.89789 6.21028 8.98782 5.9469 8.98782ZM10.1469 8.98782C9.88343 8.98782 9.66176 8.89682 9.4819 8.71482C9.30204 8.53292 9.21211 8.31028 9.21211 8.0469C9.21211 7.78343 9.30311 7.56176 9.48511 7.3819C9.66701 7.20204 9.88965 7.11211 10.153 7.11211C10.4165 7.11211 10.6382 7.20311 10.818 7.38511C10.9979 7.56701 11.0878 7.78965 11.0878 8.05303C11.0878 8.3165 10.9968 8.53817 10.8148 8.71803C10.6329 8.89789 10.4103 8.98782 10.1469 8.98782ZM3.8469 6.88782C3.58343 6.88782 3.36176 6.79682 3.1819 6.61482C3.00204 6.43291 2.91211 6.21028 2.91211 5.9469C2.91211 5.68343 3.00311 5.46176 3.18511 5.2819C3.36701 5.10204 3.58965 5.01211 3.85303 5.01211C4.1165 5.01211 4.33816 5.10311 4.51803 5.28511C4.69789 5.46701 4.78782 5.68965 4.78782 5.95303C4.78782 6.2165 4.69682 6.43817 4.51482 6.61803C4.33291 6.79789 4.11028 6.88782 3.8469 6.88782ZM8.0469 6.88782C7.78343 6.88782 7.56176 6.79682 7.3819 6.61482C7.20204 6.43291 7.11211 6.21028 7.11211 5.9469C7.11211 5.68343 7.20311 5.46176 7.38511 5.2819C7.56701 5.10204 7.78965 5.01211 8.05303 5.01211C8.3165 5.01211 8.53817 5.10311 8.71803 5.28511C8.89789 5.46701 8.98782 5.68965 8.98782 5.95303C8.98782 6.2165 8.89682 6.43817 8.71482 6.61803C8.53292 6.79789 8.31028 6.88782 8.0469 6.88782ZM5.9469 4.78782C5.68343 4.78782 5.46176 4.69682 5.2819 4.51482C5.10204 4.33292 5.01211 4.11028 5.01211 3.8469C5.01211 3.58343 5.10311 3.36176 5.28511 3.1819C5.46701 3.00204 5.68965 2.91211 5.95303 2.91211C6.2165 2.91211 6.43817 3.00311 6.61803 3.18511C6.79789 3.36701 6.88782 3.58965 6.88782 3.85303C6.88782 4.1165 6.79682 4.33816 6.61482 4.51803C6.43291 4.69789 6.21028 4.78782 5.9469 4.78782ZM10.1469 4.78782C9.88343 4.78782 9.66176 4.69682 9.4819 4.51482C9.30204 4.33292 9.21211 4.11028 9.21211 3.8469C9.21211 3.58343 9.30311 3.36176 9.48511 3.1819C9.66701 3.00204 9.88965 2.91211 10.153 2.91211C10.4165 2.91211 10.6382 3.00311 10.818 3.18511C10.9979 3.36701 11.0878 3.58965 11.0878 3.85303C11.0878 4.1165 10.9968 4.33816 10.8148 4.51803C10.6329 4.69789 10.4103 4.78782 10.1469 4.78782Z" fill="#707070"/>
</svg>
