<svg width="14" height="14" viewBox="0 0 14 14" fill="none" xmlns="http://www.w3.org/2000/svg">
<path d="M5.33711 12.5996C5.08433 12.5996 4.86315 12.5219 4.67357 12.3663C4.48398 12.2108 4.36489 12.0115 4.31628 11.7684L3.73294 9.09965H10.2663L9.68294 11.7684C9.63433 12.0115 9.51378 12.2108 9.32128 12.3663C9.12878 12.5219 8.90419 12.5996 8.64753 12.5996H5.33711ZM6.99961 4.19965C6.99961 3.50266 7.23348 2.89857 7.70121 2.38738C8.16905 1.87618 8.75185 1.56638 9.44961 1.45798C9.49453 1.44826 9.53492 1.45069 9.5708 1.46527C9.60667 1.47986 9.63919 1.50173 9.66836 1.5309C9.69753 1.56007 9.72183 1.59166 9.74128 1.62569C9.76072 1.65972 9.76558 1.70104 9.75586 1.74965C9.66836 2.35243 9.42287 2.875 9.0194 3.31736C8.61593 3.75972 8.11766 4.03437 7.52461 4.14132V5.59965H11.3746C11.5234 5.59965 11.648 5.64996 11.7487 5.75059C11.8493 5.85121 11.8996 5.9759 11.8996 6.12465V7.34965C11.8996 7.6384 11.7968 7.88559 11.5912 8.09121C11.3855 8.29684 11.1384 8.39965 10.8496 8.39965H3.14961C2.86086 8.39965 2.61367 8.29684 2.40805 8.09121C2.20242 7.88559 2.09961 7.6384 2.09961 7.34965V6.12465C2.09961 5.9759 2.14992 5.85121 2.25055 5.75059C2.35117 5.64996 2.47586 5.59965 2.62461 5.59965H6.47461V4.14132C5.88155 4.03437 5.38329 3.75972 4.97982 3.31736C4.57635 2.875 4.33086 2.35243 4.24336 1.74965C4.23364 1.70104 4.2385 1.65972 4.25794 1.62569C4.27739 1.59166 4.30169 1.56007 4.33086 1.5309C4.36003 1.50173 4.39255 1.47986 4.42842 1.46527C4.4643 1.45069 4.50469 1.44826 4.54961 1.45798C5.24737 1.56638 5.83017 1.87618 6.29801 2.38738C6.76574 2.89857 6.99961 3.50266 6.99961 4.19965Z" fill="#707070"/>
</svg>
