<svg width="24" height="24" viewBox="0 0 24 24" fill="none" xmlns="http://www.w3.org/2000/svg">
<path d="M12 19.75C11.7833 19.75 11.5708 19.7125 11.3625 19.6375C11.1542 19.5625 10.9583 19.4417 10.775 19.275L9.3 17.925C7.48334 16.3083 5.87917 14.7292 4.4875 13.1875C3.09583 11.6458 2.4 9.96667 2.4 8.15C2.4 6.68333 2.9 5.45833 3.9 4.475C4.9 3.49167 6.14167 3 7.625 3C8.475 3 9.27917 3.17917 10.0375 3.5375C10.7958 3.89583 11.45 4.40833 12 5.075C12.5833 4.40833 13.2458 3.89583 13.9875 3.5375C14.7292 3.17917 15.525 3 16.375 3C17.8583 3 19.1 3.49167 20.1 4.475C21.1 5.45833 21.6 6.68333 21.6 8.15C21.6 9.96667 20.9042 11.6458 19.5125 13.1875C18.1208 14.7292 16.5167 16.3083 14.7 17.925L13.225 19.275C13.0417 19.4417 12.8458 19.5625 12.6375 19.6375C12.4292 19.7125 12.2167 19.75 12 19.75Z" fill="#00711E"/>
</svg>
