<svg width="22" height="22" viewBox="0 0 22 22" fill="none" xmlns="http://www.w3.org/2000/svg">
<g clip-path="url(#clip0_765_271)">
<path d="M22 7.63259H21.993C21.9895 7.47262 21.9162 7.31266 21.7485 7.1984L11.3546 0.107731C11.1415 -0.0359104 10.855 -0.0359104 10.6419 0.107731L0.248055 7.1984C0.0803557 7.31266 0.00698745 7.47262 0.00349373 7.63259H0V7.64564C0 7.64564 0 7.66523 0 7.67829V20.7105C0 21.4254 0.621883 22.0033 1.38352 22.0033H7.72463C8.48976 22.0033 9.10815 21.4222 9.10815 20.7105V15.3598H12.8849V20.7105C12.8849 21.4254 13.5068 22.0033 14.2684 22.0033H20.6095C21.3746 22.0033 21.993 21.4222 21.993 20.7105V15.3598V7.63585L22 7.63259Z" fill="#4DB960"/>
</g>
<defs>
<clipPath id="clip0_765_271">
<rect width="22" height="22" fill="white"/>
</clipPath>
</defs>
</svg>
