<svg width="12" height="16" viewBox="0 0 12 16" fill="none" xmlns="http://www.w3.org/2000/svg">
<path d="M6.00033 7.36262C6.93519 7.36262 7.72394 7.0356 8.36658 6.38158C9.00922 5.72769 9.33053 4.93394 9.33053 4.00033V1.50033H2.67012V4.00033C2.67012 4.93519 2.99144 5.72928 3.63408 6.38262C4.27671 7.03595 5.06546 7.36262 6.00033 7.36262ZM0.9647 15.5837C0.811367 15.5837 0.681784 15.5321 0.575951 15.4291C0.469978 15.326 0.416992 15.1984 0.416992 15.0462C0.416992 14.8938 0.468937 14.7648 0.572825 14.6591C0.676575 14.5532 0.805187 14.5003 0.958659 14.5003H1.58699V12.0003C1.58699 11.09 1.84019 10.2709 2.34658 9.54283C2.85296 8.81463 3.52283 8.30046 4.35616 8.00033C3.53671 7.69477 2.87033 7.17928 2.35699 6.45387C1.84366 5.72845 1.58699 4.9106 1.58699 4.00033V1.50033H0.958659C0.805187 1.50033 0.676575 1.4488 0.572825 1.34574C0.468937 1.24269 0.416992 1.11505 0.416992 0.962826C0.416992 0.810465 0.468867 0.681437 0.572617 0.575742C0.676367 0.469909 0.804909 0.416992 0.958242 0.416992H11.036C11.1893 0.416992 11.3189 0.46852 11.4247 0.571575C11.5307 0.674631 11.5837 0.80227 11.5837 0.954492C11.5837 1.10685 11.5317 1.23588 11.4278 1.34158C11.3241 1.44741 11.1955 1.50033 11.042 1.50033H10.4137V4.00033C10.4137 4.9106 10.157 5.72845 9.64366 6.45387C9.13033 7.17928 8.46394 7.69477 7.64449 8.00033C8.47783 8.30046 9.14769 8.81463 9.65408 9.54283C10.1605 10.2709 10.4137 11.09 10.4137 12.0003V14.5003H11.042C11.1955 14.5003 11.3241 14.5519 11.4278 14.6549C11.5317 14.758 11.5837 14.8856 11.5837 15.0378C11.5837 15.1902 11.5318 15.3192 11.428 15.4249C11.3243 15.5307 11.1957 15.5837 11.0424 15.5837H0.9647Z" fill="white"/>
</svg>
