<svg width="300" height="45" viewBox="0 0 300 45" fill="none" xmlns="http://www.w3.org/2000/svg">
<rect width="300" height="45" rx="8" fill="#FDE400"/>
<path d="M23.5 14C28.7467 14 33 17.134 33 21C33 24.866 28.7467 28 23.5 28C22.7254 28 21.9728 27.9297 21.252 27.8008C20.5474 29.3418 18.7023 30.306 17.3291 30.7666C17.1283 30.8339 16.9733 30.5541 17.1016 30.3857C17.9328 29.298 18.0381 27.8512 17.8896 26.6475C15.5318 25.3737 14 23.3194 14 21C14 17.134 18.2533 14 23.5 14Z" fill="#181600"/>
<path d="M127.105 17.1562C127.092 20.7656 125.984 23.9785 121.514 26.1797L120.803 25.209C123.018 24.1221 124.337 22.8027 125.068 21.2441L121.062 21.627L120.871 20.5059L125.465 20.1914C125.649 19.5693 125.759 18.9062 125.807 18.209H121.514V17.1562H127.105ZM130.277 15.9121V20.8066H132.178V21.873H130.277V28.1484H128.979V15.9121H130.277ZM139.205 17.1562C139.191 20.7656 138.084 23.9785 133.613 26.1797L132.902 25.209C135.117 24.1221 136.437 22.8027 137.168 21.2441L133.162 21.627L132.971 20.5059L137.564 20.1914C137.749 19.5693 137.858 18.9062 137.906 18.209H133.613V17.1562H139.205ZM142.377 15.9121V20.8066H144.277V21.873H142.377V28.1484H141.078V15.9121H142.377ZM150.512 16.6504C153.137 16.6641 155.037 17.9492 155.037 19.9043C155.037 21.7432 153.444 22.9531 151.154 23.1445V25.5508H156.145V26.6309H144.934V25.5508H149.869V23.1445C147.593 22.9531 146 21.7432 146 19.9043C146 17.9492 147.9 16.6641 150.512 16.6504ZM150.512 17.7168C148.625 17.7031 147.258 18.5781 147.258 19.9043C147.258 21.2852 148.625 22.1328 150.512 22.1465C152.412 22.1328 153.779 21.2852 153.779 19.9043C153.779 18.5781 152.412 17.7031 150.512 17.7168ZM175.08 25.6055V26.6992H163.869V25.6055H168.805V23.459H165.236V19.5625H172.428V17.8398H165.209V16.7734H173.713V20.6016H166.521V22.3926H174V23.459H170.09V25.6055H175.08ZM185.676 17.1562V18.4688C185.676 20.0547 185.676 21.7773 185.225 24.3887L183.898 24.2656C184.391 21.8184 184.391 20.0137 184.391 18.4688V18.2227H177.172V17.1562H185.676ZM187.139 25.3457V26.4258H175.969V25.3457H187.139ZM198.227 15.9258V24.8262H196.928V15.9258H198.227ZM198.596 26.8496V27.9023H190.215V23.9238H191.527V26.8496H198.596ZM191.582 16.7461C193.428 16.7461 194.836 18.0039 194.836 19.7812C194.836 21.5859 193.428 22.8301 191.582 22.8301C189.736 22.8301 188.314 21.5859 188.314 19.7812C188.314 18.0039 189.736 16.7461 191.582 16.7461ZM191.582 17.8809C190.434 17.8809 189.586 18.6602 189.586 19.7812C189.586 20.9297 190.434 21.6953 191.582 21.6953C192.703 21.6953 193.564 20.9297 193.564 19.7812C193.564 18.6602 192.703 17.8809 191.582 17.8809Z" fill="black"/>
</svg>
