<svg width="120" height="30" viewBox="0 0 120 30" fill="none" xmlns="http://www.w3.org/2000/svg">
<path d="M24.614 0H7.08448C3.17183 0 0 3.00188 0 6.70489V23.2951C0 26.9981 3.17183 30 7.08448 30H24.614C28.5266 30 31.6985 26.9981 31.6985 23.2951V6.70489C31.6985 3.00188 28.5266 0 24.614 0Z" fill="url(#paint0_linear_724_5231)"/>
<path d="M28.0471 12.0921C27.583 10.2611 26.0453 7.98556 23.216 7.35053C19.3131 6.47207 17.7754 8.18136 17.479 8.16549C17.1827 8.14961 15.8687 4.68339 11.6303 4.84744C4.35011 5.12791 3.39955 11.547 3.52815 14.0713C3.69031 17.3682 5.02668 20.6968 8.49903 22.9776C11.7086 25.0838 14.0962 25.2849 16.6683 25.1156C19.3746 24.9409 23.9093 23.6179 24.8767 20.591C25.8328 17.6063 23.8814 15.1085 21.6671 14.4259C20.2692 13.9972 18.7371 14.8122 18.4632 15.7859C18.0102 17.3946 18.6309 17.9767 19.4808 19.4744C20.3755 21.0514 19.1565 22.7977 17.8034 23.3534C16.5005 23.8878 14.4205 23.438 12.3236 22.3003C10.2268 21.1625 7.62675 18.3313 7.9231 14.3623C8.16913 11.0125 10.607 9.58902 11.401 9.28738C11.7589 9.14979 14.9125 8.03848 16.5956 10.314C17.3896 11.3883 16.864 11.3883 17.4343 10.822C18.3234 9.82716 19.5535 8.98045 22.3269 9.3403C24.4908 9.62606 26.2186 11.0231 26.8617 12.5208C27.7395 14.5634 27.5103 15.4631 27.8681 15.0556C28.0918 14.8016 28.3322 13.2405 28.0359 12.0921H28.0471Z" fill="white"/>
<path d="M20.6215 13.6108C21.2082 13.6108 21.6839 13.1132 21.6839 12.4995C21.6839 11.8857 21.2082 11.3882 20.6215 11.3882C20.0347 11.3882 19.5591 11.8857 19.5591 12.4995C19.5591 13.1132 20.0347 13.6108 20.6215 13.6108Z" fill="white"/>
<path d="M22.1817 13.0339C21.986 13.4731 22.1706 13.9706 22.5899 14.1452C23.0093 14.3198 23.5013 14.1135 23.6971 13.6742C23.8928 13.235 23.7082 12.7376 23.2889 12.5629C22.8695 12.3883 22.3774 12.5947 22.1817 13.0339Z" fill="white"/>
<path d="M25.0781 13.992C24.7706 13.7803 24.34 13.865 24.1052 14.1825C23.8703 14.5 23.9318 14.9339 24.2338 15.1456C24.5413 15.3573 24.9719 15.2726 25.2067 14.9551C25.4416 14.6376 25.3801 14.2036 25.0781 13.992Z" fill="white"/>
<path d="M26.1738 15.5476C25.9501 15.2883 25.5419 15.2672 25.2624 15.5C24.9772 15.7329 24.9325 16.1298 25.1505 16.3838C25.3742 16.6431 25.7824 16.6642 26.062 16.4314C26.3415 16.1986 26.3919 15.8017 26.1738 15.5476Z" fill="white"/>
<path d="M26.0006 17.0823C25.7098 17.2464 25.6036 17.5957 25.7602 17.8603C25.9167 18.1249 26.2802 18.2095 26.5709 18.0455C26.8617 17.8814 26.9679 17.5322 26.8114 17.2676C26.6548 17.003 26.2914 16.9183 26.0006 17.0823Z" fill="white"/>
<path d="M40.3092 24.8668C39.8899 24.8668 39.5655 24.8192 39.3251 24.7345C39.0847 24.6446 38.9057 24.5228 38.7771 24.3694C38.6485 24.2159 38.5702 24.036 38.5423 23.8296C38.5143 23.6232 38.4976 23.4009 38.4976 23.1575V6.60433C38.4976 6.3609 38.5143 6.12806 38.5423 5.9058C38.5702 5.68353 38.6485 5.48773 38.7771 5.30781C38.9057 5.12788 39.0847 4.985 39.3251 4.87916C39.5655 4.77332 39.8899 4.7204 40.3092 4.7204H46.0797C46.4991 4.7204 46.8234 4.77332 47.0638 4.87916C47.3042 4.985 47.4832 5.12788 47.6118 5.30781C47.7404 5.48773 47.8187 5.68883 47.8466 5.9058C47.8746 6.12806 47.8914 6.3609 47.8914 6.60433V23.1522C47.8914 23.3957 47.8746 23.6232 47.8466 23.8243C47.8187 24.0307 47.7404 24.2053 47.6118 24.3641C47.4832 24.5175 47.3042 24.6393 47.0638 24.7292C46.8234 24.8192 46.4991 24.8615 46.0797 24.8615H40.3092V24.8668ZM44.3575 21.4853V8.09666H42.0314V21.4853H44.3575ZM52.1297 25.3801C51.9117 25.3166 51.7216 25.2002 51.5482 25.0362C51.3749 24.8721 51.2407 24.6498 51.1456 24.3747C51.0506 24.0942 51.0002 23.7449 51.0002 23.3216V6.60433C51.0002 5.78937 51.1848 5.22843 51.5482 4.92679C51.9117 4.62515 52.3366 4.47168 52.8119 4.47168C53.0523 4.47168 53.276 4.50343 53.4941 4.56693C53.7121 4.63044 53.9023 4.74686 54.0644 4.91091C54.2266 5.07496 54.3608 5.29722 54.467 5.5724C54.5732 5.84758 54.6236 6.19156 54.6236 6.59904V12.4731H56.0326C56.452 12.4731 56.7931 12.5207 57.0615 12.6213C57.3299 12.7218 57.5368 12.8435 57.6877 13.0023C57.8387 13.1558 57.9394 13.3357 57.9897 13.5421C58.04 13.7484 58.068 13.9443 58.068 14.1401C58.068 14.3835 58.04 14.611 57.9897 14.8121C57.9394 15.0185 57.8387 15.1984 57.6877 15.3519C57.5368 15.5054 57.3299 15.6324 57.0615 15.717C56.7931 15.807 56.452 15.8493 56.0326 15.8493H54.6236V23.3163C54.6236 23.7396 54.5732 24.0889 54.467 24.3694C54.3608 24.6446 54.2266 24.8668 54.0644 25.0309C53.9023 25.1949 53.7121 25.306 53.4941 25.3748C53.276 25.4383 53.0523 25.4754 52.8119 25.4754C52.5715 25.4754 52.3478 25.4436 52.1297 25.3748V25.3801Z" fill="#4DB960"/>
<path d="M60.6847 17.0086C60.3101 17.0086 60.0137 16.9662 59.79 16.8869C59.5664 16.8075 59.393 16.6911 59.2756 16.5429C59.1582 16.3947 59.0799 16.2307 59.0408 16.0402C59.0016 15.8549 58.9849 15.6433 58.9849 15.4157C58.9849 15.2358 59.0016 15.0506 59.0408 14.8653C59.0799 14.6801 59.1582 14.5108 59.2756 14.3626C59.393 14.2144 59.5664 14.0927 59.79 13.9975C60.0137 13.8969 60.3101 13.8493 60.6847 13.8493H76.9449C77.3195 13.8493 77.6159 13.8969 77.8395 13.9975C78.0632 14.0927 78.2365 14.2197 78.354 14.3626C78.4714 14.5108 78.5497 14.6748 78.5888 14.8653C78.628 15.0506 78.6447 15.2358 78.6447 15.4157C78.6447 15.6433 78.628 15.8549 78.5888 16.0402C78.5497 16.2254 78.4714 16.3947 78.354 16.5429C78.2365 16.6911 78.0632 16.8022 77.8395 16.8869C77.6159 16.9662 77.3195 17.0086 76.9449 17.0086H60.6847ZM64.7777 12.5051C63.1953 12.4893 62.0602 12.2035 61.3669 11.6479C60.6735 11.0922 60.3268 10.2614 60.3268 9.15006V8.31922C60.3268 7.22379 60.7126 6.35062 61.4787 5.69971C62.2447 5.0488 63.3742 4.7207 64.8672 4.7207H72.7401C74.233 4.7207 75.3625 5.0488 76.1285 5.69971C76.8946 6.35062 77.2804 7.22379 77.2804 8.31922V9.15006C77.2804 10.2614 76.9393 11.0922 76.2515 11.6479C75.5638 12.2035 74.4343 12.4893 72.8519 12.5051H64.7777ZM62.3622 25.7456C61.9428 25.7456 61.6185 25.698 61.378 25.6133C61.1376 25.5233 60.9587 25.4016 60.8301 25.2481C60.7015 25.0947 60.6232 24.9147 60.5952 24.7084C60.5673 24.502 60.5505 24.2797 60.5505 24.0363V20.2896C60.5505 19.6704 60.6959 19.1624 60.9866 18.7602C61.2774 18.3633 61.8086 18.1622 62.5858 18.1622H75.2674C75.6868 18.1622 76.0111 18.2099 76.2515 18.2945C76.492 18.3845 76.6709 18.5062 76.7995 18.6597C76.9281 18.8131 77.0064 18.9931 77.0344 19.1994C77.0623 19.4058 77.0791 19.6281 77.0791 19.8715V23.6182C77.0791 24.4332 76.8834 24.9941 76.4976 25.2958C76.1118 25.5974 75.6253 25.7509 75.0438 25.7509H62.3622V25.7456ZM71.3981 9.58929C72.0411 9.58929 72.5779 9.54695 73.0085 9.45699C73.439 9.36703 73.6571 9.13418 73.6571 8.75845V8.4621C73.6571 8.2663 73.6011 8.11284 73.4893 7.99641C73.3775 7.87999 73.2153 7.79532 73.0085 7.73711C72.8016 7.6789 72.5555 7.64715 72.2704 7.63656C71.9852 7.63127 71.6721 7.62598 71.331 7.62598H66.2762C65.9351 7.62598 65.622 7.62598 65.3369 7.63656C65.0517 7.64715 64.8057 7.6789 64.5988 7.73711C64.3919 7.79532 64.2297 7.87999 64.1179 7.99641C64.0061 8.11284 63.9502 8.2663 63.9502 8.4621V8.75845C63.9502 9.13418 64.1682 9.36703 64.5988 9.45699C65.0293 9.54695 65.5661 9.58929 66.2091 9.58929H71.3981ZM73.4558 22.5916V21.3162H64.1738V22.5916H73.4558Z" fill="#4DB960"/>
<path d="M80.9707 16.6431C80.7023 16.5267 80.4787 16.3097 80.2997 15.9816C80.0034 15.4577 79.9307 14.9603 80.0873 14.4893C80.2438 14.0183 80.5625 13.5897 81.0378 13.214C81.6026 12.7747 82.0722 12.3514 82.4469 11.9545C82.8215 11.5576 83.1179 11.1395 83.3415 10.7056C83.5652 10.2716 83.7273 9.80595 83.8336 9.30851C83.9398 8.81107 83.9957 8.25012 84.0125 7.63097V6.72605C84.0125 6.31857 84.0628 5.97459 84.1691 5.69941C84.2753 5.42423 84.4095 5.20197 84.5829 5.03792C84.7562 4.87387 84.9519 4.76274 85.1756 4.69394C85.3992 4.63044 85.6285 4.59339 85.8689 4.59339C86.1093 4.59339 86.3386 4.62515 86.5623 4.69394C86.7859 4.75744 86.9816 4.87387 87.155 5.03792C87.3283 5.20197 87.4625 5.42423 87.5687 5.69941C87.675 5.97459 87.7253 6.31857 87.7253 6.72605V7.63097C87.7253 8.25012 87.7756 8.80049 87.8707 9.27147C87.9657 9.74245 88.1279 10.187 88.3515 10.605C88.5752 11.0231 88.8772 11.42 89.2574 11.8063C89.6376 12.1926 90.1129 12.6001 90.6776 13.0446C91.1529 13.4203 91.4716 13.8437 91.6282 14.32C91.7848 14.791 91.7121 15.2937 91.4157 15.8123C91.2536 16.0875 91.0523 16.2992 90.823 16.4368C90.5938 16.5743 90.3421 16.6537 90.0737 16.6696C89.9116 16.6696 89.7383 16.6484 89.5593 16.6061C89.3804 16.5638 89.2071 16.4791 89.0449 16.3468C88.3739 15.7911 87.7924 15.2514 87.3003 14.7327C86.8083 14.2088 86.3777 13.6902 86.0031 13.1663C85.662 13.722 85.2482 14.2618 84.7618 14.7963C84.2753 15.3254 83.7218 15.8388 83.0955 16.3256C82.9166 16.4738 82.7097 16.5849 82.4693 16.6537C82.2288 16.7278 81.994 16.7701 81.7535 16.786C81.5019 16.8019 81.2391 16.7543 80.9707 16.6378V16.6431ZM82.6705 25.7453C82.2512 25.7453 81.9269 25.6976 81.6864 25.613C81.446 25.523 81.2671 25.4013 81.1385 25.2478C81.0099 25.0944 80.9316 24.9144 80.9036 24.7081C80.8757 24.5017 80.8589 24.2794 80.8589 24.036V20.0194C80.8589 19.2044 81.0434 18.6435 81.4069 18.3419C81.7703 18.0402 82.1953 17.8867 82.6705 17.8867C82.911 17.8867 83.1346 17.9185 83.3527 17.9873C83.5708 18.0508 83.7609 18.1672 83.923 18.3313C84.0852 18.4953 84.2194 18.7123 84.3256 18.9928C84.4319 19.2732 84.4822 19.6119 84.4822 20.0194V22.369H95.6877C96.107 22.369 96.4481 22.4166 96.7165 22.5172C96.9849 22.6177 97.1918 22.7395 97.3427 22.8982C97.4937 23.0517 97.5944 23.2316 97.6447 23.438C97.695 23.6444 97.723 23.8402 97.723 24.036C97.723 24.2794 97.695 24.507 97.6447 24.7081C97.5944 24.9144 97.4937 25.0891 97.3427 25.2478C97.1918 25.4013 96.9849 25.523 96.7165 25.613C96.4481 25.7029 96.107 25.7453 95.6877 25.7453H82.6705ZM94.6253 18.453C94.4072 18.3895 94.2171 18.2731 94.0437 18.109C93.8704 17.945 93.7362 17.728 93.6411 17.4475C93.5461 17.1723 93.4958 16.8178 93.4958 16.3944V6.60433C93.4958 5.78937 93.6803 5.22843 94.0437 4.92679C94.4072 4.62515 94.8321 4.47168 95.3074 4.47168C95.5479 4.47168 95.7715 4.50343 95.9896 4.56693C96.2077 4.63044 96.3978 4.74686 96.5599 4.91091C96.7221 5.07496 96.8563 5.29722 96.9625 5.5724C97.0688 5.84758 97.1191 6.19156 97.1191 6.59904V9.53607H98.7518C99.1712 9.53607 99.5123 9.58898 99.7807 9.69482C100.049 9.80066 100.256 9.93825 100.407 10.097C100.558 10.2611 100.659 10.4463 100.709 10.6474C100.759 10.8485 100.787 11.0496 100.787 11.2454C100.787 11.4888 100.759 11.7163 100.709 11.928C100.659 12.1397 100.558 12.3249 100.407 12.4784C100.256 12.6318 100.049 12.7589 99.7807 12.8594C99.5123 12.9599 99.1712 13.0076 98.7518 13.0076H97.1191V16.3838C97.1191 16.8072 97.0688 17.1565 96.9625 17.4369C96.8563 17.7174 96.7221 17.9344 96.5599 18.0984C96.3978 18.2625 96.2077 18.3789 95.9896 18.4424C95.7715 18.5059 95.5479 18.5429 95.3074 18.5429C95.067 18.5429 94.8433 18.5112 94.6253 18.4424V18.453Z" fill="#4DB960"/>
<path d="M102.084 16.6168C101.816 16.5003 101.592 16.2834 101.414 15.9553C101.117 15.4314 101.028 14.9974 101.156 14.6482C101.285 14.2989 101.592 13.9443 102.084 13.5845C102.442 13.3252 102.75 13.087 103.013 12.8754C103.275 12.6637 103.488 12.4467 103.65 12.2245C103.812 12.0022 103.958 11.7376 104.075 11.4307C104.148 11.2031 104.209 10.9226 104.254 10.5998H103.024C102.605 10.5998 102.28 10.5628 102.04 10.4887C101.799 10.4146 101.62 10.3194 101.492 10.1924C101.363 10.0706 101.285 9.92776 101.257 9.76371C101.229 9.59966 101.212 9.43032 101.212 9.25039C101.212 9.03872 101.229 8.84821 101.257 8.67357C101.285 8.50423 101.363 8.35606 101.492 8.23434C101.62 8.11263 101.799 8.01737 102.04 7.95387C102.28 7.89037 102.605 7.85861 103.024 7.85861H109.286C109.706 7.85861 110.03 7.89037 110.271 7.95387C110.511 8.01737 110.69 8.11263 110.818 8.23434C110.947 8.35606 111.025 8.50423 111.053 8.67357C111.081 8.84291 111.098 9.03872 111.098 9.25039C111.098 9.43032 111.081 9.59966 111.053 9.76371C111.025 9.92776 110.947 10.0706 110.818 10.1924C110.69 10.3141 110.511 10.4146 110.271 10.4887C110.03 10.5628 109.706 10.5998 109.286 10.5998H108.19C108.252 10.9121 108.319 11.1608 108.392 11.3566C108.509 11.6371 108.655 11.8752 108.828 12.0763C109.001 12.2827 109.208 12.4891 109.454 12.7007C109.7 12.9124 109.997 13.1506 110.338 13.4099C110.813 13.7856 111.098 14.1666 111.188 14.5476C111.277 14.9339 111.215 15.3414 111.009 15.7859C110.874 16.0611 110.684 16.2569 110.438 16.3733C110.192 16.4898 109.935 16.5533 109.667 16.5691C109.504 16.5691 109.326 16.548 109.141 16.5056C108.956 16.4633 108.789 16.3786 108.638 16.2463C108.207 15.8389 107.805 15.4367 107.441 15.0451C107.078 14.6535 106.742 14.2619 106.446 13.8703C105.881 14.6852 105.132 15.4949 104.209 16.294C104.03 16.4421 103.823 16.5533 103.583 16.6221C103.343 16.6962 103.108 16.7385 102.867 16.7544C102.616 16.7702 102.353 16.7226 102.084 16.6062V16.6168ZM104.232 6.82669C103.874 6.82669 103.589 6.78964 103.371 6.71556C103.152 6.64147 102.985 6.54621 102.856 6.41921C102.728 6.29749 102.644 6.1599 102.599 6.00114C102.554 5.84239 102.532 5.69421 102.532 5.54604C102.532 5.20206 102.638 4.90042 102.856 4.64112C103.074 4.38181 103.533 4.24951 104.232 4.24951H108.079C108.778 4.24951 109.236 4.38181 109.454 4.64112C109.672 4.90042 109.778 5.20206 109.778 5.54604C109.778 5.69421 109.756 5.84239 109.711 6.00114C109.667 6.1599 109.583 6.29749 109.454 6.41921C109.326 6.54092 109.158 6.64147 108.94 6.71556C108.722 6.78964 108.436 6.82669 108.079 6.82669H104.232ZM116.678 25.2956C116.315 24.9939 116.13 24.433 116.13 23.618V21.1467H104.701C104.282 21.1467 103.941 21.099 103.672 20.9985C103.404 20.898 103.197 20.7762 103.046 20.6175C102.895 20.464 102.795 20.2841 102.744 20.0777C102.694 19.8713 102.666 19.6755 102.666 19.4797C102.666 19.2363 102.694 19.0087 102.744 18.8076C102.795 18.6013 102.895 18.4266 103.046 18.2679C103.197 18.1144 103.404 17.9927 103.672 17.9027C103.941 17.8128 104.282 17.7704 104.701 17.7704H117.942C118.361 17.7704 118.686 17.818 118.926 17.9027C119.167 17.9927 119.346 18.1144 119.474 18.2679C119.603 18.4213 119.681 18.6013 119.709 18.8076C119.737 19.014 119.754 19.2363 119.754 19.4797V23.618C119.754 24.0255 119.703 24.3695 119.597 24.6446C119.491 24.9198 119.357 25.1421 119.195 25.3061C119.032 25.4702 118.842 25.5813 118.624 25.6501C118.406 25.7136 118.183 25.7454 117.942 25.7454C117.467 25.7454 117.042 25.5919 116.678 25.2903V25.2956ZM112.362 16.4951C112.071 16.1987 111.926 15.6325 111.926 14.7805V6.60442C111.926 5.78947 112.065 5.22852 112.351 4.92688C112.636 4.62524 113.016 4.47177 113.491 4.47177C113.967 4.47177 114.33 4.62524 114.621 4.92688C114.911 5.22852 115.057 5.78947 115.057 6.60442V9.07576H116.869V6.60442C116.869 5.78947 117.008 5.22852 117.293 4.92688C117.579 4.62524 117.959 4.47177 118.434 4.47177C118.909 4.47177 119.273 4.62524 119.564 4.92688C119.854 5.22852 120 5.78947 120 6.60442V14.7805C120 15.6272 119.86 16.1987 119.586 16.4951C119.312 16.7914 118.932 16.9343 118.457 16.9343C117.981 16.9343 117.595 16.7861 117.305 16.4951C117.014 16.1987 116.869 15.6325 116.869 14.7805V12.5526H115.057V14.7805C115.057 15.6272 114.917 16.1987 114.643 16.4951C114.369 16.7914 113.989 16.9343 113.514 16.9343C113.038 16.9343 112.653 16.7861 112.362 16.4951Z" fill="#4DB960"/>
<defs>
<linearGradient id="paint0_linear_724_5231" x1="15.852" y1="30" x2="15.852" y2="0" gradientUnits="userSpaceOnUse">
<stop stop-color="#208F45"/>
<stop offset="0.17" stop-color="#33A150"/>
<stop offset="0.37" stop-color="#41AE59"/>
<stop offset="0.61" stop-color="#4AB65E"/>
<stop offset="1" stop-color="#4DB960"/>
</linearGradient>
</defs>
</svg>
