<svg width="296" height="57" viewBox="0 0 296 57" fill="none" xmlns="http://www.w3.org/2000/svg">
<path d="M44.02 0H12.67C5.67255 0 0 5.67255 0 12.67V44.02C0 51.0174 5.67255 56.69 12.67 56.69H44.02C51.0174 56.69 56.69 51.0174 56.69 44.02V12.67C56.69 5.67255 51.0174 0 44.02 0Z" fill="url(#paint0_linear_5_5066)"/>
<path d="M50.1599 22.8501C49.3299 19.3901 46.5799 15.0901 41.5199 13.8901C34.5399 12.2301 31.7899 15.4601 31.2599 15.4301C30.7299 15.4001 28.3799 8.85008 20.7999 9.16008C7.77992 9.69008 6.07992 21.8201 6.30992 26.5901C6.59992 32.8201 8.98992 39.1101 15.1999 43.4201C20.9399 47.4001 25.2099 47.7801 29.8099 47.4601C34.6499 47.1301 42.7599 44.6301 44.4899 38.9101C46.1999 33.2701 42.7099 28.5501 38.7499 27.2601C36.2499 26.4501 33.5099 27.9901 33.0199 29.8301C32.2099 32.8701 33.3199 33.9701 34.8399 36.8001C36.4399 39.7801 34.2599 43.0801 31.8399 44.1301C29.5099 45.1401 25.7899 44.2901 22.0399 42.1401C18.2899 39.9901 13.6399 34.6401 14.1699 27.1401C14.6099 20.8101 18.9699 18.1201 20.3899 17.5501C21.0299 17.2901 26.6699 15.1901 29.6799 19.4901C31.0999 21.5201 30.1599 21.5201 31.1799 20.4501C32.7699 18.5701 34.9699 16.9701 39.9299 17.6501C43.7999 18.1901 46.8899 20.8301 48.0399 23.6601C49.6099 27.5201 49.1999 29.2201 49.8399 28.4501C50.2399 27.9701 50.6699 25.0201 50.1399 22.8501H50.1599Z" fill="white"/>
<path d="M36.8795 25.7205C37.9288 25.7205 38.7795 24.7803 38.7795 23.6205C38.7795 22.4607 37.9288 21.5205 36.8795 21.5205C35.8302 21.5205 34.9795 22.4607 34.9795 23.6205C34.9795 24.7803 35.8302 25.7205 36.8795 25.7205Z" fill="white"/>
<path d="M39.6702 24.6301C39.3202 25.4601 39.6502 26.4001 40.4002 26.7301C41.1502 27.0601 42.0302 26.6701 42.3802 25.8401C42.7302 25.0101 42.4002 24.0701 41.6502 23.7401C40.9002 23.4101 40.0202 23.8001 39.6702 24.6301Z" fill="white"/>
<path d="M44.8497 26.4398C44.2997 26.0398 43.5297 26.1998 43.1097 26.7998C42.6897 27.3998 42.7997 28.2198 43.3397 28.6198C43.8897 29.0198 44.6597 28.8598 45.0797 28.2598C45.4997 27.6598 45.3897 26.8398 44.8497 26.4398Z" fill="white"/>
<path d="M46.81 29.3798C46.41 28.8898 45.68 28.8498 45.18 29.2898C44.67 29.7298 44.59 30.4798 44.98 30.9598C45.38 31.4498 46.11 31.4898 46.61 31.0498C47.11 30.6098 47.2 29.8598 46.81 29.3798Z" fill="white"/>
<path d="M46.4995 32.2804C45.9795 32.5904 45.7895 33.2504 46.0695 33.7504C46.3495 34.2504 46.9995 34.4104 47.5195 34.1004C48.0395 33.7904 48.2295 33.1304 47.9495 32.6304C47.6695 32.1304 47.0195 31.9704 46.4995 32.2804Z" fill="white"/>
<path opacity="0.96" d="M94.6694 22.57C93.6394 24.35 92.5895 26.3 91.5195 28.4C90.4495 30.51 89.4294 32.43 88.4594 34.18C88.0394 34.87 87.5794 35.33 87.0994 35.57C86.6194 35.81 86.0895 35.93 85.5095 35.93C85.0295 35.93 84.5095 35.8 83.9695 35.55C83.4295 35.3 82.9895 34.82 82.6495 34.13L76.5294 22.3V44.92C76.5294 46.41 76.1295 47.48 75.3295 48.14C74.5295 48.8 73.6295 49.12 72.6295 49.12C72.1195 49.12 71.6195 49.04 71.1595 48.87C70.6895 48.71 70.2795 48.45 69.9095 48.11C69.5495 47.76 69.2494 47.33 69.0294 46.8C68.7994 46.27 68.6895 45.65 68.6895 44.92V11.88C68.6895 10.54 69.0895 9.52004 69.8895 8.83004C70.6895 8.14004 71.6095 7.79004 72.6295 7.79004C73.2695 7.79004 73.8394 7.84004 74.3494 7.93004C74.8594 8.02004 75.3295 8.20004 75.7595 8.47004C76.1895 8.74004 76.5895 9.12004 76.9795 9.59004C77.3695 10.06 77.7695 10.66 78.1595 11.39L85.5095 25.23L93.1295 11.39C93.8895 10.05 94.6494 9.11004 95.4194 8.58004C96.1894 8.05004 97.2395 7.79004 98.5695 7.79004C99.6595 7.79004 100.579 8.14004 101.339 8.83004C102.099 9.52004 102.469 10.54 102.469 11.88V44.91C102.469 45.64 102.359 46.26 102.129 46.79C101.899 47.32 101.609 47.75 101.249 48.1C100.889 48.44 100.469 48.7 99.9995 48.86C99.5295 49.03 99.0494 49.11 98.5695 49.11C98.0895 49.11 97.6094 49.03 97.1395 48.86C96.6695 48.7 96.2595 48.44 95.8895 48.1C95.5294 47.75 95.2295 47.32 95.0095 46.79C94.7795 46.26 94.6694 45.64 94.6694 44.91V22.56V22.57Z" fill="#4DB960"/>
<path opacity="0.96" d="M107.999 15.3196C107.999 13.8696 108.419 12.7196 109.269 11.8896C110.119 11.0496 111.189 10.6396 112.489 10.6396C113.789 10.6396 114.869 11.0596 115.729 11.8896C116.589 12.7296 117.019 13.8696 117.019 15.3196C117.019 16.7696 116.589 17.9096 115.729 18.7296C114.869 19.5496 113.789 19.9596 112.489 19.9596C111.189 19.9596 110.119 19.5496 109.269 18.7296C108.419 17.9096 107.999 16.7796 107.999 15.3196ZM108.779 44.9697V25.8896C108.779 24.5796 109.149 23.5796 109.889 22.8896C110.629 22.1996 111.529 21.8496 112.589 21.8496C113.649 21.8496 114.559 22.1996 115.309 22.8896C116.069 23.5796 116.439 24.5796 116.439 25.8896V44.9697C116.439 46.3097 116.059 47.3396 115.309 48.0496C114.559 48.7596 113.649 49.1096 112.589 49.1096C111.529 49.1096 110.629 48.7496 109.889 48.0496C109.149 47.3396 108.779 46.3097 108.779 44.9697Z" fill="#4DB960"/>
<path opacity="0.96" d="M123.289 22.8901C124.049 22.2001 124.949 21.8501 126.009 21.8501C126.739 21.8501 127.339 21.9801 127.819 22.2301C128.299 22.4801 128.759 23.0101 129.179 23.8101C129.869 23.0801 130.759 22.5301 131.829 22.1501C132.899 21.7701 134.059 21.5801 135.299 21.5801C137.539 21.5801 139.559 22.0401 141.349 22.9401C143.149 23.8501 144.579 25.1801 145.639 26.9201C146.699 28.6601 147.229 30.7401 147.229 33.1401V44.4801C147.229 46.0401 146.929 47.2101 146.349 47.9701C145.759 48.7301 144.739 49.1101 143.289 49.1101C142.139 49.1101 141.229 48.7901 140.549 48.1501C139.869 47.5101 139.529 46.6101 139.529 45.4501V32.8601C139.529 31.4401 139.079 30.3101 138.169 29.4501C137.259 28.6001 136.129 28.1701 134.769 28.1701C133.409 28.1701 132.239 28.5701 131.369 29.3701C130.489 30.1701 129.989 31.3001 129.869 32.7501C129.839 32.9001 129.819 33.1301 129.819 33.4601V44.4701C129.819 46.0301 129.509 47.2001 128.889 47.9601C128.269 48.7201 127.249 49.1001 125.829 49.1001C124.709 49.1001 123.819 48.7801 123.149 48.1401C122.479 47.5001 122.149 46.6001 122.149 45.4401V25.8701C122.149 24.5601 122.529 23.5601 123.279 22.8701L123.289 22.8901Z" fill="#4DB960"/>
<path opacity="0.96" d="M169.73 22.7298V11.0698C169.73 9.75984 170.09 8.76984 170.82 8.09984C171.55 7.42984 172.44 7.08984 173.5 7.08984C174.56 7.08984 175.51 7.42984 176.27 8.09984C177.03 8.76984 177.4 9.75984 177.4 11.0698V45.4698C177.4 46.6298 177.06 47.5298 176.38 48.1698C175.7 48.8098 174.78 49.1298 173.64 49.1298C172.76 49.1298 172.04 48.9698 171.46 48.6698C170.89 48.3598 170.42 47.8398 170.05 47.1198C168.51 48.6798 166.71 49.4598 164.65 49.4598C162.2 49.4598 160.05 48.9998 158.19 48.0698C156.33 47.1398 154.87 45.8298 153.81 44.1198C152.75 42.4098 152.21 40.4298 152.18 38.1798C152.15 37.4198 152.13 36.3598 152.13 35.0198C152.13 34.0798 152.14 33.3698 152.18 32.8898C152.39 29.2898 153.64 26.5098 155.92 24.5498C158.2 22.5898 161.11 21.6098 164.65 21.6098C166.34 21.6098 168.04 21.9898 169.73 22.7498V22.7298ZM161.36 41.6998C162.22 42.5398 163.32 42.9498 164.65 42.9498C166.07 42.9498 167.23 42.5298 168.12 41.6998C169.01 40.8698 169.52 39.6998 169.64 38.2098C169.73 37.2298 169.78 36.2998 169.78 35.4298C169.78 34.5598 169.73 33.6298 169.64 32.7598C169.49 31.3098 168.97 30.1798 168.1 29.3798C167.22 28.5798 166.07 28.1798 164.65 28.1798C161.78 28.1798 160.17 29.5398 159.84 32.2698C159.75 33.3998 159.7 34.4698 159.7 35.4898C159.7 36.4298 159.75 37.3398 159.84 38.2198C159.99 39.7098 160.5 40.8698 161.36 41.7098V41.6998Z" fill="#4DB960"/>
<path opacity="0.96" d="M214.589 49.39C211.959 49.39 210.309 48.15 209.649 45.68L204.389 25.29L199.169 45.68C198.559 48.15 196.899 49.39 194.179 49.39C192.669 49.39 191.529 49.05 190.759 48.38C189.989 47.71 189.439 46.77 189.099 45.57L181.209 13.03C181.119 12.63 181.069 12.23 181.069 11.83C181.069 10.96 181.299 10.16 181.749 9.43004C182.199 8.70004 182.879 8.23004 183.789 8.01004C184.449 7.86004 184.939 7.79004 185.239 7.79004C186.959 7.79004 188.069 8.70004 188.549 10.52L194.169 37.61L200.659 10.3C200.779 9.68004 201.179 9.12004 201.859 8.61004C202.539 8.10004 203.439 7.85004 204.559 7.85004C205.559 7.85004 206.369 8.11004 206.989 8.64004C207.609 9.17004 207.989 9.74004 208.149 10.36L214.549 37.62L220.219 10.58C220.429 9.64004 220.819 8.94004 221.399 8.48004C221.969 8.03004 222.689 7.80004 223.529 7.80004C224.189 7.80004 224.779 7.89004 225.299 8.07004C226.179 8.36004 226.819 8.83004 227.229 9.49004C227.639 10.14 227.839 10.89 227.839 11.72C227.839 12.19 227.779 12.63 227.659 13.03L219.679 45.57C218.949 48.11 217.259 49.39 214.599 49.39H214.589Z" fill="#4DB960"/>
<path opacity="0.96" d="M238.399 49.4397C235.009 49.4397 232.529 48.6897 230.939 47.1797C229.349 45.6697 228.529 43.8097 228.469 41.5897C228.289 38.4297 229.259 36.0597 231.399 34.4797C233.539 32.8997 236.709 32.1097 240.949 32.1097H244.759C244.699 30.9497 244.189 29.9397 243.239 29.0797C242.289 28.2297 240.989 27.7997 239.359 27.7997C237.549 27.7997 235.989 28.1297 234.689 28.7797C233.929 29.1397 233.269 29.3197 232.689 29.3197C231.689 29.3197 230.979 28.7797 230.559 27.6897C230.379 27.1397 230.289 26.6397 230.289 26.1597C230.289 24.9197 230.819 23.9997 231.879 23.3797C232.819 22.7997 233.989 22.3397 235.399 21.9897C236.809 21.6497 238.189 21.4697 239.549 21.4697C242.419 21.4697 244.829 21.9897 246.759 23.0197C248.689 24.0597 250.119 25.4197 251.049 27.1097C251.969 28.7997 252.429 30.6597 252.429 32.6997V45.3997C252.429 46.5597 252.099 47.4597 251.429 48.0997C250.759 48.7297 249.859 49.0497 248.709 49.0497C247.139 49.0497 246.049 48.5797 245.439 47.6297C243.779 48.8297 241.429 49.4297 238.409 49.4297L238.399 49.4397ZM236.859 42.6297C237.399 43.0997 238.159 43.3397 239.129 43.3397C240.609 43.3397 241.929 42.9197 243.079 42.0897C244.229 41.2497 244.799 40.2597 244.799 39.0897V37.9997H240.809C238.999 37.9997 237.749 38.2197 237.069 38.6497C236.389 39.0897 236.049 39.7797 236.049 40.7197C236.049 41.5197 236.319 42.1597 236.869 42.6297H236.859Z" fill="#4DB960"/>
<path opacity="0.96" d="M258.899 44.9698V11.1798C258.899 9.83984 259.269 8.81984 260.009 8.12984C260.749 7.43984 261.649 7.08984 262.709 7.08984C263.769 7.08984 264.679 7.43984 265.429 8.12984C266.189 8.81984 266.559 9.83984 266.559 11.1798V44.9798C266.559 46.3198 266.179 47.3498 265.429 48.0598C264.679 48.7698 263.769 49.1198 262.709 49.1198C261.649 49.1198 260.749 48.7598 260.009 48.0598C259.269 47.3498 258.899 46.3198 258.899 44.9798V44.9698Z" fill="#4DB960"/>
<path opacity="0.96" d="M278.809 48.0798C278.079 48.7698 277.179 49.1198 276.089 49.1198C274.999 49.1198 274.129 48.7598 273.389 48.0598C272.649 47.3498 272.279 46.3198 272.279 44.9798V11.1798C272.279 9.83984 272.649 8.81984 273.389 8.12984C274.129 7.43984 275.029 7.08984 276.089 7.08984C277.149 7.08984 278.089 7.43984 278.809 8.12984C279.539 8.81984 279.899 9.83984 279.899 11.1798V30.6898L288.829 22.1298C289.469 21.5098 290.189 21.1998 291.009 21.1998C291.889 21.1998 292.669 21.5598 293.369 22.2898C294.029 22.9398 294.369 23.7798 294.369 24.7998C294.369 25.3798 294.259 25.9398 294.029 26.4598C293.799 26.9898 293.479 27.4498 293.049 27.8498L286.069 34.6598L294.369 42.9998C295.099 43.7598 295.459 44.6698 295.459 45.7298C295.459 46.2398 295.369 46.7398 295.189 47.2298C295.009 47.7198 294.769 48.1498 294.459 48.5098C293.789 49.2398 293.019 49.5998 292.149 49.5998C291.279 49.5998 290.499 49.2398 289.749 48.5098L279.909 38.5398V44.9698C279.909 46.3498 279.549 47.3898 278.819 48.0798H278.809Z" fill="#4DB960"/>
<defs>
<linearGradient id="paint0_linear_5_5066" x1="28.35" y1="56.69" x2="28.35" y2="0" gradientUnits="userSpaceOnUse">
<stop stop-color="#208F45"/>
<stop offset="0.17" stop-color="#33A150"/>
<stop offset="0.37" stop-color="#41AE59"/>
<stop offset="0.61" stop-color="#4AB65E"/>
<stop offset="1" stop-color="#4DB960"/>
</linearGradient>
</defs>
</svg>
