<svg width="24" height="24" viewBox="0 0 24 24" fill="none" xmlns="http://www.w3.org/2000/svg">
<circle cx="12" cy="12" r="11.5" fill="white" stroke="#00711E"/>
<path d="M18 10.1626H17.9962C17.9943 10.0754 17.9543 9.98813 17.8628 9.92582L12.1934 6.05875C12.0772 5.98042 11.9209 5.98042 11.8047 6.05875L6.1353 9.92582C6.04383 9.98813 6.00381 10.0754 6.00191 10.1626H6V10.1697C6 10.1697 6 10.1804 6 10.1875V17.295C6 17.6849 6.33921 18 6.75465 18H10.2134C10.6308 18 10.9681 17.6831 10.9681 17.295V14.3769H13.0281V17.295C13.0281 17.6849 13.3673 18 13.7828 18H17.2415C17.6589 18 17.9962 17.6831 17.9962 17.295V14.3769V10.1644L18 10.1626Z" fill="#4DB960"/>
</svg>
