<svg width="24" height="24" viewBox="0 0 24 24" fill="none" xmlns="http://www.w3.org/2000/svg">
<path d="M8.4 16.8H15.6C15.94 16.8 16.225 16.685 16.455 16.455C16.685 16.225 16.8 15.94 16.8 15.6V8.4C16.8 8.06 16.685 7.775 16.455 7.545C16.225 7.315 15.94 7.2 15.6 7.2H8.4C8.06 7.2 7.775 7.315 7.545 7.545C7.315 7.775 7.2 8.06 7.2 8.4V15.6C7.2 15.94 7.315 16.225 7.545 16.455C7.775 16.685 8.06 16.8 8.4 16.8ZM12 24C10.34 24 8.78 23.685 7.32 23.055C5.86 22.425 4.59 21.57 3.51 20.49C2.43 19.41 1.575 18.14 0.945 16.68C0.315 15.22 0 13.66 0 12C0 10.34 0.315 8.78 0.945 7.32C1.575 5.86 2.43 4.59 3.51 3.51C4.59 2.43 5.86 1.575 7.32 0.945C8.78 0.315 10.34 0 12 0C13.66 0 15.22 0.315 16.68 0.945C18.14 1.575 19.41 2.43 20.49 3.51C21.57 4.59 22.425 5.86 23.055 7.32C23.685 8.78 24 10.34 24 12C24 13.66 23.685 15.22 23.055 16.68C22.425 18.14 21.57 19.41 20.49 20.49C19.41 21.57 18.14 22.425 16.68 23.055C15.22 23.685 13.66 24 12 24Z" fill="white"/>
</svg>
