<svg width="24" height="24" viewBox="0 0 24 24" fill="none" xmlns="http://www.w3.org/2000/svg">
<path d="M14.625 21.925C14.7917 21.9917 14.9542 22.0125 15.1125 21.9875C15.2708 21.9625 15.4167 21.9083 15.55 21.825C15.6833 21.7417 15.7917 21.6292 15.875 21.4875C15.9583 21.3458 16 21.1833 16 21V18C16 17.7167 15.9042 17.4792 15.7125 17.2875C15.5208 17.0958 15.2833 17 15 17H9.375C8.99167 17 8.67917 17.1167 8.4375 17.35C8.19583 17.5833 8.05 17.85 8 18.15C7.95 18.45 7.99583 18.7417 8.1375 19.025C8.27917 19.3083 8.53333 19.5167 8.9 19.65L14.625 21.925ZM19.225 11C19.7083 11 20.125 11.1625 20.475 11.4875C20.825 11.8125 21 12.2167 21 12.7C21 13.0833 20.8917 13.4333 20.675 13.75C20.4583 14.0667 20.1667 14.2917 19.8 14.425L18 15H9.375C8.425 15 7.625 15.325 6.975 15.975C6.325 16.625 6 17.425 6 18.375C6 18.675 6.04167 18.9625 6.125 19.2375C6.20833 19.5125 6.31667 19.7667 6.45 20H4C3.71667 20 3.47917 19.9042 3.2875 19.7125C3.09583 19.5208 3 19.2833 3 19V16C3 14.6167 3.4875 13.4375 4.4625 12.4625C5.4375 11.4875 6.61667 11 8 11H19.225ZM10 2C11.1 2 12.0417 2.39167 12.825 3.175C13.6083 3.95833 14 4.9 14 6C14 7.1 13.6083 8.04167 12.825 8.825C12.0417 9.60833 11.1 10 10 10C8.9 10 7.95833 9.60833 7.175 8.825C6.39167 8.04167 6 7.1 6 6C6 4.9 6.39167 3.95833 7.175 3.175C7.95833 2.39167 8.9 2 10 2Z" fill="#00711E"/>
</svg>
