<svg width="20" height="20" viewBox="0 0 20 20" fill="none" xmlns="http://www.w3.org/2000/svg">
<mask id="mask0_262_10335" style="mask-type:luminance" maskUnits="userSpaceOnUse" x="0" y="0" width="20" height="20">
<path d="M0 0H20V20H0V0Z" fill="white"/>
</mask>
<g mask="url(#mask0_262_10335)">
<path d="M10 0C9.83644 0 9.67287 0.00410108 9.50931 0.0120621C9.34575 0.0202644 9.18267 0.0323265 9.01983 0.0482486C8.85699 0.0644119 8.69463 0.084435 8.53276 0.108318C8.37089 0.132442 8.20974 0.160427 8.04907 0.192271C7.88864 0.224115 7.72894 0.26006 7.5702 0.299865C7.41146 0.33967 7.25369 0.383094 7.09712 0.430619C6.94056 0.478143 6.7852 0.529528 6.63104 0.584773C6.47713 0.639776 6.32442 0.698639 6.17316 0.761363C6.0219 0.823844 5.87233 0.890186 5.72445 0.960147C5.57657 1.03011 5.43038 1.10369 5.28611 1.18088C5.14185 1.25808 4.99952 1.33866 4.85911 1.42285C4.71871 1.50704 4.58048 1.59437 4.44442 1.68532C4.30836 1.77627 4.17447 1.8706 4.04299 1.96806C3.91151 2.06552 3.78269 2.16612 3.65604 2.2701C3.52962 2.37383 3.40563 2.4807 3.28452 2.59047C3.16318 2.70047 3.04473 2.81337 2.92893 2.92893C2.81337 3.04473 2.70047 3.16318 2.59047 3.28452C2.4807 3.40587 2.37383 3.52962 2.2701 3.65604C2.16612 3.78269 2.06552 3.91151 1.96806 4.04299C1.8706 4.17447 1.77627 4.30836 1.68532 4.44442C1.59437 4.58048 1.50704 4.71871 1.42285 4.85911C1.33866 4.99952 1.25808 5.14185 1.18088 5.28611C1.10369 5.43038 1.03011 5.57657 0.960147 5.72445C0.890186 5.87233 0.823844 6.0219 0.761363 6.17316C0.698639 6.32442 0.639776 6.47713 0.584773 6.63104C0.529528 6.7852 0.478143 6.94056 0.430619 7.09712C0.383094 7.25369 0.33967 7.41146 0.299865 7.5702C0.26006 7.72894 0.224115 7.88864 0.192271 8.04907C0.160427 8.20974 0.132442 8.37089 0.108318 8.53276C0.084435 8.69463 0.0644119 8.85699 0.0482486 9.01983C0.0323265 9.18267 0.0202644 9.34599 0.0120621 9.50931C0.00410108 9.67287 0 9.83644 0 10C0 10.1636 0.00410108 10.3271 0.0120621 10.4907C0.0202644 10.6543 0.0323265 10.8173 0.0482486 10.9802C0.0644119 11.143 0.084435 11.3054 0.108318 11.4672C0.132442 11.6291 0.160427 11.7903 0.192271 11.9509C0.224115 12.1114 0.26006 12.2711 0.299865 12.4298C0.33967 12.5885 0.383094 12.7463 0.430619 12.9029C0.478143 13.0594 0.529528 13.2148 0.584773 13.369C0.639776 13.5229 0.698639 13.6756 0.761363 13.8268C0.823844 13.9781 0.890186 14.1277 0.960147 14.2755C1.03011 14.4234 1.10369 14.5696 1.18088 14.7139C1.25808 14.8581 1.33866 15.0005 1.42285 15.1409C1.50704 15.2813 1.59437 15.4195 1.68532 15.5556C1.77627 15.6916 1.8706 15.8255 1.96806 15.957C2.06552 16.0885 2.16612 16.2173 2.2701 16.344C2.37383 16.4704 2.4807 16.5944 2.59047 16.7155C2.70047 16.8368 2.81337 16.9553 2.92893 17.0711C3.04473 17.1866 3.16318 17.2995 3.28452 17.4095C3.40563 17.5193 3.52962 17.6262 3.65604 17.7299C3.78269 17.8339 3.91151 17.9345 4.04299 18.0319C4.17447 18.1294 4.30836 18.2237 4.44442 18.3147C4.58048 18.4056 4.71871 18.493 4.85911 18.5772C4.99952 18.6613 5.14185 18.7419 5.28611 18.8191C5.43038 18.8963 5.57657 18.9699 5.72445 19.0399C5.87233 19.1098 6.0219 19.1762 6.17316 19.2386C6.32442 19.3014 6.47713 19.3602 6.63104 19.4152C6.7852 19.4705 6.94056 19.5219 7.09712 19.5694C7.25369 19.6169 7.41146 19.6603 7.5702 19.7001C7.72894 19.7399 7.88864 19.7759 8.04907 19.8077C8.20974 19.8396 8.37089 19.8676 8.53276 19.8917C8.69463 19.9156 8.85699 19.9356 9.01983 19.9518C9.18267 19.9677 9.34575 19.9797 9.50931 19.9879C9.67287 19.9959 9.83644 20 10 20C10.1636 20 10.3271 19.9959 10.4907 19.9879C10.654 19.9797 10.8173 19.9677 10.9802 19.9518C11.143 19.9356 11.3054 19.9156 11.4672 19.8917C11.6291 19.8676 11.7903 19.8396 11.9509 19.8077C12.1114 19.7759 12.2711 19.7399 12.4298 19.7001C12.5885 19.6603 12.7463 19.6169 12.9029 19.5694C13.0594 19.5219 13.2148 19.4705 13.369 19.4152C13.5229 19.3602 13.6756 19.3014 13.8268 19.2386C13.9781 19.1762 14.1277 19.1098 14.2755 19.0399C14.4234 18.9699 14.5696 18.8963 14.7139 18.8191C14.8581 18.7419 15.0005 18.6613 15.1409 18.5772C15.2813 18.493 15.4195 18.4056 15.5556 18.3147C15.6916 18.2237 15.8255 18.1294 15.957 18.0319C16.0885 17.9345 16.2173 17.8339 16.344 17.7299C16.4704 17.6262 16.5941 17.5193 16.7155 17.4095C16.8368 17.2995 16.9553 17.1866 17.0711 17.0711C17.1866 16.9553 17.2995 16.8368 17.4095 16.7155C17.5193 16.5944 17.6262 16.4704 17.7299 16.344C17.8339 16.2173 17.9345 16.0885 18.0319 15.957C18.1294 15.8255 18.2237 15.6916 18.3147 15.5556C18.4056 15.4195 18.493 15.2813 18.5772 15.1409C18.6613 15.0005 18.7419 14.8581 18.8191 14.7139C18.8963 14.5696 18.9699 14.4234 19.0399 14.2755C19.1098 14.1277 19.1762 13.9781 19.2386 13.8268C19.3014 13.6756 19.3602 13.5229 19.4152 13.369C19.4705 13.2148 19.5219 13.0594 19.5694 12.9029C19.6169 12.7463 19.6603 12.5885 19.7001 12.4298C19.7399 12.2711 19.7759 12.1114 19.8077 11.9509C19.8396 11.7903 19.8676 11.6291 19.8917 11.4672C19.9156 11.3054 19.9356 11.143 19.9518 10.9802C19.9677 10.8173 19.9797 10.6543 19.9879 10.4907C19.9959 10.3271 20 10.1636 20 10C19.9998 9.83644 19.9954 9.67287 19.9872 9.50955C19.979 9.34599 19.9669 9.18291 19.9508 9.02031C19.9346 8.85747 19.9144 8.69512 19.8902 8.53324C19.8661 8.37137 19.8379 8.21046 19.8058 8.04979C19.7737 7.88937 19.7378 7.7299 19.698 7.57117C19.6582 7.41267 19.6143 7.2549 19.5667 7.09833C19.5192 6.94201 19.4678 6.78664 19.4126 6.63273C19.3573 6.47858 19.2985 6.32611 19.2357 6.17485C19.173 6.02383 19.1067 5.87426 19.0365 5.72638C18.9665 5.57874 18.8929 5.43255 18.8157 5.28829C18.7385 5.14402 18.658 5.00169 18.5738 4.86153C18.4896 4.72112 18.402 4.58313 18.3111 4.44707C18.2201 4.31101 18.126 4.17736 18.0286 4.04588C17.9311 3.91465 17.8303 3.78558 17.7265 3.65917C17.6228 3.53276 17.5159 3.409 17.4059 3.28766C17.2962 3.16655 17.1832 3.0481 17.0677 2.93231C16.9519 2.81675 16.8334 2.70385 16.7123 2.59408C16.591 2.48408 16.4672 2.37721 16.3408 2.27347C16.2144 2.16974 16.0854 2.0689 15.9541 1.97144C15.8226 1.87397 15.689 1.77989 15.5529 1.68894C15.4169 1.59799 15.2789 1.51042 15.1385 1.42623C14.9983 1.34203 14.856 1.26146 14.7117 1.18426C14.5675 1.10706 14.4213 1.03348 14.2736 0.963524C14.1257 0.893322 13.9762 0.826981 13.8251 0.764257C13.6739 0.701534 13.5214 0.642671 13.3673 0.587426C13.2134 0.532182 13.058 0.480797 12.9014 0.433272C12.7451 0.385747 12.5873 0.341841 12.4288 0.302036C12.2701 0.262231 12.1106 0.226286 11.9502 0.194201C11.7898 0.162115 11.6286 0.13389 11.4668 0.109766C11.3049 0.0856412 11.1425 0.0653768 10.9797 0.0492135C10.8171 0.0330503 10.654 0.0209882 10.4904 0.0127859C10.3271 0.00458365 10.1636 0.000241227 10 0ZM10 3.47824C10.0926 3.47824 10.1848 3.48282 10.2769 3.49199C10.3691 3.50092 10.4605 3.51467 10.5512 3.53276C10.6422 3.55061 10.7317 3.57305 10.8205 3.60007C10.909 3.62685 10.9959 3.65797 11.0815 3.69343C11.1669 3.72889 11.2506 3.76846 11.3321 3.81212C11.4139 3.85579 11.4931 3.90331 11.57 3.95469C11.647 4.00608 11.7213 4.06108 11.7929 4.11995C11.8643 4.17857 11.9328 4.24057 11.9982 4.30619C12.0638 4.37156 12.1258 4.44008 12.1845 4.51148C12.2433 4.58313 12.2983 4.65744 12.3497 4.73439C12.4011 4.81135 12.4486 4.89048 12.4923 4.97226C12.5359 5.0538 12.5755 5.13751 12.611 5.22291C12.6464 5.30831 12.6776 5.3954 12.7043 5.48393C12.7311 5.57271 12.7538 5.66221 12.7716 5.75316C12.7897 5.84387 12.8035 5.9353 12.8124 6.02745C12.8216 6.11961 12.8262 6.21176 12.8262 6.3044C12.8262 6.39704 12.8216 6.48919 12.8124 6.58135C12.8035 6.6735 12.7897 6.76493 12.7716 6.85564C12.7538 6.94659 12.7311 7.03609 12.7043 7.12487C12.6776 7.2134 12.6464 7.30025 12.611 7.38589C12.5755 7.47129 12.5359 7.555 12.4923 7.63654C12.4486 7.71833 12.4011 7.79745 12.3497 7.87441C12.2983 7.95137 12.2433 8.02567 12.1845 8.09732C12.1258 8.16873 12.0638 8.23724 11.9982 8.30262C11.9328 8.36823 11.8643 8.43023 11.7929 8.48885C11.7213 8.54772 11.647 8.60272 11.57 8.65411C11.4931 8.70549 11.4139 8.75302 11.3321 8.79668C11.2506 8.84035 11.1669 8.87991 11.0815 8.91537C10.9959 8.95084 10.909 8.98196 10.8205 9.00873C10.7317 9.03551 10.6422 9.05819 10.5512 9.07604C10.4605 9.09413 10.3691 9.10788 10.2769 9.11681C10.1848 9.12598 10.0926 9.13056 10 9.13056C9.90736 9.13056 9.81521 9.12598 9.72305 9.11681C9.6309 9.10788 9.53947 9.09413 9.44876 9.07604C9.35781 9.05819 9.26831 9.03551 9.17953 9.00873C9.091 8.98196 9.00391 8.95084 8.91851 8.91537C8.83311 8.87991 8.7494 8.84035 8.66786 8.79668C8.58608 8.75302 8.50695 8.70549 8.42999 8.65411C8.35303 8.60272 8.27873 8.54772 8.20708 8.48885C8.13568 8.43023 8.06716 8.36823 8.00179 8.30262C7.93617 8.23724 7.87417 8.16873 7.81555 8.09732C7.75668 8.02567 7.70168 7.95137 7.65029 7.87441C7.59891 7.79745 7.55138 7.71833 7.50772 7.63654C7.46406 7.555 7.42449 7.47129 7.38903 7.38589C7.35357 7.30025 7.32245 7.2134 7.29567 7.12487C7.26865 7.03609 7.24621 6.94659 7.22836 6.85564C7.21027 6.76493 7.19652 6.6735 7.18759 6.58135C7.17842 6.48919 7.17384 6.39704 7.17384 6.3044C7.17408 6.21176 7.17866 6.11961 7.18783 6.02745C7.197 5.93554 7.21075 5.84411 7.22884 5.7534C7.24694 5.66245 7.26937 5.57295 7.29639 5.48442C7.32341 5.39588 7.35453 5.30879 7.38999 5.22339C7.42546 5.13799 7.46502 5.05452 7.50869 4.97298C7.55235 4.8912 7.59987 4.81207 7.65126 4.73512C7.70264 4.65816 7.75789 4.5841 7.81651 4.51245C7.87513 4.44104 7.93737 4.37253 8.00275 4.30715C8.06813 4.24177 8.13664 4.17953 8.20805 4.12091C8.2797 4.06229 8.35376 4.00704 8.43072 3.95566C8.50767 3.90427 8.5868 3.85675 8.66858 3.81309C8.75012 3.76942 8.83359 3.72986 8.91899 3.69439C9.00463 3.65893 9.09148 3.62781 9.18002 3.60079C9.26855 3.57377 9.35805 3.55134 9.449 3.53324C9.53971 3.51515 9.63114 3.5014 9.72305 3.49223C9.81521 3.48306 9.90736 3.47848 10 3.47824ZM14.9312 15.6521C14.5368 15.7954 14.1368 15.9211 13.7315 16.0294C13.326 16.1377 12.9169 16.2284 12.5034 16.301C12.0901 16.3736 11.6745 16.4284 11.2564 16.4648C10.8386 16.5013 10.4195 16.5196 10 16.5196C9.58048 16.5196 9.16144 16.5013 8.74361 16.4648C8.32553 16.4284 7.90987 16.3736 7.49662 16.301C7.08313 16.2284 6.67398 16.1377 6.26846 16.0294C5.86317 15.9211 5.46319 15.7954 5.06875 15.6521C5.02678 15.6369 4.98818 15.6157 4.95272 15.5884C4.91725 15.5614 4.88686 15.5295 4.86129 15.4929C4.83571 15.4564 4.81617 15.4169 4.80266 15.3742C4.78939 15.3317 4.78264 15.288 4.78264 15.2434C4.78264 15.158 4.78481 15.0729 4.78915 14.9875C4.79325 14.9023 4.79953 14.8171 4.80797 14.7322C4.81641 14.6473 4.82703 14.5626 4.83957 14.4782C4.85212 14.3938 4.86659 14.3096 4.88324 14.2259C4.90013 14.1421 4.9187 14.0589 4.93945 13.9762C4.96044 13.8934 4.98311 13.8112 5.00796 13.7294C5.03281 13.6478 5.05959 13.5668 5.08829 13.4864C5.117 13.4061 5.14788 13.3265 5.18045 13.2476C5.21326 13.1687 5.24776 13.0908 5.28443 13.0136C5.32085 12.9364 5.35921 12.8602 5.3995 12.7849C5.43979 12.7096 5.482 12.6356 5.52591 12.5622C5.56982 12.4891 5.61541 12.417 5.66294 12.3461C5.71022 12.2752 5.75943 12.2054 5.81034 12.1367C5.86124 12.0682 5.91359 12.0011 5.96787 11.935C6.0219 11.8692 6.07787 11.8045 6.13505 11.7413C6.19246 11.6781 6.25133 11.6161 6.31164 11.5558C6.37195 11.4955 6.43395 11.4366 6.49715 11.3794C6.56036 11.322 6.62501 11.2663 6.69111 11.2122C6.75697 11.158 6.82428 11.1056 6.89279 11.0547C6.96155 11.0038 7.03127 10.9548 7.10219 10.9073C7.17312 10.86 7.24525 10.8144 7.31859 10.7705C7.39168 10.7266 7.46598 10.6846 7.54125 10.6444C7.61652 10.6041 7.69275 10.5657 7.76995 10.5293C7.84715 10.4929 7.92507 10.4581 8.00396 10.4256C8.08284 10.393 8.16245 10.3621 8.24279 10.3334C8.32312 10.3047 8.40418 10.2779 8.48596 10.2531C8.56774 10.2285 8.64976 10.2055 8.73275 10.1848C8.8155 10.164 8.89873 10.1455 8.98244 10.1288C9.06615 10.1122 9.15034 10.0977 9.23478 10.0852C9.31921 10.0726 9.40389 10.062 9.48881 10.0538C9.57372 10.0454 9.65888 10.0391 9.74404 10.035C9.82944 10.0306 9.9146 10.0287 10 10.0287C10.0854 10.0287 10.1706 10.0306 10.256 10.035C10.3411 10.0391 10.4263 10.0454 10.5112 10.0538C10.5961 10.062 10.6808 10.0726 10.7652 10.0852C10.8497 10.0977 10.9339 10.1122 11.0176 10.1288C11.1013 10.1455 11.1845 10.164 11.2672 10.1848C11.3502 10.2055 11.4323 10.2285 11.514 10.2531C11.5958 10.2779 11.6769 10.3047 11.7572 10.3334C11.8375 10.3621 11.9172 10.393 11.996 10.4256C12.0749 10.4581 12.1529 10.4929 12.23 10.5293C12.3072 10.5657 12.3835 10.6041 12.4587 10.6444C12.534 10.6846 12.6083 10.7266 12.6814 10.7705C12.7548 10.8144 12.8269 10.86 12.8978 10.9073C12.9687 10.9548 13.0385 11.0038 13.1072 11.0547C13.1757 11.1056 13.243 11.158 13.3089 11.2122C13.375 11.2663 13.4396 11.322 13.5028 11.3794C13.5661 11.4366 13.6281 11.4955 13.6884 11.5558C13.7487 11.6161 13.8075 11.6781 13.865 11.7413C13.9221 11.8045 13.9779 11.8692 14.0321 11.935C14.0864 12.0011 14.1388 12.0682 14.1897 12.1367C14.2406 12.2054 14.2898 12.2752 14.3371 12.3461C14.3846 12.417 14.4302 12.4891 14.4741 12.5622C14.518 12.6356 14.5602 12.7096 14.6005 12.7849C14.6408 12.8602 14.6791 12.9364 14.7156 13.0136C14.7522 13.0908 14.7867 13.1687 14.8196 13.2476C14.8521 13.3265 14.883 13.4061 14.9117 13.4864C14.9404 13.5668 14.9672 13.6478 14.992 13.7294C15.0169 13.8112 15.0396 13.8934 15.0606 13.9762C15.0813 14.0589 15.0999 14.1421 15.1168 14.2259C15.1334 14.3096 15.1479 14.3938 15.1604 14.4782C15.173 14.5626 15.1836 14.6473 15.192 14.7322C15.2005 14.8171 15.2067 14.9023 15.2108 14.9875C15.2152 15.0729 15.2174 15.158 15.2174 15.2434C15.2174 15.288 15.2106 15.3317 15.1973 15.3742C15.1838 15.4169 15.1643 15.4564 15.1387 15.4929C15.1131 15.5295 15.0827 15.5614 15.0473 15.5884C15.0118 15.6157 14.9732 15.6369 14.9312 15.6521Z" fill="#4DB960"/>
</g>
</svg>
