<svg width="40" height="40" viewBox="0 0 40 40" fill="none" xmlns="http://www.w3.org/2000/svg">
<circle cx="20" cy="20" r="20" fill="white"/>
<g clip-path="url(#clip0_262_10295)">
<mask id="mask0_262_10295" style="mask-type:luminance" maskUnits="userSpaceOnUse" x="10" y="7" width="20" height="26">
<path d="M30 7H10V33H30V7Z" fill="white"/>
</mask>
<g mask="url(#mask0_262_10295)">
<path d="M21.7199 18.3448C21.4044 18.8208 21.1603 19.3459 20.734 19.7461C19.6313 20.7861 18.4074 21.6286 16.8888 21.9459C16.2464 22.0831 15.576 22.0176 14.9222 21.9787C13.9519 21.9183 12.9939 21.7432 12.0577 21.4699C11.5477 21.3225 11.0656 21.125 10.6115 20.868C10.118 20.5947 9.99696 20.2272 10.118 19.6919C10.4283 18.3346 11.4866 17.5965 12.5284 16.8892C13.8412 16.0028 15.3319 15.5984 16.9323 15.5595C18.1292 15.5268 19.3199 15.5544 20.5168 15.6916C20.522 15.6752 20.5447 15.6363 20.5385 15.6035C20.2664 14.0057 20.9647 12.6924 21.7789 11.4057C22.593 10.1036 23.6844 9.11276 25.0417 8.40134C25.4627 8.18228 25.8724 7.94173 26.2769 7.68992C26.9638 7.26307 27.7283 7.10953 28.5156 7.04402C29.0473 7 29.457 7.26819 29.6121 7.76669C30.0611 9.21717 29.8894 10.6513 29.4011 12.0577C28.8083 13.7651 27.6507 15.0784 26.2603 16.2054C25.7948 16.5831 25.3303 16.966 24.7872 17.2342C24.5545 17.3498 24.7045 17.4532 24.7758 17.5576C25.5796 18.6908 26.1114 19.9324 26.3048 21.3061C26.4041 22.0012 26.4383 22.6962 26.4269 23.3964C26.4166 24.2501 26.4383 25.1038 26.4217 25.9524C26.3886 27.9392 25.8796 29.8217 25.1038 31.6386C24.722 32.525 24.0124 33.001 23.0037 32.9744C22.5165 32.9632 22.2558 32.7226 22.0344 32.2957C21.6682 31.6007 21.8513 31.0316 22.1782 30.358C22.8599 28.9465 23.7351 27.5891 24.0124 26.024C24.2782 24.5244 24.1779 23.0197 23.6244 21.5641C23.4362 21.0666 23.2644 20.562 23.0813 20.0645C22.8548 19.4626 22.2837 18.7348 21.7189 18.3458L21.7199 18.3448Z" fill="#9ABA9A"/>
</g>
</g>
<defs>
<clipPath id="clip0_262_10295">
<rect width="20" height="26" fill="white" transform="translate(10 7)"/>
</clipPath>
</defs>
</svg>
