<svg width="40" height="40" viewBox="0 0 40 40" fill="none" xmlns="http://www.w3.org/2000/svg">
<circle cx="20" cy="20" r="20" fill="white"/>
<path d="M29.846 15.209C30.132 14.7098 30.0082 14.1028 29.5699 13.8543C29.1306 13.6047 28.5423 13.8074 28.2564 14.3066C27.9705 14.8046 28.0932 15.4117 28.5325 15.6612C28.9718 15.9108 29.5601 15.7081 29.846 15.209ZM27.2737 23.2281C26.3239 26.9379 23.493 32.2292 20.202 32.8798C18.0602 33.3027 15.6533 32.6226 14.5534 30.6369C13.9771 29.5983 13.8435 28.3275 14.1875 27.193C14.836 25.0623 17.2594 23.3741 16.7609 20.9655C16.5747 20.0686 16.0795 19.2708 15.7322 18.4229C15.5251 17.9161 15.4243 17.4257 15.4189 16.9353C15.4123 16.3762 15.5295 15.8215 15.753 15.2482C16.5429 13.2341 18.6124 12.1399 20.7202 12.2326C23.3648 12.3492 26.2921 13.8281 27.3361 16.3119C28.2432 18.4698 27.8434 21.0037 27.2726 23.227L27.2737 23.2281ZM27.828 12.9813C28.1742 12.3786 28.0252 11.6473 27.495 11.3454C26.9658 11.0446 26.2559 11.2888 25.9097 11.8914C25.5647 12.4941 25.7136 13.2254 26.2428 13.5262C26.773 13.8281 27.4818 13.5829 27.828 12.9802V12.9813ZM18.7197 9.22349C18.4426 7.77399 17.1849 6.7964 15.9108 7.03616C14.6366 7.27811 13.8281 8.64805 14.1064 10.0965C14.3836 11.5449 15.6413 12.5236 16.9154 12.2827C18.1895 12.0408 18.998 10.6708 18.7197 9.2224V9.22349ZM21.9614 10.1869C22.0688 9.32267 21.5396 8.5467 20.7793 8.45297C20.0201 8.35924 19.3168 8.98373 19.2094 9.84798C19.1021 10.7122 19.6301 11.4882 20.3904 11.5819C21.1496 11.6746 21.853 11.0501 21.9603 10.1869H21.9614ZM25.1714 11.1198C25.3883 10.3341 25.0037 9.54391 24.3125 9.35428C23.6212 9.16573 22.885 9.64963 22.668 10.4365C22.4511 11.2234 22.8357 12.0124 23.527 12.201C24.2182 12.3895 24.9544 11.9056 25.1714 11.1198Z" fill="#9ABA9A"/>
</svg>
