<svg width="40" height="40" viewBox="0 0 40 40" fill="none" xmlns="http://www.w3.org/2000/svg">
<g clip-path="url(#clip0_262_10291)">
<mask id="mask0_262_10291" style="mask-type:luminance" maskUnits="userSpaceOnUse" x="0" y="0" width="40" height="40">
<path d="M40 0H0V40H40V0Z" fill="white"/>
</mask>
<g mask="url(#mask0_262_10291)">
<path d="M23.7241 17.013C23.3926 16.9148 23.0519 16.8685 22.7074 16.8704C22.363 16.8741 22.0241 16.9259 21.6926 17.0278C21.3611 17.1296 21.0537 17.2778 20.7648 17.4704C20.4778 17.6648 20.2241 17.8944 20.0056 18.1611C19.7852 17.8944 19.5296 17.663 19.2407 17.4704C18.9519 17.2778 18.6426 17.1296 18.3111 17.0278C17.9796 16.9259 17.6407 16.8722 17.2944 16.8704C16.9481 16.8667 16.6074 16.9148 16.2741 17.0111C12.637 18.4611 13.0926 23.1167 18.9 26.6481C19.0648 26.75 19.2407 26.8259 19.4278 26.8778C19.6148 26.9296 19.8056 26.9574 19.9981 26.9574C20.1907 26.9574 20.3833 26.9296 20.5685 26.8778C20.7556 26.8241 20.9315 26.7481 21.0963 26.6481C26.9019 23.1167 27.3593 18.4611 23.7222 17.0111L23.7241 17.013ZM20.6315 25.8944C20.437 26.0111 20.2278 26.0685 20 26.0685C19.7722 26.0685 19.563 26.0111 19.3685 25.8944C14.987 23.1889 14.7741 20.7944 14.887 19.887C15.1611 17.6259 17.95 17.05 19.3685 18.787C19.45 18.8722 19.5463 18.9389 19.6574 18.9852C19.7667 19.0315 19.8815 19.0556 20 19.0556C20.1185 19.0556 20.2333 19.0315 20.3426 18.9852C20.4519 18.9389 20.5481 18.8741 20.6315 18.787C20.7963 18.5796 20.987 18.4 21.2056 18.25C21.4222 18.0982 21.6574 17.9815 21.9093 17.9C22.1611 17.8185 22.4204 17.7741 22.6833 17.7667C22.9481 17.7611 23.2074 17.7926 23.463 17.863C23.6833 17.9333 23.8889 18.0352 24.0815 18.1667C24.2722 18.2963 24.4426 18.4519 24.587 18.6315C24.7333 18.8111 24.8519 19.0093 24.9407 19.2222C25.0296 19.437 25.087 19.6593 25.113 19.8889C25.2241 20.7963 25.013 23.1889 20.6315 25.8963V25.8944ZM23.7241 17.013C23.3926 16.9148 23.0519 16.8685 22.7074 16.8704C22.363 16.8741 22.0241 16.9259 21.6926 17.0278C21.3611 17.1296 21.0537 17.2778 20.7648 17.4704C20.4778 17.6648 20.2241 17.8944 20.0056 18.1611C19.7852 17.8944 19.5296 17.663 19.2407 17.4704C18.9519 17.2778 18.6426 17.1296 18.3111 17.0278C17.9796 16.9259 17.6407 16.8722 17.2944 16.8704C16.9481 16.8667 16.6074 16.9148 16.2741 17.0111C12.637 18.4611 13.0926 23.1167 18.9 26.6481C19.0648 26.75 19.2407 26.8259 19.4278 26.8778C19.6148 26.9296 19.8056 26.9574 19.9981 26.9574C20.1907 26.9574 20.3833 26.9296 20.5685 26.8778C20.7556 26.8241 20.9315 26.7481 21.0963 26.6481C26.9019 23.1167 27.3593 18.4611 23.7222 17.0111L23.7241 17.013ZM20.6315 25.8944C20.437 26.0111 20.2278 26.0685 20 26.0685C19.7722 26.0685 19.563 26.0111 19.3685 25.8944C14.987 23.1889 14.7741 20.7944 14.887 19.887C15.1611 17.6259 17.95 17.05 19.3685 18.787C19.45 18.8722 19.5463 18.9389 19.6574 18.9852C19.7667 19.0315 19.8815 19.0556 20 19.0556C20.1185 19.0556 20.2333 19.0315 20.3426 18.9852C20.4519 18.9389 20.5481 18.8741 20.6315 18.787C20.7963 18.5796 20.987 18.4 21.2056 18.25C21.4222 18.0982 21.6574 17.9815 21.9093 17.9C22.1611 17.8185 22.4204 17.7741 22.6833 17.7667C22.9481 17.7611 23.2074 17.7926 23.463 17.863C23.6833 17.9333 23.8889 18.0352 24.0815 18.1667C24.2722 18.2963 24.4426 18.4519 24.587 18.6315C24.7333 18.8111 24.8519 19.0093 24.9407 19.2222C25.0296 19.437 25.087 19.6593 25.113 19.8889C25.2241 20.7963 25.013 23.1889 20.6315 25.8963V25.8944ZM14.713 9.28704H16.3889C16.113 8.11296 14.9944 8.10556 14.713 9.28704ZM23.7241 17.013C23.3926 16.9148 23.0519 16.8685 22.7074 16.8704C22.363 16.8741 22.0241 16.9259 21.6926 17.0278C21.3611 17.1296 21.0537 17.2778 20.7648 17.4704C20.4778 17.6648 20.2241 17.8944 20.0056 18.1611C19.7852 17.8944 19.5296 17.663 19.2407 17.4704C18.9519 17.2778 18.6426 17.1296 18.3111 17.0278C17.9796 16.9259 17.6407 16.8722 17.2944 16.8704C16.9481 16.8667 16.6074 16.9148 16.2741 17.0111C12.637 18.4611 13.0926 23.1167 18.9 26.6481C19.0648 26.75 19.2407 26.8259 19.4278 26.8778C19.6148 26.9296 19.8056 26.9574 19.9981 26.9574C20.1907 26.9574 20.3833 26.9296 20.5685 26.8778C20.7556 26.8241 20.9315 26.7481 21.0963 26.6481C26.9019 23.1167 27.3593 18.4611 23.7222 17.0111L23.7241 17.013ZM20.6315 25.8944C20.437 26.0111 20.2278 26.0685 20 26.0685C19.7722 26.0685 19.563 26.0111 19.3685 25.8944C14.987 23.1889 14.7741 20.7944 14.887 19.887C15.1611 17.6259 17.95 17.05 19.3685 18.787C19.45 18.8722 19.5463 18.9389 19.6574 18.9852C19.7667 19.0315 19.8815 19.0556 20 19.0556C20.1185 19.0556 20.2333 19.0315 20.3426 18.9852C20.4519 18.9389 20.5481 18.8741 20.6315 18.787C20.7963 18.5796 20.987 18.4 21.2056 18.25C21.4222 18.0982 21.6574 17.9815 21.9093 17.9C22.1611 17.8185 22.4204 17.7741 22.6833 17.7667C22.9481 17.7611 23.2074 17.7926 23.463 17.863C23.6833 17.9333 23.8889 18.0352 24.0815 18.1667C24.2722 18.2963 24.4426 18.4519 24.587 18.6315C24.7333 18.8111 24.8519 19.0093 24.9407 19.2222C25.0296 19.437 25.087 19.6593 25.113 19.8889C25.2241 20.7963 25.013 23.1889 20.6315 25.8963V25.8944ZM24.5056 9.28704H26.1815C25.9 8.11296 24.7815 8.11296 24.5056 9.28704ZM24.5056 9.28704H26.1815C25.9 8.11296 24.7815 8.11296 24.5056 9.28704ZM14.713 9.28704H16.3889C16.113 8.11296 14.9944 8.10556 14.713 9.28704ZM23.7241 17.013C23.3926 16.9148 23.0519 16.8685 22.7074 16.8704C22.363 16.8741 22.0241 16.9259 21.6926 17.0278C21.3611 17.1296 21.0537 17.2778 20.7648 17.4704C20.4778 17.6648 20.2241 17.8944 20.0056 18.1611C19.7852 17.8944 19.5296 17.663 19.2407 17.4704C18.9519 17.2778 18.6426 17.1296 18.3111 17.0278C17.9796 16.9259 17.6407 16.8722 17.2944 16.8704C16.9481 16.8667 16.6074 16.9148 16.2741 17.0111C12.637 18.4611 13.0926 23.1167 18.9 26.6481C19.0648 26.75 19.2407 26.8259 19.4278 26.8778C19.6148 26.9296 19.8056 26.9574 19.9981 26.9574C20.1907 26.9574 20.3833 26.9296 20.5685 26.8778C20.7556 26.8241 20.9315 26.7481 21.0963 26.6481C26.9019 23.1167 27.3593 18.4611 23.7222 17.0111L23.7241 17.013ZM20.6315 25.8944C20.437 26.0111 20.2278 26.0685 20 26.0685C19.7722 26.0685 19.563 26.0111 19.3685 25.8944C14.987 23.1889 14.7741 20.7944 14.887 19.887C15.1611 17.6259 17.95 17.05 19.3685 18.787C19.45 18.8722 19.5463 18.9389 19.6574 18.9852C19.7667 19.0315 19.8815 19.0556 20 19.0556C20.1185 19.0556 20.2333 19.0315 20.3426 18.9852C20.4519 18.9389 20.5481 18.8741 20.6315 18.787C20.7963 18.5796 20.987 18.4 21.2056 18.25C21.4222 18.0982 21.6574 17.9815 21.9093 17.9C22.1611 17.8185 22.4204 17.7741 22.6833 17.7667C22.9481 17.7611 23.2074 17.7926 23.463 17.863C23.6833 17.9333 23.8889 18.0352 24.0815 18.1667C24.2722 18.2963 24.4426 18.4519 24.587 18.6315C24.7333 18.8111 24.8519 19.0093 24.9407 19.2222C25.0296 19.437 25.087 19.6593 25.113 19.8889C25.2241 20.7963 25.013 23.1889 20.6315 25.8963V25.8944ZM14.713 9.28704H16.3889C16.113 8.11296 14.9944 8.10556 14.713 9.28704ZM23.7241 17.013C23.3926 16.9148 23.0519 16.8685 22.7074 16.8704C22.363 16.8741 22.0241 16.9259 21.6926 17.0278C21.3611 17.1296 21.0537 17.2778 20.7648 17.4704C20.4778 17.6648 20.2241 17.8944 20.0056 18.1611C19.7852 17.8944 19.5296 17.663 19.2407 17.4704C18.9519 17.2778 18.6426 17.1296 18.3111 17.0278C17.9796 16.9259 17.6407 16.8722 17.2944 16.8704C16.9481 16.8667 16.6074 16.9148 16.2741 17.0111C12.637 18.4611 13.0926 23.1167 18.9 26.6481C19.0648 26.75 19.2407 26.8259 19.4278 26.8778C19.6148 26.9296 19.8056 26.9574 19.9981 26.9574C20.1907 26.9574 20.3833 26.9296 20.5685 26.8778C20.7556 26.8241 20.9315 26.7481 21.0963 26.6481C26.9019 23.1167 27.3593 18.4611 23.7222 17.0111L23.7241 17.013ZM20.6315 25.8944C20.437 26.0111 20.2278 26.0685 20 26.0685C19.7722 26.0685 19.563 26.0111 19.3685 25.8944C14.987 23.1889 14.7741 20.7944 14.887 19.887C15.1611 17.6259 17.95 17.05 19.3685 18.787C19.45 18.8722 19.5463 18.9389 19.6574 18.9852C19.7667 19.0315 19.8815 19.0556 20 19.0556C20.1185 19.0556 20.2333 19.0315 20.3426 18.9852C20.4519 18.9389 20.5481 18.8741 20.6315 18.787C20.7963 18.5796 20.987 18.4 21.2056 18.25C21.4222 18.0982 21.6574 17.9815 21.9093 17.9C22.1611 17.8185 22.4204 17.7741 22.6833 17.7667C22.9481 17.7611 23.2074 17.7926 23.463 17.863C23.6833 17.9333 23.8889 18.0352 24.0815 18.1667C24.2722 18.2963 24.4426 18.4519 24.587 18.6315C24.7333 18.8111 24.8519 19.0093 24.9407 19.2222C25.0296 19.437 25.087 19.6593 25.113 19.8889C25.2241 20.7963 25.013 23.1889 20.6315 25.8963V25.8944ZM24.5056 9.28704H26.1815C25.9 8.11296 24.7815 8.11296 24.5056 9.28704ZM24.5056 9.28704H26.1815C25.9 8.11296 24.7815 8.11296 24.5056 9.28704ZM14.713 9.28704H16.3889C16.113 8.11296 14.9944 8.10556 14.713 9.28704ZM23.7241 17.013C23.3926 16.9148 23.0519 16.8685 22.7074 16.8704C22.363 16.8741 22.0241 16.9259 21.6926 17.0278C21.3611 17.1296 21.0537 17.2778 20.7648 17.4704C20.4778 17.6648 20.2241 17.8944 20.0056 18.1611C19.7852 17.8944 19.5296 17.663 19.2407 17.4704C18.9519 17.2778 18.6426 17.1296 18.3111 17.0278C17.9796 16.9259 17.6407 16.8722 17.2944 16.8704C16.9481 16.8667 16.6074 16.9148 16.2741 17.0111C12.637 18.4611 13.0926 23.1167 18.9 26.6481C19.0648 26.75 19.2407 26.8259 19.4278 26.8778C19.6148 26.9296 19.8056 26.9574 19.9981 26.9574C20.1907 26.9574 20.3833 26.9296 20.5685 26.8778C20.7556 26.8241 20.9315 26.7481 21.0963 26.6481C26.9019 23.1167 27.3593 18.4611 23.7222 17.0111L23.7241 17.013ZM20.6315 25.8944C20.437 26.0111 20.2278 26.0685 20 26.0685C19.7722 26.0685 19.563 26.0111 19.3685 25.8944C14.987 23.1889 14.7741 20.7944 14.887 19.887C15.1611 17.6259 17.95 17.05 19.3685 18.787C19.45 18.8722 19.5463 18.9389 19.6574 18.9852C19.7667 19.0315 19.8815 19.0556 20 19.0556C20.1185 19.0556 20.2333 19.0315 20.3426 18.9852C20.4519 18.9389 20.5481 18.8741 20.6315 18.787C20.7963 18.5796 20.987 18.4 21.2056 18.25C21.4222 18.0982 21.6574 17.9815 21.9093 17.9C22.1611 17.8185 22.4204 17.7741 22.6833 17.7667C22.9481 17.7611 23.2074 17.7926 23.463 17.863C23.6833 17.9333 23.8889 18.0352 24.0815 18.1667C24.2722 18.2963 24.4426 18.4519 24.587 18.6315C24.7333 18.8111 24.8519 19.0093 24.9407 19.2222C25.0296 19.437 25.087 19.6593 25.113 19.8889C25.2241 20.7963 25.013 23.1889 20.6315 25.8963V25.8944ZM14.713 9.28704H16.3889C16.113 8.11296 14.9944 8.10556 14.713 9.28704ZM23.7241 17.013C23.3926 16.9148 23.0519 16.8685 22.7074 16.8704C22.363 16.8741 22.0241 16.9259 21.6926 17.0278C21.3611 17.1296 21.0537 17.2778 20.7648 17.4704C20.4778 17.6648 20.2241 17.8944 20.0056 18.1611C19.7852 17.8944 19.5296 17.663 19.2407 17.4704C18.9519 17.2778 18.6426 17.1296 18.3111 17.0278C17.9796 16.9259 17.6407 16.8722 17.2944 16.8704C16.9481 16.8667 16.6074 16.9148 16.2741 17.0111C12.637 18.4611 13.0926 23.1167 18.9 26.6481C19.0648 26.75 19.2407 26.8259 19.4278 26.8778C19.6148 26.9296 19.8056 26.9574 19.9981 26.9574C20.1907 26.9574 20.3833 26.9296 20.5685 26.8778C20.7556 26.8241 20.9315 26.7481 21.0963 26.6481C26.9019 23.1167 27.3593 18.4611 23.7222 17.0111L23.7241 17.013ZM20.6315 25.8944C20.437 26.0111 20.2278 26.0685 20 26.0685C19.7722 26.0685 19.563 26.0111 19.3685 25.8944C14.987 23.1889 14.7741 20.7944 14.887 19.887C15.1611 17.6259 17.95 17.05 19.3685 18.787C19.45 18.8722 19.5463 18.9389 19.6574 18.9852C19.7667 19.0315 19.8815 19.0556 20 19.0556C20.1185 19.0556 20.2333 19.0315 20.3426 18.9852C20.4519 18.9389 20.5481 18.8741 20.6315 18.787C20.7963 18.5796 20.987 18.4 21.2056 18.25C21.4222 18.0982 21.6574 17.9815 21.9093 17.9C22.1611 17.8185 22.4204 17.7741 22.6833 17.7667C22.9481 17.7611 23.2074 17.7926 23.463 17.863C23.6833 17.9333 23.8889 18.0352 24.0815 18.1667C24.2722 18.2963 24.4426 18.4519 24.587 18.6315C24.7333 18.8111 24.8519 19.0093 24.9407 19.2222C25.0296 19.437 25.087 19.6593 25.113 19.8889C25.2241 20.7963 25.013 23.1889 20.6315 25.8963V25.8944ZM24.5056 9.28704H26.1815C25.9 8.11296 24.7815 8.11296 24.5056 9.28704ZM24.5056 9.28704H26.1815C25.9 8.11296 24.7815 8.11296 24.5056 9.28704ZM14.713 9.28704H16.3889C16.113 8.11296 14.9944 8.10556 14.713 9.28704ZM23.7241 17.013C23.3926 16.9148 23.0519 16.8685 22.7074 16.8704C22.363 16.8741 22.0241 16.9259 21.6926 17.0278C21.3611 17.1296 21.0537 17.2778 20.7648 17.4704C20.4778 17.6648 20.2241 17.8944 20.0056 18.1611C19.7852 17.8944 19.5296 17.663 19.2407 17.4704C18.9519 17.2778 18.6426 17.1296 18.3111 17.0278C17.9796 16.9259 17.6407 16.8722 17.2944 16.8704C16.9481 16.8667 16.6074 16.9148 16.2741 17.0111C12.637 18.4611 13.0926 23.1167 18.9 26.6481C19.0648 26.75 19.2407 26.8259 19.4278 26.8778C19.6148 26.9296 19.8056 26.9574 19.9981 26.9574C20.1907 26.9574 20.3833 26.9296 20.5685 26.8778C20.7556 26.8241 20.9315 26.7481 21.0963 26.6481C26.9019 23.1167 27.3593 18.4611 23.7222 17.0111L23.7241 17.013ZM20.6315 25.8944C20.437 26.0111 20.2278 26.0685 20 26.0685C19.7722 26.0685 19.563 26.0111 19.3685 25.8944C14.987 23.1889 14.7741 20.7944 14.887 19.887C15.1611 17.6259 17.95 17.05 19.3685 18.787C19.45 18.8722 19.5463 18.9389 19.6574 18.9852C19.7667 19.0315 19.8815 19.0556 20 19.0556C20.1185 19.0556 20.2333 19.0315 20.3426 18.9852C20.4519 18.9389 20.5481 18.8741 20.6315 18.787C20.7963 18.5796 20.987 18.4 21.2056 18.25C21.4222 18.0982 21.6574 17.9815 21.9093 17.9C22.1611 17.8185 22.4204 17.7741 22.6833 17.7667C22.9481 17.7611 23.2074 17.7926 23.463 17.863C23.6833 17.9333 23.8889 18.0352 24.0815 18.1667C24.2722 18.2963 24.4426 18.4519 24.587 18.6315C24.7333 18.8111 24.8519 19.0093 24.9407 19.2222C25.0296 19.437 25.087 19.6593 25.113 19.8889C25.2241 20.7963 25.013 23.1889 20.6315 25.8963V25.8944ZM14.713 9.28704H16.3889C16.113 8.11296 14.9944 8.10556 14.713 9.28704ZM23.7241 17.013C23.3926 16.9148 23.0519 16.8685 22.7074 16.8704C22.363 16.8741 22.0241 16.9259 21.6926 17.0278C21.3611 17.1296 21.0537 17.2778 20.7648 17.4704C20.4778 17.6648 20.2241 17.8944 20.0056 18.1611C19.7852 17.8944 19.5296 17.663 19.2407 17.4704C18.9519 17.2778 18.6426 17.1296 18.3111 17.0278C17.9796 16.9259 17.6407 16.8722 17.2944 16.8704C16.9481 16.8667 16.6074 16.9148 16.2741 17.0111C12.637 18.4611 13.0926 23.1167 18.9 26.6481C19.0648 26.75 19.2407 26.8259 19.4278 26.8778C19.6148 26.9296 19.8056 26.9574 19.9981 26.9574C20.1907 26.9574 20.3833 26.9296 20.5685 26.8778C20.7556 26.8241 20.9315 26.7481 21.0963 26.6481C26.9019 23.1167 27.3593 18.4611 23.7222 17.0111L23.7241 17.013ZM20.6315 25.8944C20.437 26.0111 20.2278 26.0685 20 26.0685C19.7722 26.0685 19.563 26.0111 19.3685 25.8944C14.987 23.1889 14.7741 20.7944 14.887 19.887C15.1611 17.6259 17.95 17.05 19.3685 18.787C19.45 18.8722 19.5463 18.9389 19.6574 18.9852C19.7667 19.0315 19.8815 19.0556 20 19.0556C20.1185 19.0556 20.2333 19.0315 20.3426 18.9852C20.4519 18.9389 20.5481 18.8741 20.6315 18.787C20.7963 18.5796 20.987 18.4 21.2056 18.25C21.4222 18.0982 21.6574 17.9815 21.9093 17.9C22.1611 17.8185 22.4204 17.7741 22.6833 17.7667C22.9481 17.7611 23.2074 17.7926 23.463 17.863C23.6833 17.9333 23.8889 18.0352 24.0815 18.1667C24.2722 18.2963 24.4426 18.4519 24.587 18.6315C24.7333 18.8111 24.8519 19.0093 24.9407 19.2222C25.0296 19.437 25.087 19.6593 25.113 19.8889C25.2241 20.7963 25.013 23.1889 20.6315 25.8963V25.8944ZM24.5056 9.28704H26.1815C25.9 8.11296 24.7815 8.11296 24.5056 9.28704ZM24.5056 9.28704H26.1815C25.9 8.11296 24.7815 8.11296 24.5056 9.28704ZM14.713 9.28704H16.3889C16.113 8.11296 14.9944 8.10556 14.713 9.28704ZM23.7241 17.013C23.3926 16.9148 23.0519 16.8685 22.7074 16.8704C22.363 16.8741 22.0241 16.9259 21.6926 17.0278C21.3611 17.1296 21.0537 17.2778 20.7648 17.4704C20.4778 17.6648 20.2241 17.8944 20.0056 18.1611C19.7852 17.8944 19.5296 17.663 19.2407 17.4704C18.9519 17.2778 18.6426 17.1296 18.3111 17.0278C17.9796 16.9259 17.6407 16.8722 17.2944 16.8704C16.9481 16.8667 16.6074 16.9148 16.2741 17.0111C12.637 18.4611 13.0926 23.1167 18.9 26.6481C19.0648 26.75 19.2407 26.8259 19.4278 26.8778C19.6148 26.9296 19.8056 26.9574 19.9981 26.9574C20.1907 26.9574 20.3833 26.9296 20.5685 26.8778C20.7556 26.8241 20.9315 26.7481 21.0963 26.6481C26.9019 23.1167 27.3593 18.4611 23.7222 17.0111L23.7241 17.013ZM20.6315 25.8944C20.437 26.0111 20.2278 26.0685 20 26.0685C19.7722 26.0685 19.563 26.0111 19.3685 25.8944C14.987 23.1889 14.7741 20.7944 14.887 19.887C15.1611 17.6259 17.95 17.05 19.3685 18.787C19.45 18.8722 19.5463 18.9389 19.6574 18.9852C19.7667 19.0315 19.8815 19.0556 20 19.0556C20.1185 19.0556 20.2333 19.0315 20.3426 18.9852C20.4519 18.9389 20.5481 18.8741 20.6315 18.787C20.7963 18.5796 20.987 18.4 21.2056 18.25C21.4222 18.0982 21.6574 17.9815 21.9093 17.9C22.1611 17.8185 22.4204 17.7741 22.6833 17.7667C22.9481 17.7611 23.2074 17.7926 23.463 17.863C23.6833 17.9333 23.8889 18.0352 24.0815 18.1667C24.2722 18.2963 24.4426 18.4519 24.587 18.6315C24.7333 18.8111 24.8519 19.0093 24.9407 19.2222C25.0296 19.437 25.087 19.6593 25.113 19.8889C25.2241 20.7963 25.013 23.1889 20.6315 25.8963V25.8944ZM14.713 9.28704H16.3889C16.113 8.11296 14.9944 8.10556 14.713 9.28704ZM23.7241 17.013C23.3926 16.9148 23.0519 16.8685 22.7074 16.8704C22.363 16.8741 22.0241 16.9259 21.6926 17.0278C21.3611 17.1296 21.0537 17.2778 20.7648 17.4704C20.4778 17.6648 20.2241 17.8944 20.0056 18.1611C19.7852 17.8944 19.5296 17.663 19.2407 17.4704C18.9519 17.2778 18.6426 17.1296 18.3111 17.0278C17.9796 16.9259 17.6407 16.8722 17.2944 16.8704C16.9481 16.8667 16.6074 16.9148 16.2741 17.0111C12.637 18.4611 13.0926 23.1167 18.9 26.6481C19.0648 26.75 19.2407 26.8259 19.4278 26.8778C19.6148 26.9296 19.8056 26.9574 19.9981 26.9574C20.1907 26.9574 20.3833 26.9296 20.5685 26.8778C20.7556 26.8241 20.9315 26.7481 21.0963 26.6481C26.9019 23.1167 27.3593 18.4611 23.7222 17.0111L23.7241 17.013ZM20.6315 25.8944C20.437 26.0111 20.2278 26.0685 20 26.0685C19.7722 26.0685 19.563 26.0111 19.3685 25.8944C14.987 23.1889 14.7741 20.7944 14.887 19.887C15.1611 17.6259 17.95 17.05 19.3685 18.787C19.45 18.8722 19.5463 18.9389 19.6574 18.9852C19.7667 19.0315 19.8815 19.0556 20 19.0556C20.1185 19.0556 20.2333 19.0315 20.3426 18.9852C20.4519 18.9389 20.5481 18.8741 20.6315 18.787C20.7963 18.5796 20.987 18.4 21.2056 18.25C21.4222 18.0982 21.6574 17.9815 21.9093 17.9C22.1611 17.8185 22.4204 17.7741 22.6833 17.7667C22.9481 17.7611 23.2074 17.7926 23.463 17.863C23.6833 17.9333 23.8889 18.0352 24.0815 18.1667C24.2722 18.2963 24.4426 18.4519 24.587 18.6315C24.7333 18.8111 24.8519 19.0093 24.9407 19.2222C25.0296 19.437 25.087 19.6593 25.113 19.8889C25.2241 20.7963 25.013 23.1889 20.6315 25.8963V25.8944ZM24.5056 9.28704H26.1815C25.9 8.11296 24.7815 8.11296 24.5056 9.28704ZM24.5056 9.28704H26.1815C25.9 8.11296 24.7815 8.11296 24.5056 9.28704ZM14.713 9.28704H16.3889C16.113 8.11296 14.9944 8.10556 14.713 9.28704ZM23.7241 17.013C23.3926 16.9148 23.0519 16.8685 22.7074 16.8704C22.363 16.8741 22.0241 16.9259 21.6926 17.0278C21.3611 17.1296 21.0537 17.2778 20.7648 17.4704C20.4778 17.6648 20.2241 17.8944 20.0056 18.1611C19.7852 17.8944 19.5296 17.663 19.2407 17.4704C18.9519 17.2778 18.6426 17.1296 18.3111 17.0278C17.9796 16.9259 17.6407 16.8722 17.2944 16.8704C16.9481 16.8667 16.6074 16.9148 16.2741 17.0111C12.637 18.4611 13.0926 23.1167 18.9 26.6481C19.0648 26.75 19.2407 26.8259 19.4278 26.8778C19.6148 26.9296 19.8056 26.9574 19.9981 26.9574C20.1907 26.9574 20.3833 26.9296 20.5685 26.8778C20.7556 26.8241 20.9315 26.7481 21.0963 26.6481C26.9019 23.1167 27.3593 18.4611 23.7222 17.0111L23.7241 17.013ZM20.6315 25.8944C20.437 26.0111 20.2278 26.0685 20 26.0685C19.7722 26.0685 19.563 26.0111 19.3685 25.8944C14.987 23.1889 14.7741 20.7944 14.887 19.887C15.1611 17.6259 17.95 17.05 19.3685 18.787C19.45 18.8722 19.5463 18.9389 19.6574 18.9852C19.7667 19.0315 19.8815 19.0556 20 19.0556C20.1185 19.0556 20.2333 19.0315 20.3426 18.9852C20.4519 18.9389 20.5481 18.8741 20.6315 18.787C20.7963 18.5796 20.987 18.4 21.2056 18.25C21.4222 18.0982 21.6574 17.9815 21.9093 17.9C22.1611 17.8185 22.4204 17.7741 22.6833 17.7667C22.9481 17.7611 23.2074 17.7926 23.463 17.863C23.6833 17.9333 23.8889 18.0352 24.0815 18.1667C24.2722 18.2963 24.4426 18.4519 24.587 18.6315C24.7333 18.8111 24.8519 19.0093 24.9407 19.2222C25.0296 19.437 25.087 19.6593 25.113 19.8889C25.2241 20.7963 25.013 23.1889 20.6315 25.8963V25.8944ZM14.713 9.28704H16.3889C16.113 8.11296 14.9944 8.10556 14.713 9.28704ZM23.7241 17.013C23.3926 16.9148 23.0519 16.8685 22.7074 16.8704C22.363 16.8741 22.0241 16.9259 21.6926 17.0278C21.3611 17.1296 21.0537 17.2778 20.7648 17.4704C20.4778 17.6648 20.2241 17.8944 20.0056 18.1611C19.7852 17.8944 19.5296 17.663 19.2407 17.4704C18.9519 17.2778 18.6426 17.1296 18.3111 17.0278C17.9796 16.9259 17.6407 16.8722 17.2944 16.8704C16.9481 16.8667 16.6074 16.9148 16.2741 17.0111C12.637 18.4611 13.0926 23.1167 18.9 26.6481C19.0648 26.75 19.2407 26.8259 19.4278 26.8778C19.6148 26.9296 19.8056 26.9574 19.9981 26.9574C20.1907 26.9574 20.3833 26.9296 20.5685 26.8778C20.7556 26.8241 20.9315 26.7481 21.0963 26.6481C26.9019 23.1167 27.3593 18.4611 23.7222 17.0111L23.7241 17.013ZM20.6315 25.8944C20.437 26.0111 20.2278 26.0685 20 26.0685C19.7722 26.0685 19.563 26.0111 19.3685 25.8944C14.987 23.1889 14.7741 20.7944 14.887 19.887C15.1611 17.6259 17.95 17.05 19.3685 18.787C19.45 18.8722 19.5463 18.9389 19.6574 18.9852C19.7667 19.0315 19.8815 19.0556 20 19.0556C20.1185 19.0556 20.2333 19.0315 20.3426 18.9852C20.4519 18.9389 20.5481 18.8741 20.6315 18.787C20.7963 18.5796 20.987 18.4 21.2056 18.25C21.4222 18.0982 21.6574 17.9815 21.9093 17.9C22.1611 17.8185 22.4204 17.7741 22.6833 17.7667C22.9481 17.7611 23.2074 17.7926 23.463 17.863C23.6833 17.9333 23.8889 18.0352 24.0815 18.1667C24.2722 18.2963 24.4426 18.4519 24.587 18.6315C24.7333 18.8111 24.8519 19.0093 24.9407 19.2222C25.0296 19.437 25.087 19.6593 25.113 19.8889C25.2241 20.7963 25.013 23.1889 20.6315 25.8963V25.8944ZM24.5056 9.28704H26.1815C25.9 8.11296 24.7815 8.11296 24.5056 9.28704ZM24.5056 9.28704H26.1815C25.9 8.11296 24.7815 8.11296 24.5056 9.28704ZM14.713 9.28704H16.3889C16.113 8.11296 14.9944 8.10556 14.713 9.28704ZM23.7241 17.013C23.3926 16.9148 23.0519 16.8685 22.7074 16.8704C22.363 16.8741 22.0241 16.9259 21.6926 17.0278C21.3611 17.1296 21.0537 17.2778 20.7648 17.4704C20.4778 17.6648 20.2241 17.8944 20.0056 18.1611C19.7852 17.8944 19.5296 17.663 19.2407 17.4704C18.9519 17.2778 18.6426 17.1296 18.3111 17.0278C17.9796 16.9259 17.6407 16.8722 17.2944 16.8704C16.9481 16.8667 16.6074 16.9148 16.2741 17.0111C12.637 18.4611 13.0926 23.1167 18.9 26.6481C19.0648 26.75 19.2407 26.8259 19.4278 26.8778C19.6148 26.9296 19.8056 26.9574 19.9981 26.9574C20.1907 26.9574 20.3833 26.9296 20.5685 26.8778C20.7556 26.8241 20.9315 26.7481 21.0963 26.6481C26.9019 23.1167 27.3593 18.4611 23.7222 17.0111L23.7241 17.013ZM20.6315 25.8944C20.437 26.0111 20.2278 26.0685 20 26.0685C19.7722 26.0685 19.563 26.0111 19.3685 25.8944C14.987 23.1889 14.7741 20.7944 14.887 19.887C15.1611 17.6259 17.95 17.05 19.3685 18.787C19.45 18.8722 19.5463 18.9389 19.6574 18.9852C19.7667 19.0315 19.8815 19.0556 20 19.0556C20.1185 19.0556 20.2333 19.0315 20.3426 18.9852C20.4519 18.9389 20.5481 18.8741 20.6315 18.787C20.7963 18.5796 20.987 18.4 21.2056 18.25C21.4222 18.0982 21.6574 17.9815 21.9093 17.9C22.1611 17.8185 22.4204 17.7741 22.6833 17.7667C22.9481 17.7611 23.2074 17.7926 23.463 17.863C23.6833 17.9333 23.8889 18.0352 24.0815 18.1667C24.2722 18.2963 24.4426 18.4519 24.587 18.6315C24.7333 18.8111 24.8519 19.0093 24.9407 19.2222C25.0296 19.437 25.087 19.6593 25.113 19.8889C25.2241 20.7963 25.013 23.1889 20.6315 25.8963V25.8944ZM14.713 9.28704H16.3889C16.113 8.11296 14.9944 8.10556 14.713 9.28704ZM23.7241 17.013C23.3926 16.9148 23.0519 16.8685 22.7074 16.8704C22.363 16.8741 22.0241 16.9259 21.6926 17.0278C21.3611 17.1296 21.0537 17.2778 20.7648 17.4704C20.4778 17.6648 20.2241 17.8944 20.0056 18.1611C19.7852 17.8944 19.5296 17.663 19.2407 17.4704C18.9519 17.2778 18.6426 17.1296 18.3111 17.0278C17.9796 16.9259 17.6407 16.8722 17.2944 16.8704C16.9481 16.8667 16.6074 16.9148 16.2741 17.0111C12.637 18.4611 13.0926 23.1167 18.9 26.6481C19.0648 26.75 19.2407 26.8259 19.4278 26.8778C19.6148 26.9296 19.8056 26.9574 19.9981 26.9574C20.1907 26.9574 20.3833 26.9296 20.5685 26.8778C20.7556 26.8241 20.9315 26.7481 21.0963 26.6481C26.9019 23.1167 27.3593 18.4611 23.7222 17.0111L23.7241 17.013ZM20.6315 25.8944C20.437 26.0111 20.2278 26.0685 20 26.0685C19.7722 26.0685 19.563 26.0111 19.3685 25.8944C14.987 23.1889 14.7741 20.7944 14.887 19.887C15.1611 17.6259 17.95 17.05 19.3685 18.787C19.45 18.8722 19.5463 18.9389 19.6574 18.9852C19.7667 19.0315 19.8815 19.0556 20 19.0556C20.1185 19.0556 20.2333 19.0315 20.3426 18.9852C20.4519 18.9389 20.5481 18.8741 20.6315 18.787C20.7963 18.5796 20.987 18.4 21.2056 18.25C21.4222 18.0982 21.6574 17.9815 21.9093 17.9C22.1611 17.8185 22.4204 17.7741 22.6833 17.7667C22.9481 17.7611 23.2074 17.7926 23.463 17.863C23.6833 17.9333 23.8889 18.0352 24.0815 18.1667C24.2722 18.2963 24.4426 18.4519 24.587 18.6315C24.7333 18.8111 24.8519 19.0093 24.9407 19.2222C25.0296 19.437 25.087 19.6593 25.113 19.8889C25.2241 20.7963 25.013 23.1889 20.6315 25.8963V25.8944ZM24.5056 9.28704H26.1815C25.9 8.11296 24.7815 8.11296 24.5056 9.28704ZM24.5056 9.28704H26.1815C25.9 8.11296 24.7815 8.11296 24.5056 9.28704ZM14.713 9.28704H16.3889C16.113 8.11296 14.9944 8.10556 14.713 9.28704ZM23.7241 17.013C23.3926 16.9148 23.0519 16.8685 22.7074 16.8704C22.363 16.8741 22.0241 16.9259 21.6926 17.0278C21.3611 17.1296 21.0537 17.2778 20.7648 17.4704C20.4778 17.6648 20.2241 17.8944 20.0056 18.1611C19.7852 17.8944 19.5296 17.663 19.2407 17.4704C18.9519 17.2778 18.6426 17.1296 18.3111 17.0278C17.9796 16.9259 17.6407 16.8722 17.2944 16.8704C16.9481 16.8667 16.6074 16.9148 16.2741 17.0111C12.637 18.4611 13.0926 23.1167 18.9 26.6481C19.0648 26.75 19.2407 26.8259 19.4278 26.8778C19.6148 26.9296 19.8056 26.9574 19.9981 26.9574C20.1907 26.9574 20.3833 26.9296 20.5685 26.8778C20.7556 26.8241 20.9315 26.7481 21.0963 26.6481C26.9019 23.1167 27.3593 18.4611 23.7222 17.0111L23.7241 17.013ZM20.6315 25.8944C20.437 26.0111 20.2278 26.0685 20 26.0685C19.7722 26.0685 19.563 26.0111 19.3685 25.8944C14.987 23.1889 14.7741 20.7944 14.887 19.887C15.1611 17.6259 17.95 17.05 19.3685 18.787C19.45 18.8722 19.5463 18.9389 19.6574 18.9852C19.7667 19.0315 19.8815 19.0556 20 19.0556C20.1185 19.0556 20.2333 19.0315 20.3426 18.9852C20.4519 18.9389 20.5481 18.8741 20.6315 18.787C20.7963 18.5796 20.987 18.4 21.2056 18.25C21.4222 18.0982 21.6574 17.9815 21.9093 17.9C22.1611 17.8185 22.4204 17.7741 22.6833 17.7667C22.9481 17.7611 23.2074 17.7926 23.463 17.863C23.6833 17.9333 23.8889 18.0352 24.0815 18.1667C24.2722 18.2963 24.4426 18.4519 24.587 18.6315C24.7333 18.8111 24.8519 19.0093 24.9407 19.2222C25.0296 19.437 25.087 19.6593 25.113 19.8889C25.2241 20.7963 25.013 23.1889 20.6315 25.8963V25.8944ZM14.713 9.28704H16.3889C16.113 8.11296 14.9944 8.10556 14.713 9.28704ZM23.7241 17.013C23.3926 16.9148 23.0519 16.8685 22.7074 16.8704C22.363 16.8741 22.0241 16.9259 21.6926 17.0278C21.3611 17.1296 21.0537 17.2778 20.7648 17.4704C20.4778 17.6648 20.2241 17.8944 20.0056 18.1611C19.7852 17.8944 19.5296 17.663 19.2407 17.4704C18.9519 17.2778 18.6426 17.1296 18.3111 17.0278C17.9796 16.9259 17.6407 16.8722 17.2944 16.8704C16.9481 16.8667 16.6074 16.9148 16.2741 17.0111C12.637 18.4611 13.0926 23.1167 18.9 26.6481C19.0648 26.75 19.2407 26.8259 19.4278 26.8778C19.6148 26.9296 19.8056 26.9574 19.9981 26.9574C20.1907 26.9574 20.3833 26.9296 20.5685 26.8778C20.7556 26.8241 20.9315 26.7481 21.0963 26.6481C26.9019 23.1167 27.3593 18.4611 23.7222 17.0111L23.7241 17.013ZM20.6315 25.8944C20.437 26.0111 20.2278 26.0685 20 26.0685C19.7722 26.0685 19.563 26.0111 19.3685 25.8944C14.987 23.1889 14.7741 20.7944 14.887 19.887C15.1611 17.6259 17.95 17.05 19.3685 18.787C19.45 18.8722 19.5463 18.9389 19.6574 18.9852C19.7667 19.0315 19.8815 19.0556 20 19.0556C20.1185 19.0556 20.2333 19.0315 20.3426 18.9852C20.4519 18.9389 20.5481 18.8741 20.6315 18.787C20.7963 18.5796 20.987 18.4 21.2056 18.25C21.4222 18.0982 21.6574 17.9815 21.9093 17.9C22.1611 17.8185 22.4204 17.7741 22.6833 17.7667C22.9481 17.7611 23.2074 17.7926 23.463 17.863C23.6833 17.9333 23.8889 18.0352 24.0815 18.1667C24.2722 18.2963 24.4426 18.4519 24.587 18.6315C24.7333 18.8111 24.8519 19.0093 24.9407 19.2222C25.0296 19.437 25.087 19.6593 25.113 19.8889C25.2241 20.7963 25.013 23.1889 20.6315 25.8963V25.8944ZM24.5056 9.28704H26.1815C25.9 8.11296 24.7815 8.11296 24.5056 9.28704ZM24.5056 9.28704H26.1815C25.9 8.11296 24.7815 8.11296 24.5056 9.28704ZM14.713 9.28704H16.3889C16.113 8.11296 14.9944 8.10556 14.713 9.28704ZM23.7241 17.013C23.3926 16.9148 23.0519 16.8685 22.7074 16.8704C22.363 16.8741 22.0241 16.9259 21.6926 17.0278C21.3611 17.1296 21.0537 17.2778 20.7648 17.4704C20.4778 17.6648 20.2241 17.8944 20.0056 18.1611C19.7852 17.8944 19.5296 17.663 19.2407 17.4704C18.9519 17.2778 18.6426 17.1296 18.3111 17.0278C17.9796 16.9259 17.6407 16.8722 17.2944 16.8704C16.9481 16.8667 16.6074 16.9148 16.2741 17.0111C12.637 18.4611 13.0926 23.1167 18.9 26.6481C19.0648 26.75 19.2407 26.8259 19.4278 26.8778C19.6148 26.9296 19.8056 26.9574 19.9981 26.9574C20.1907 26.9574 20.3833 26.9296 20.5685 26.8778C20.7556 26.8241 20.9315 26.7481 21.0963 26.6481C26.9019 23.1167 27.3593 18.4611 23.7222 17.0111L23.7241 17.013ZM20.6315 25.8944C20.437 26.0111 20.2278 26.0685 20 26.0685C19.7722 26.0685 19.563 26.0111 19.3685 25.8944C14.987 23.1889 14.7741 20.7944 14.887 19.887C15.1611 17.6259 17.95 17.05 19.3685 18.787C19.45 18.8722 19.5463 18.9389 19.6574 18.9852C19.7667 19.0315 19.8815 19.0556 20 19.0556C20.1185 19.0556 20.2333 19.0315 20.3426 18.9852C20.4519 18.9389 20.5481 18.8741 20.6315 18.787C20.7963 18.5796 20.987 18.4 21.2056 18.25C21.4222 18.0982 21.6574 17.9815 21.9093 17.9C22.1611 17.8185 22.4204 17.7741 22.6833 17.7667C22.9481 17.7611 23.2074 17.7926 23.463 17.863C23.6833 17.9333 23.8889 18.0352 24.0815 18.1667C24.2722 18.2963 24.4426 18.4519 24.587 18.6315C24.7333 18.8111 24.8519 19.0093 24.9407 19.2222C25.0296 19.437 25.087 19.6593 25.113 19.8889C25.2241 20.7963 25.013 23.1889 20.6315 25.8963V25.8944ZM20 0C19.6722 0 19.3444 0.00740741 19.0185 0.0240741C18.6907 0.0407407 18.3648 0.0648148 18.0389 0.0962963C17.713 0.127778 17.387 0.168519 17.063 0.216667C16.7407 0.264815 16.4167 0.32037 16.0963 0.385185C15.7759 0.448148 15.4556 0.52037 15.1389 0.6C14.8204 0.67963 14.5056 0.766667 14.1926 0.861111C13.8796 0.957407 13.5685 1.05926 13.2593 1.16852C12.9519 1.27963 12.6463 1.3963 12.3444 1.52222C12.0407 1.6463 11.7426 1.77963 11.4463 1.92037C11.15 2.06111 10.8574 2.20741 10.5704 2.36296C10.2833 2.51852 9.99815 2.67778 9.71667 2.8463C9.43519 3.01481 9.15926 3.18889 8.88704 3.37222C8.61481 3.5537 8.3463 3.74259 8.08519 3.93704C7.82222 4.13148 7.56481 4.33333 7.31111 4.54074C7.05926 4.74815 6.81111 4.96296 6.56852 5.18148C6.32593 5.40185 6.08889 5.62778 5.85741 5.85926C5.62593 6.09074 5.40185 6.32778 5.18148 6.57037C4.96111 6.81296 4.74815 7.06111 4.54074 7.31296C4.33333 7.56667 4.13148 7.82407 3.93704 8.08704C3.74259 8.35 3.5537 8.61667 3.37222 8.88889C3.19074 9.16111 3.01481 9.43704 2.8463 9.71852C2.67778 10 2.51667 10.2833 2.36296 10.5722C2.20926 10.8611 2.06111 11.1537 1.92222 11.4481C1.78148 11.7444 1.65 12.0426 1.52407 12.3463C1.4 12.6481 1.28148 12.9537 1.17037 13.2611C1.06111 13.5704 0.957407 13.8796 0.862963 14.1944C0.766667 14.5074 0.681481 14.8241 0.6 15.1407C0.52037 15.4574 0.45 15.7778 0.385185 16.0981C0.322222 16.4185 0.264815 16.7407 0.216667 17.0648C0.168519 17.387 0.12963 17.713 0.0962963 18.0389C0.0648148 18.3648 0.0407407 18.6907 0.0240741 19.0185C0.00740741 19.3463 0 19.6722 0 20C0 20.3278 0.00740741 20.6556 0.0240741 20.9815C0.0407407 21.3074 0.0648148 21.6352 0.0962963 21.9611C0.127778 22.287 0.168519 22.6111 0.216667 22.9352C0.264815 23.2574 0.32037 23.5815 0.385185 23.9019C0.45 24.2222 0.52037 24.5407 0.6 24.8593C0.67963 25.1759 0.766667 25.4926 0.862963 25.8037C0.957407 26.1167 1.06111 26.4278 1.17037 26.737C1.27963 27.0444 1.39815 27.35 1.52407 27.6519C1.65 27.9556 1.78333 28.2537 1.92222 28.55C2.06111 28.8463 2.20926 29.1389 2.36296 29.4259C2.51667 29.713 2.67963 29.9981 2.8463 30.2796C3.01481 30.5611 3.18889 30.837 3.37222 31.1074C3.5537 31.3796 3.74259 31.6482 3.93704 31.9111C4.13148 32.1741 4.33333 32.4315 4.54074 32.6852C4.74815 32.9389 4.96296 33.1852 5.18148 33.4296C5.40185 33.6722 5.62593 33.9093 5.85741 34.1407C6.08889 34.3722 6.32593 34.5981 6.56852 34.8167C6.81111 35.037 7.05926 35.25 7.31111 35.4574C7.56481 35.6667 7.82222 35.8667 8.08519 36.0611C8.34815 36.2574 8.61481 36.4444 8.88704 36.6259C9.15926 36.8074 9.43519 36.9833 9.71667 37.1519C9.99815 37.3204 10.2815 37.4815 10.5704 37.6352C10.8593 37.7889 11.1519 37.937 11.4463 38.0759C11.7407 38.2148 12.0407 38.3481 12.3444 38.4741C12.6463 38.6 12.9519 38.7167 13.2593 38.8278C13.5685 38.937 13.8778 39.0407 14.1926 39.1352C14.5056 39.2315 14.8204 39.3167 15.1389 39.3982C15.4556 39.4778 15.7759 39.5481 16.0963 39.613C16.4167 39.6759 16.7389 39.7333 17.063 39.7815C17.387 39.8296 17.713 39.8685 18.0389 39.9019C18.3648 39.9352 18.6907 39.9593 19.0185 39.9741C19.3444 39.9907 19.6722 39.9981 20 39.9981C20.3278 39.9981 20.6556 39.9907 20.9815 39.9741C21.3093 39.9593 21.6352 39.9352 21.9611 39.9019C22.287 39.8704 22.613 39.8296 22.937 39.7815C23.2593 39.7333 23.5833 39.6778 23.9037 39.613C24.2241 39.5481 24.5444 39.4778 24.8611 39.3982C25.1796 39.3185 25.4944 39.2315 25.8074 39.1352C26.1204 39.0407 26.4315 38.937 26.7407 38.8278C27.0481 38.7185 27.3537 38.6 27.6556 38.4741C27.9593 38.3481 28.2574 38.2148 28.5537 38.0759C28.85 37.937 29.1426 37.7889 29.4296 37.6352C29.7167 37.4815 30.0019 37.3185 30.2833 37.1519C30.5648 36.9833 30.8407 36.8093 31.113 36.6259C31.3852 36.4444 31.6537 36.2574 31.9148 36.0611C32.1778 35.8667 32.4352 35.6648 32.6889 35.4574C32.9407 35.25 33.1889 35.0352 33.4315 34.8167C33.6741 34.5981 33.9111 34.3722 34.1426 34.1407C34.3741 33.9093 34.5981 33.6722 34.8185 33.4296C35.0389 33.187 35.2519 32.9389 35.4593 32.6852C35.6667 32.4315 35.8685 32.1741 36.063 31.9111C36.2574 31.6482 36.4463 31.3815 36.6278 31.1074C36.8093 30.8352 36.9852 30.5593 37.1537 30.2796C37.3222 29.9981 37.4833 29.713 37.637 29.4259C37.7907 29.137 37.9389 28.8444 38.0778 28.55C38.2167 28.2556 38.35 27.9556 38.4759 27.6519C38.6 27.35 38.7185 27.0444 38.8296 26.737C38.9389 26.4278 39.0426 26.1185 39.137 25.8037C39.2333 25.4907 39.3185 25.1759 39.4 24.8593C39.4796 24.5407 39.55 24.2222 39.6148 23.9019C39.6778 23.5815 39.7352 23.2574 39.7833 22.9352C39.8315 22.6111 39.8704 22.2852 39.9037 21.9611C39.9352 21.6352 39.9593 21.3093 39.9759 20.9815C39.9926 20.6537 40 20.3259 40 20C40 19.6741 39.9926 19.3463 39.9759 19.0185C39.9593 18.6907 39.9352 18.3648 39.9037 18.0389C39.8722 17.713 39.8315 17.387 39.7833 17.0648C39.7352 16.7407 39.6796 16.4185 39.6148 16.0981C39.55 15.7778 39.4796 15.4574 39.4 15.1407C39.3204 14.8241 39.2333 14.5074 39.1389 14.1944C39.0426 13.8815 38.9407 13.5704 38.8296 13.263C38.7204 12.9537 38.6019 12.65 38.4759 12.3463C38.35 12.0444 38.2167 11.7463 38.0778 11.45C37.9389 11.1537 37.7907 10.8611 37.637 10.5741C37.4833 10.2852 37.3222 10 37.1537 9.72037C36.9852 9.43889 36.8111 9.16296 36.6296 8.89074C36.4481 8.61852 36.2593 8.35185 36.0648 8.08889C35.8685 7.82593 35.6685 7.56852 35.4593 7.31482C35.2519 7.06296 35.037 6.81482 34.8185 6.57037C34.5981 6.32778 34.3722 6.09074 34.1407 5.85926C33.9093 5.62778 33.6722 5.40185 33.4296 5.18333C33.187 4.96296 32.9389 4.75 32.6852 4.54259C32.4315 4.33519 32.1741 4.13333 31.9111 3.93889C31.6481 3.74259 31.3815 3.55556 31.1093 3.37407C30.837 3.19259 30.5611 3.01667 30.2796 2.84815C29.9981 2.67963 29.7148 2.51852 29.4259 2.36481C29.137 2.21111 28.8444 2.06296 28.55 1.92407C28.2556 1.78333 27.9556 1.65185 27.6537 1.52593C27.35 1.4 27.0463 1.28333 26.737 1.17222C26.4296 1.06296 26.1185 0.959259 25.8056 0.864815C25.4926 0.768519 25.1759 0.683333 24.8593 0.601852C24.5426 0.522222 24.2222 0.45 23.9019 0.387037C23.5815 0.324074 23.2593 0.266667 22.9352 0.218519C22.613 0.17037 22.287 0.131481 21.9611 0.0981481C21.6352 0.0666667 21.3093 0.0425926 20.9815 0.0259259C20.6537 0.00925926 20.3278 0 20 0ZM28.85 32.5H11.15C11 32.5 10.8519 32.487 10.7037 32.463C10.5556 32.437 10.4111 32.4 10.2704 32.3519C10.1278 32.3037 9.99259 32.2426 9.86111 32.1704C9.72963 32.0981 9.60556 32.0167 9.48704 31.9222C9.36852 31.8296 9.26111 31.7278 9.15926 31.6167C9.05741 31.5056 8.96852 31.387 8.88889 31.2593C8.80926 31.1333 8.73889 31 8.68148 30.863C8.62407 30.7259 8.57778 30.5833 8.54259 30.437H31.4556C31.4204 30.5833 31.3741 30.7241 31.3167 30.863C31.2593 31.0019 31.1889 31.1333 31.1093 31.2593C31.0278 31.3852 30.9389 31.5056 30.8389 31.6167C30.7389 31.7278 30.6296 31.8296 30.5111 31.9222C30.3926 32.0167 30.2685 32.0981 30.137 32.1704C30.0056 32.2426 29.8704 32.3037 29.7278 32.3519C29.5852 32.4019 29.4407 32.4389 29.2944 32.463C29.1463 32.487 28.9981 32.5 28.8481 32.5H28.85ZM31.5241 29.5444H8.47593V14.2815H31.5259V29.5444H31.5241ZM31.5241 13.387H8.47593V11.9556C8.47593 11.7796 8.49259 11.6056 8.52778 11.4352C8.56296 11.263 8.61296 11.0963 8.67963 10.9333C8.7463 10.7704 8.82963 10.6167 8.92778 10.4722C9.02593 10.3259 9.13704 10.1907 9.26111 10.0685C9.38518 9.94444 9.52037 9.83333 9.66667 9.73519C9.81296 9.63889 9.96667 9.55556 10.1278 9.48889C10.2907 9.42222 10.4574 9.37222 10.6296 9.33704C10.8019 9.3037 10.9741 9.28704 11.15 9.28704H12.8815C12.9185 9.4 12.85 9.6 12.8685 9.73148C12.837 11.1185 13.7759 12.5259 14.9944 12.7889C15.0519 12.8019 15.1093 12.8037 15.1685 12.7944C15.2259 12.7852 15.2796 12.7648 15.3315 12.7333C15.3833 12.7019 15.4241 12.663 15.4593 12.6148C15.4944 12.5667 15.5185 12.5148 15.5315 12.4574C15.5444 12.4 15.5463 12.3426 15.5389 12.2833C15.5296 12.2259 15.5093 12.1722 15.4778 12.1204C15.4463 12.0704 15.4074 12.0278 15.3593 11.9926C15.3111 11.9574 15.2593 11.9333 15.2019 11.9185C13.1519 11.3889 13.3648 7.56852 15.5519 7.5C15.6648 7.51111 15.7759 7.53148 15.8852 7.56296C15.9944 7.59444 16.1 7.63333 16.2019 7.68333C16.3037 7.73148 16.4019 7.78889 16.4944 7.85556C16.5852 7.92037 16.6722 7.99444 16.7519 8.07593C16.8315 8.15741 16.9019 8.24444 16.9667 8.33704C17.0296 8.43148 17.087 8.52963 17.1333 8.63333C17.1796 8.73704 17.2167 8.84259 17.2444 8.95185C17.2741 9.06111 17.2926 9.17408 17.3 9.28704H22.6944C22.463 10.7759 23.413 12.4944 24.7889 12.787C24.8556 12.8037 24.9222 12.8056 24.9907 12.7907C25.0593 12.7759 25.1204 12.7481 25.1741 12.7056C25.2296 12.663 25.2722 12.6093 25.3019 12.5481C25.3315 12.487 25.3463 12.4204 25.3444 12.3519C25.3407 12.2481 25.3074 12.1574 25.2426 12.0778C25.1778 11.9981 25.0944 11.9463 24.9963 11.9222C22.9519 11.4167 23.1574 7.55926 25.3463 7.5037C25.4593 7.51482 25.5704 7.53519 25.6796 7.56482C25.7889 7.5963 25.8963 7.63519 25.9981 7.68519C26.1 7.73333 26.1981 7.79074 26.2907 7.85741C26.3833 7.92407 26.4685 7.99815 26.5481 8.07778C26.6278 8.15926 26.7 8.2463 26.763 8.34074C26.8278 8.43519 26.8833 8.53333 26.9296 8.63704C26.9759 8.74074 27.013 8.84815 27.0407 8.95741C27.0685 9.06667 27.087 9.17963 27.0963 9.29259H28.8519C29.0278 9.29259 29.2019 9.30926 29.3722 9.34259C29.5444 9.37778 29.7111 9.42778 29.8741 9.49444C30.037 9.56111 30.1907 9.64444 30.3352 9.74074C30.4815 9.83889 30.6167 9.95 30.7407 10.0741C30.8648 10.1981 30.9759 10.3333 31.0741 10.4778C31.1722 10.6241 31.2537 10.7778 31.3222 10.9389C31.3907 11.1 31.4407 11.2685 31.4741 11.4407C31.5074 11.613 31.5259 11.7852 31.5259 11.9611V13.3926L31.5241 13.387ZM24.5056 9.28704H26.1815C25.9 8.11296 24.7815 8.11296 24.5056 9.28704ZM18.9 26.65C19.0648 26.7519 19.2407 26.8278 19.4278 26.8796C19.6148 26.9315 19.8056 26.9593 19.9981 26.9593C20.1907 26.9593 20.3833 26.9315 20.5685 26.8796C20.7556 26.8259 20.9315 26.75 21.0963 26.65C26.9019 23.1185 27.3593 18.463 23.7222 17.013C23.3907 16.9148 23.05 16.8685 22.7056 16.8704C22.3611 16.8741 22.0222 16.9259 21.6907 17.0278C21.3593 17.1296 21.0519 17.2778 20.763 17.4704C20.4759 17.6648 20.2222 17.8944 20.0037 18.1611C19.7833 17.8944 19.5278 17.663 19.2389 17.4704C18.95 17.2778 18.6407 17.1296 18.3093 17.0278C17.9778 16.9259 17.6389 16.8722 17.2926 16.8704C16.9463 16.8667 16.6056 16.9148 16.2722 17.0111C12.6352 18.4611 13.0907 23.1167 18.8981 26.6481L18.9 26.65ZM14.887 19.887C15.1611 17.6259 17.95 17.05 19.3685 18.787C19.45 18.8722 19.5463 18.9389 19.6574 18.9852C19.7667 19.0315 19.8815 19.0556 20 19.0556C20.1185 19.0556 20.2333 19.0315 20.3426 18.9852C20.4519 18.9389 20.5481 18.8741 20.6315 18.787C20.7963 18.5796 20.987 18.4 21.2056 18.25C21.4222 18.0982 21.6574 17.9815 21.9093 17.9C22.1611 17.8185 22.4204 17.7741 22.6833 17.7667C22.9481 17.7611 23.2074 17.7926 23.463 17.863C23.6833 17.9333 23.8889 18.0352 24.0815 18.1667C24.2722 18.2963 24.4426 18.4519 24.587 18.6315C24.7333 18.8111 24.8519 19.0093 24.9407 19.2222C25.0296 19.437 25.087 19.6593 25.113 19.8889C25.2241 20.7963 25.013 23.1889 20.6315 25.8963C20.437 26.013 20.2278 26.0704 20 26.0704C19.7722 26.0704 19.563 26.013 19.3685 25.8963C14.987 23.1907 14.7741 20.7963 14.887 19.8889V19.887ZM14.713 9.28704H16.3889C16.113 8.11296 14.9944 8.10556 14.713 9.28704ZM23.7241 17.013C23.3926 16.9148 23.0519 16.8685 22.7074 16.8704C22.363 16.8741 22.0241 16.9259 21.6926 17.0278C21.3611 17.1296 21.0537 17.2778 20.7648 17.4704C20.4778 17.6648 20.2241 17.8944 20.0056 18.1611C19.7852 17.8944 19.5296 17.663 19.2407 17.4704C18.9519 17.2778 18.6426 17.1296 18.3111 17.0278C17.9796 16.9259 17.6407 16.8722 17.2944 16.8704C16.9481 16.8667 16.6074 16.9148 16.2741 17.0111C12.637 18.4611 13.0926 23.1167 18.9 26.6481C19.0648 26.75 19.2407 26.8259 19.4278 26.8778C19.6148 26.9296 19.8056 26.9574 19.9981 26.9574C20.1907 26.9574 20.3833 26.9296 20.5685 26.8778C20.7556 26.8241 20.9315 26.7481 21.0963 26.6481C26.9019 23.1167 27.3593 18.4611 23.7222 17.0111L23.7241 17.013ZM20.6315 25.8944C20.437 26.0111 20.2278 26.0685 20 26.0685C19.7722 26.0685 19.563 26.0111 19.3685 25.8944C14.987 23.1889 14.7741 20.7944 14.887 19.887C15.1611 17.6259 17.95 17.05 19.3685 18.787C19.45 18.8722 19.5463 18.9389 19.6574 18.9852C19.7667 19.0315 19.8815 19.0556 20 19.0556C20.1185 19.0556 20.2333 19.0315 20.3426 18.9852C20.4519 18.9389 20.5481 18.8741 20.6315 18.787C20.7963 18.5796 20.987 18.4 21.2056 18.25C21.4222 18.0982 21.6574 17.9815 21.9093 17.9C22.1611 17.8185 22.4204 17.7741 22.6833 17.7667C22.9481 17.7611 23.2074 17.7926 23.463 17.863C23.6833 17.9333 23.8889 18.0352 24.0815 18.1667C24.2722 18.2963 24.4426 18.4519 24.587 18.6315C24.7333 18.8111 24.8519 19.0093 24.9407 19.2222C25.0296 19.437 25.087 19.6593 25.113 19.8889C25.2241 20.7963 25.013 23.1889 20.6315 25.8963V25.8944ZM14.713 9.28704H16.3889C16.113 8.11296 14.9944 8.10556 14.713 9.28704ZM24.5056 9.28704H26.1815C25.9 8.11296 24.7815 8.11296 24.5056 9.28704ZM24.5056 9.28704H26.1815C25.9 8.11296 24.7815 8.11296 24.5056 9.28704ZM23.7241 17.013C23.3926 16.9148 23.0519 16.8685 22.7074 16.8704C22.363 16.8741 22.0241 16.9259 21.6926 17.0278C21.3611 17.1296 21.0537 17.2778 20.7648 17.4704C20.4778 17.6648 20.2241 17.8944 20.0056 18.1611C19.7852 17.8944 19.5296 17.663 19.2407 17.4704C18.9519 17.2778 18.6426 17.1296 18.3111 17.0278C17.9796 16.9259 17.6407 16.8722 17.2944 16.8704C16.9481 16.8667 16.6074 16.9148 16.2741 17.0111C12.637 18.4611 13.0926 23.1167 18.9 26.6481C19.0648 26.75 19.2407 26.8259 19.4278 26.8778C19.6148 26.9296 19.8056 26.9574 19.9981 26.9574C20.1907 26.9574 20.3833 26.9296 20.5685 26.8778C20.7556 26.8241 20.9315 26.7481 21.0963 26.6481C26.9019 23.1167 27.3593 18.4611 23.7222 17.0111L23.7241 17.013ZM20.6315 25.8944C20.437 26.0111 20.2278 26.0685 20 26.0685C19.7722 26.0685 19.563 26.0111 19.3685 25.8944C14.987 23.1889 14.7741 20.7944 14.887 19.887C15.1611 17.6259 17.95 17.05 19.3685 18.787C19.45 18.8722 19.5463 18.9389 19.6574 18.9852C19.7667 19.0315 19.8815 19.0556 20 19.0556C20.1185 19.0556 20.2333 19.0315 20.3426 18.9852C20.4519 18.9389 20.5481 18.8741 20.6315 18.787C20.7963 18.5796 20.987 18.4 21.2056 18.25C21.4222 18.0982 21.6574 17.9815 21.9093 17.9C22.1611 17.8185 22.4204 17.7741 22.6833 17.7667C22.9481 17.7611 23.2074 17.7926 23.463 17.863C23.6833 17.9333 23.8889 18.0352 24.0815 18.1667C24.2722 18.2963 24.4426 18.4519 24.587 18.6315C24.7333 18.8111 24.8519 19.0093 24.9407 19.2222C25.0296 19.437 25.087 19.6593 25.113 19.8889C25.2241 20.7963 25.013 23.1889 20.6315 25.8963V25.8944ZM14.713 9.28704H16.3889C16.113 8.11296 14.9944 8.10556 14.713 9.28704ZM23.7241 17.013C23.3926 16.9148 23.0519 16.8685 22.7074 16.8704C22.363 16.8741 22.0241 16.9259 21.6926 17.0278C21.3611 17.1296 21.0537 17.2778 20.7648 17.4704C20.4778 17.6648 20.2241 17.8944 20.0056 18.1611C19.7852 17.8944 19.5296 17.663 19.2407 17.4704C18.9519 17.2778 18.6426 17.1296 18.3111 17.0278C17.9796 16.9259 17.6407 16.8722 17.2944 16.8704C16.9481 16.8667 16.6074 16.9148 16.2741 17.0111C12.637 18.4611 13.0926 23.1167 18.9 26.6481C19.0648 26.75 19.2407 26.8259 19.4278 26.8778C19.6148 26.9296 19.8056 26.9574 19.9981 26.9574C20.1907 26.9574 20.3833 26.9296 20.5685 26.8778C20.7556 26.8241 20.9315 26.7481 21.0963 26.6481C26.9019 23.1167 27.3593 18.4611 23.7222 17.0111L23.7241 17.013ZM20.6315 25.8944C20.437 26.0111 20.2278 26.0685 20 26.0685C19.7722 26.0685 19.563 26.0111 19.3685 25.8944C14.987 23.1889 14.7741 20.7944 14.887 19.887C15.1611 17.6259 17.95 17.05 19.3685 18.787C19.45 18.8722 19.5463 18.9389 19.6574 18.9852C19.7667 19.0315 19.8815 19.0556 20 19.0556C20.1185 19.0556 20.2333 19.0315 20.3426 18.9852C20.4519 18.9389 20.5481 18.8741 20.6315 18.787C20.7963 18.5796 20.987 18.4 21.2056 18.25C21.4222 18.0982 21.6574 17.9815 21.9093 17.9C22.1611 17.8185 22.4204 17.7741 22.6833 17.7667C22.9481 17.7611 23.2074 17.7926 23.463 17.863C23.6833 17.9333 23.8889 18.0352 24.0815 18.1667C24.2722 18.2963 24.4426 18.4519 24.587 18.6315C24.7333 18.8111 24.8519 19.0093 24.9407 19.2222C25.0296 19.437 25.087 19.6593 25.113 19.8889C25.2241 20.7963 25.013 23.1889 20.6315 25.8963V25.8944ZM14.713 9.28704H16.3889C16.113 8.11296 14.9944 8.10556 14.713 9.28704ZM24.5056 9.28704H26.1815C25.9 8.11296 24.7815 8.11296 24.5056 9.28704ZM24.5056 9.28704H26.1815C25.9 8.11296 24.7815 8.11296 24.5056 9.28704ZM23.7241 17.013C23.3926 16.9148 23.0519 16.8685 22.7074 16.8704C22.363 16.8741 22.0241 16.9259 21.6926 17.0278C21.3611 17.1296 21.0537 17.2778 20.7648 17.4704C20.4778 17.6648 20.2241 17.8944 20.0056 18.1611C19.7852 17.8944 19.5296 17.663 19.2407 17.4704C18.9519 17.2778 18.6426 17.1296 18.3111 17.0278C17.9796 16.9259 17.6407 16.8722 17.2944 16.8704C16.9481 16.8667 16.6074 16.9148 16.2741 17.0111C12.637 18.4611 13.0926 23.1167 18.9 26.6481C19.0648 26.75 19.2407 26.8259 19.4278 26.8778C19.6148 26.9296 19.8056 26.9574 19.9981 26.9574C20.1907 26.9574 20.3833 26.9296 20.5685 26.8778C20.7556 26.8241 20.9315 26.7481 21.0963 26.6481C26.9019 23.1167 27.3593 18.4611 23.7222 17.0111L23.7241 17.013ZM20.6315 25.8944C20.437 26.0111 20.2278 26.0685 20 26.0685C19.7722 26.0685 19.563 26.0111 19.3685 25.8944C14.987 23.1889 14.7741 20.7944 14.887 19.887C15.1611 17.6259 17.95 17.05 19.3685 18.787C19.45 18.8722 19.5463 18.9389 19.6574 18.9852C19.7667 19.0315 19.8815 19.0556 20 19.0556C20.1185 19.0556 20.2333 19.0315 20.3426 18.9852C20.4519 18.9389 20.5481 18.8741 20.6315 18.787C20.7963 18.5796 20.987 18.4 21.2056 18.25C21.4222 18.0982 21.6574 17.9815 21.9093 17.9C22.1611 17.8185 22.4204 17.7741 22.6833 17.7667C22.9481 17.7611 23.2074 17.7926 23.463 17.863C23.6833 17.9333 23.8889 18.0352 24.0815 18.1667C24.2722 18.2963 24.4426 18.4519 24.587 18.6315C24.7333 18.8111 24.8519 19.0093 24.9407 19.2222C25.0296 19.437 25.087 19.6593 25.113 19.8889C25.2241 20.7963 25.013 23.1889 20.6315 25.8963V25.8944ZM14.713 9.28704H16.3889C16.113 8.11296 14.9944 8.10556 14.713 9.28704ZM23.7241 17.013C23.3926 16.9148 23.0519 16.8685 22.7074 16.8704C22.363 16.8741 22.0241 16.9259 21.6926 17.0278C21.3611 17.1296 21.0537 17.2778 20.7648 17.4704C20.4778 17.6648 20.2241 17.8944 20.0056 18.1611C19.7852 17.8944 19.5296 17.663 19.2407 17.4704C18.9519 17.2778 18.6426 17.1296 18.3111 17.0278C17.9796 16.9259 17.6407 16.8722 17.2944 16.8704C16.9481 16.8667 16.6074 16.9148 16.2741 17.0111C12.637 18.4611 13.0926 23.1167 18.9 26.6481C19.0648 26.75 19.2407 26.8259 19.4278 26.8778C19.6148 26.9296 19.8056 26.9574 19.9981 26.9574C20.1907 26.9574 20.3833 26.9296 20.5685 26.8778C20.7556 26.8241 20.9315 26.7481 21.0963 26.6481C26.9019 23.1167 27.3593 18.4611 23.7222 17.0111L23.7241 17.013ZM20.6315 25.8944C20.437 26.0111 20.2278 26.0685 20 26.0685C19.7722 26.0685 19.563 26.0111 19.3685 25.8944C14.987 23.1889 14.7741 20.7944 14.887 19.887C15.1611 17.6259 17.95 17.05 19.3685 18.787C19.45 18.8722 19.5463 18.9389 19.6574 18.9852C19.7667 19.0315 19.8815 19.0556 20 19.0556C20.1185 19.0556 20.2333 19.0315 20.3426 18.9852C20.4519 18.9389 20.5481 18.8741 20.6315 18.787C20.7963 18.5796 20.987 18.4 21.2056 18.25C21.4222 18.0982 21.6574 17.9815 21.9093 17.9C22.1611 17.8185 22.4204 17.7741 22.6833 17.7667C22.9481 17.7611 23.2074 17.7926 23.463 17.863C23.6833 17.9333 23.8889 18.0352 24.0815 18.1667C24.2722 18.2963 24.4426 18.4519 24.587 18.6315C24.7333 18.8111 24.8519 19.0093 24.9407 19.2222C25.0296 19.437 25.087 19.6593 25.113 19.8889C25.2241 20.7963 25.013 23.1889 20.6315 25.8963V25.8944ZM14.713 9.28704H16.3889C16.113 8.11296 14.9944 8.10556 14.713 9.28704ZM24.5056 9.28704H26.1815C25.9 8.11296 24.7815 8.11296 24.5056 9.28704ZM24.5056 9.28704H26.1815C25.9 8.11296 24.7815 8.11296 24.5056 9.28704ZM23.7241 17.013C23.3926 16.9148 23.0519 16.8685 22.7074 16.8704C22.363 16.8741 22.0241 16.9259 21.6926 17.0278C21.3611 17.1296 21.0537 17.2778 20.7648 17.4704C20.4778 17.6648 20.2241 17.8944 20.0056 18.1611C19.7852 17.8944 19.5296 17.663 19.2407 17.4704C18.9519 17.2778 18.6426 17.1296 18.3111 17.0278C17.9796 16.9259 17.6407 16.8722 17.2944 16.8704C16.9481 16.8667 16.6074 16.9148 16.2741 17.0111C12.637 18.4611 13.0926 23.1167 18.9 26.6481C19.0648 26.75 19.2407 26.8259 19.4278 26.8778C19.6148 26.9296 19.8056 26.9574 19.9981 26.9574C20.1907 26.9574 20.3833 26.9296 20.5685 26.8778C20.7556 26.8241 20.9315 26.7481 21.0963 26.6481C26.9019 23.1167 27.3593 18.4611 23.7222 17.0111L23.7241 17.013ZM20.6315 25.8944C20.437 26.0111 20.2278 26.0685 20 26.0685C19.7722 26.0685 19.563 26.0111 19.3685 25.8944C14.987 23.1889 14.7741 20.7944 14.887 19.887C15.1611 17.6259 17.95 17.05 19.3685 18.787C19.45 18.8722 19.5463 18.9389 19.6574 18.9852C19.7667 19.0315 19.8815 19.0556 20 19.0556C20.1185 19.0556 20.2333 19.0315 20.3426 18.9852C20.4519 18.9389 20.5481 18.8741 20.6315 18.787C20.7963 18.5796 20.987 18.4 21.2056 18.25C21.4222 18.0982 21.6574 17.9815 21.9093 17.9C22.1611 17.8185 22.4204 17.7741 22.6833 17.7667C22.9481 17.7611 23.2074 17.7926 23.463 17.863C23.6833 17.9333 23.8889 18.0352 24.0815 18.1667C24.2722 18.2963 24.4426 18.4519 24.587 18.6315C24.7333 18.8111 24.8519 19.0093 24.9407 19.2222C25.0296 19.437 25.087 19.6593 25.113 19.8889C25.2241 20.7963 25.013 23.1889 20.6315 25.8963V25.8944ZM14.713 9.28704H16.3889C16.113 8.11296 14.9944 8.10556 14.713 9.28704ZM23.7241 17.013C23.3926 16.9148 23.0519 16.8685 22.7074 16.8704C22.363 16.8741 22.0241 16.9259 21.6926 17.0278C21.3611 17.1296 21.0537 17.2778 20.7648 17.4704C20.4778 17.6648 20.2241 17.8944 20.0056 18.1611C19.7852 17.8944 19.5296 17.663 19.2407 17.4704C18.9519 17.2778 18.6426 17.1296 18.3111 17.0278C17.9796 16.9259 17.6407 16.8722 17.2944 16.8704C16.9481 16.8667 16.6074 16.9148 16.2741 17.0111C12.637 18.4611 13.0926 23.1167 18.9 26.6481C19.0648 26.75 19.2407 26.8259 19.4278 26.8778C19.6148 26.9296 19.8056 26.9574 19.9981 26.9574C20.1907 26.9574 20.3833 26.9296 20.5685 26.8778C20.7556 26.8241 20.9315 26.7481 21.0963 26.6481C26.9019 23.1167 27.3593 18.4611 23.7222 17.0111L23.7241 17.013ZM20.6315 25.8944C20.437 26.0111 20.2278 26.0685 20 26.0685C19.7722 26.0685 19.563 26.0111 19.3685 25.8944C14.987 23.1889 14.7741 20.7944 14.887 19.887C15.1611 17.6259 17.95 17.05 19.3685 18.787C19.45 18.8722 19.5463 18.9389 19.6574 18.9852C19.7667 19.0315 19.8815 19.0556 20 19.0556C20.1185 19.0556 20.2333 19.0315 20.3426 18.9852C20.4519 18.9389 20.5481 18.8741 20.6315 18.787C20.7963 18.5796 20.987 18.4 21.2056 18.25C21.4222 18.0982 21.6574 17.9815 21.9093 17.9C22.1611 17.8185 22.4204 17.7741 22.6833 17.7667C22.9481 17.7611 23.2074 17.7926 23.463 17.863C23.6833 17.9333 23.8889 18.0352 24.0815 18.1667C24.2722 18.2963 24.4426 18.4519 24.587 18.6315C24.7333 18.8111 24.8519 19.0093 24.9407 19.2222C25.0296 19.437 25.087 19.6593 25.113 19.8889C25.2241 20.7963 25.013 23.1889 20.6315 25.8963V25.8944ZM14.713 9.28704H16.3889C16.113 8.11296 14.9944 8.10556 14.713 9.28704ZM24.5056 9.28704H26.1815C25.9 8.11296 24.7815 8.11296 24.5056 9.28704ZM24.5056 9.28704H26.1815C25.9 8.11296 24.7815 8.11296 24.5056 9.28704ZM23.7241 17.013C23.3926 16.9148 23.0519 16.8685 22.7074 16.8704C22.363 16.8741 22.0241 16.9259 21.6926 17.0278C21.3611 17.1296 21.0537 17.2778 20.7648 17.4704C20.4778 17.6648 20.2241 17.8944 20.0056 18.1611C19.7852 17.8944 19.5296 17.663 19.2407 17.4704C18.9519 17.2778 18.6426 17.1296 18.3111 17.0278C17.9796 16.9259 17.6407 16.8722 17.2944 16.8704C16.9481 16.8667 16.6074 16.9148 16.2741 17.0111C12.637 18.4611 13.0926 23.1167 18.9 26.6481C19.0648 26.75 19.2407 26.8259 19.4278 26.8778C19.6148 26.9296 19.8056 26.9574 19.9981 26.9574C20.1907 26.9574 20.3833 26.9296 20.5685 26.8778C20.7556 26.8241 20.9315 26.7481 21.0963 26.6481C26.9019 23.1167 27.3593 18.4611 23.7222 17.0111L23.7241 17.013ZM20.6315 25.8944C20.437 26.0111 20.2278 26.0685 20 26.0685C19.7722 26.0685 19.563 26.0111 19.3685 25.8944C14.987 23.1889 14.7741 20.7944 14.887 19.887C15.1611 17.6259 17.95 17.05 19.3685 18.787C19.45 18.8722 19.5463 18.9389 19.6574 18.9852C19.7667 19.0315 19.8815 19.0556 20 19.0556C20.1185 19.0556 20.2333 19.0315 20.3426 18.9852C20.4519 18.9389 20.5481 18.8741 20.6315 18.787C20.7963 18.5796 20.987 18.4 21.2056 18.25C21.4222 18.0982 21.6574 17.9815 21.9093 17.9C22.1611 17.8185 22.4204 17.7741 22.6833 17.7667C22.9481 17.7611 23.2074 17.7926 23.463 17.863C23.6833 17.9333 23.8889 18.0352 24.0815 18.1667C24.2722 18.2963 24.4426 18.4519 24.587 18.6315C24.7333 18.8111 24.8519 19.0093 24.9407 19.2222C25.0296 19.437 25.087 19.6593 25.113 19.8889C25.2241 20.7963 25.013 23.1889 20.6315 25.8963V25.8944ZM14.713 9.28704H16.3889C16.113 8.11296 14.9944 8.10556 14.713 9.28704ZM23.7241 17.013C23.3926 16.9148 23.0519 16.8685 22.7074 16.8704C22.363 16.8741 22.0241 16.9259 21.6926 17.0278C21.3611 17.1296 21.0537 17.2778 20.7648 17.4704C20.4778 17.6648 20.2241 17.8944 20.0056 18.1611C19.7852 17.8944 19.5296 17.663 19.2407 17.4704C18.9519 17.2778 18.6426 17.1296 18.3111 17.0278C17.9796 16.9259 17.6407 16.8722 17.2944 16.8704C16.9481 16.8667 16.6074 16.9148 16.2741 17.0111C12.637 18.4611 13.0926 23.1167 18.9 26.6481C19.0648 26.75 19.2407 26.8259 19.4278 26.8778C19.6148 26.9296 19.8056 26.9574 19.9981 26.9574C20.1907 26.9574 20.3833 26.9296 20.5685 26.8778C20.7556 26.8241 20.9315 26.7481 21.0963 26.6481C26.9019 23.1167 27.3593 18.4611 23.7222 17.0111L23.7241 17.013ZM20.6315 25.8944C20.437 26.0111 20.2278 26.0685 20 26.0685C19.7722 26.0685 19.563 26.0111 19.3685 25.8944C14.987 23.1889 14.7741 20.7944 14.887 19.887C15.1611 17.6259 17.95 17.05 19.3685 18.787C19.45 18.8722 19.5463 18.9389 19.6574 18.9852C19.7667 19.0315 19.8815 19.0556 20 19.0556C20.1185 19.0556 20.2333 19.0315 20.3426 18.9852C20.4519 18.9389 20.5481 18.8741 20.6315 18.787C20.7963 18.5796 20.987 18.4 21.2056 18.25C21.4222 18.0982 21.6574 17.9815 21.9093 17.9C22.1611 17.8185 22.4204 17.7741 22.6833 17.7667C22.9481 17.7611 23.2074 17.7926 23.463 17.863C23.6833 17.9333 23.8889 18.0352 24.0815 18.1667C24.2722 18.2963 24.4426 18.4519 24.587 18.6315C24.7333 18.8111 24.8519 19.0093 24.9407 19.2222C25.0296 19.437 25.087 19.6593 25.113 19.8889C25.2241 20.7963 25.013 23.1889 20.6315 25.8963V25.8944ZM14.713 9.28704H16.3889C16.113 8.11296 14.9944 8.10556 14.713 9.28704ZM24.5056 9.28704H26.1815C25.9 8.11296 24.7815 8.11296 24.5056 9.28704ZM24.5056 9.28704H26.1815C25.9 8.11296 24.7815 8.11296 24.5056 9.28704ZM23.7241 17.013C23.3926 16.9148 23.0519 16.8685 22.7074 16.8704C22.363 16.8741 22.0241 16.9259 21.6926 17.0278C21.3611 17.1296 21.0537 17.2778 20.7648 17.4704C20.4778 17.6648 20.2241 17.8944 20.0056 18.1611C19.7852 17.8944 19.5296 17.663 19.2407 17.4704C18.9519 17.2778 18.6426 17.1296 18.3111 17.0278C17.9796 16.9259 17.6407 16.8722 17.2944 16.8704C16.9481 16.8667 16.6074 16.9148 16.2741 17.0111C12.637 18.4611 13.0926 23.1167 18.9 26.6481C19.0648 26.75 19.2407 26.8259 19.4278 26.8778C19.6148 26.9296 19.8056 26.9574 19.9981 26.9574C20.1907 26.9574 20.3833 26.9296 20.5685 26.8778C20.7556 26.8241 20.9315 26.7481 21.0963 26.6481C26.9019 23.1167 27.3593 18.4611 23.7222 17.0111L23.7241 17.013ZM20.6315 25.8944C20.437 26.0111 20.2278 26.0685 20 26.0685C19.7722 26.0685 19.563 26.0111 19.3685 25.8944C14.987 23.1889 14.7741 20.7944 14.887 19.887C15.1611 17.6259 17.95 17.05 19.3685 18.787C19.45 18.8722 19.5463 18.9389 19.6574 18.9852C19.7667 19.0315 19.8815 19.0556 20 19.0556C20.1185 19.0556 20.2333 19.0315 20.3426 18.9852C20.4519 18.9389 20.5481 18.8741 20.6315 18.787C20.7963 18.5796 20.987 18.4 21.2056 18.25C21.4222 18.0982 21.6574 17.9815 21.9093 17.9C22.1611 17.8185 22.4204 17.7741 22.6833 17.7667C22.9481 17.7611 23.2074 17.7926 23.463 17.863C23.6833 17.9333 23.8889 18.0352 24.0815 18.1667C24.2722 18.2963 24.4426 18.4519 24.587 18.6315C24.7333 18.8111 24.8519 19.0093 24.9407 19.2222C25.0296 19.437 25.087 19.6593 25.113 19.8889C25.2241 20.7963 25.013 23.1889 20.6315 25.8963V25.8944ZM14.713 9.28704H16.3889C16.113 8.11296 14.9944 8.10556 14.713 9.28704ZM23.7241 17.013C23.3926 16.9148 23.0519 16.8685 22.7074 16.8704C22.363 16.8741 22.0241 16.9259 21.6926 17.0278C21.3611 17.1296 21.0537 17.2778 20.7648 17.4704C20.4778 17.6648 20.2241 17.8944 20.0056 18.1611C19.7852 17.8944 19.5296 17.663 19.2407 17.4704C18.9519 17.2778 18.6426 17.1296 18.3111 17.0278C17.9796 16.9259 17.6407 16.8722 17.2944 16.8704C16.9481 16.8667 16.6074 16.9148 16.2741 17.0111C12.637 18.4611 13.0926 23.1167 18.9 26.6481C19.0648 26.75 19.2407 26.8259 19.4278 26.8778C19.6148 26.9296 19.8056 26.9574 19.9981 26.9574C20.1907 26.9574 20.3833 26.9296 20.5685 26.8778C20.7556 26.8241 20.9315 26.7481 21.0963 26.6481C26.9019 23.1167 27.3593 18.4611 23.7222 17.0111L23.7241 17.013ZM20.6315 25.8944C20.437 26.0111 20.2278 26.0685 20 26.0685C19.7722 26.0685 19.563 26.0111 19.3685 25.8944C14.987 23.1889 14.7741 20.7944 14.887 19.887C15.1611 17.6259 17.95 17.05 19.3685 18.787C19.45 18.8722 19.5463 18.9389 19.6574 18.9852C19.7667 19.0315 19.8815 19.0556 20 19.0556C20.1185 19.0556 20.2333 19.0315 20.3426 18.9852C20.4519 18.9389 20.5481 18.8741 20.6315 18.787C20.7963 18.5796 20.987 18.4 21.2056 18.25C21.4222 18.0982 21.6574 17.9815 21.9093 17.9C22.1611 17.8185 22.4204 17.7741 22.6833 17.7667C22.9481 17.7611 23.2074 17.7926 23.463 17.863C23.6833 17.9333 23.8889 18.0352 24.0815 18.1667C24.2722 18.2963 24.4426 18.4519 24.587 18.6315C24.7333 18.8111 24.8519 19.0093 24.9407 19.2222C25.0296 19.437 25.087 19.6593 25.113 19.8889C25.2241 20.7963 25.013 23.1889 20.6315 25.8963V25.8944ZM14.713 9.28704H16.3889C16.113 8.11296 14.9944 8.10556 14.713 9.28704ZM24.5056 9.28704H26.1815C25.9 8.11296 24.7815 8.11296 24.5056 9.28704ZM24.5056 9.28704H26.1815C25.9 8.11296 24.7815 8.11296 24.5056 9.28704ZM23.7241 17.013C23.3926 16.9148 23.0519 16.8685 22.7074 16.8704C22.363 16.8741 22.0241 16.9259 21.6926 17.0278C21.3611 17.1296 21.0537 17.2778 20.7648 17.4704C20.4778 17.6648 20.2241 17.8944 20.0056 18.1611C19.7852 17.8944 19.5296 17.663 19.2407 17.4704C18.9519 17.2778 18.6426 17.1296 18.3111 17.0278C17.9796 16.9259 17.6407 16.8722 17.2944 16.8704C16.9481 16.8667 16.6074 16.9148 16.2741 17.0111C12.637 18.4611 13.0926 23.1167 18.9 26.6481C19.0648 26.75 19.2407 26.8259 19.4278 26.8778C19.6148 26.9296 19.8056 26.9574 19.9981 26.9574C20.1907 26.9574 20.3833 26.9296 20.5685 26.8778C20.7556 26.8241 20.9315 26.7481 21.0963 26.6481C26.9019 23.1167 27.3593 18.4611 23.7222 17.0111L23.7241 17.013ZM20.6315 25.8944C20.437 26.0111 20.2278 26.0685 20 26.0685C19.7722 26.0685 19.563 26.0111 19.3685 25.8944C14.987 23.1889 14.7741 20.7944 14.887 19.887C15.1611 17.6259 17.95 17.05 19.3685 18.787C19.45 18.8722 19.5463 18.9389 19.6574 18.9852C19.7667 19.0315 19.8815 19.0556 20 19.0556C20.1185 19.0556 20.2333 19.0315 20.3426 18.9852C20.4519 18.9389 20.5481 18.8741 20.6315 18.787C20.7963 18.5796 20.987 18.4 21.2056 18.25C21.4222 18.0982 21.6574 17.9815 21.9093 17.9C22.1611 17.8185 22.4204 17.7741 22.6833 17.7667C22.9481 17.7611 23.2074 17.7926 23.463 17.863C23.6833 17.9333 23.8889 18.0352 24.0815 18.1667C24.2722 18.2963 24.4426 18.4519 24.587 18.6315C24.7333 18.8111 24.8519 19.0093 24.9407 19.2222C25.0296 19.437 25.087 19.6593 25.113 19.8889C25.2241 20.7963 25.013 23.1889 20.6315 25.8963V25.8944ZM14.713 9.28704H16.3889C16.113 8.11296 14.9944 8.10556 14.713 9.28704ZM23.7241 17.013C23.3926 16.9148 23.0519 16.8685 22.7074 16.8704C22.363 16.8741 22.0241 16.9259 21.6926 17.0278C21.3611 17.1296 21.0537 17.2778 20.7648 17.4704C20.4778 17.6648 20.2241 17.8944 20.0056 18.1611C19.7852 17.8944 19.5296 17.663 19.2407 17.4704C18.9519 17.2778 18.6426 17.1296 18.3111 17.0278C17.9796 16.9259 17.6407 16.8722 17.2944 16.8704C16.9481 16.8667 16.6074 16.9148 16.2741 17.0111C12.637 18.4611 13.0926 23.1167 18.9 26.6481C19.0648 26.75 19.2407 26.8259 19.4278 26.8778C19.6148 26.9296 19.8056 26.9574 19.9981 26.9574C20.1907 26.9574 20.3833 26.9296 20.5685 26.8778C20.7556 26.8241 20.9315 26.7481 21.0963 26.6481C26.9019 23.1167 27.3593 18.4611 23.7222 17.0111L23.7241 17.013ZM20.6315 25.8944C20.437 26.0111 20.2278 26.0685 20 26.0685C19.7722 26.0685 19.563 26.0111 19.3685 25.8944C14.987 23.1889 14.7741 20.7944 14.887 19.887C15.1611 17.6259 17.95 17.05 19.3685 18.787C19.45 18.8722 19.5463 18.9389 19.6574 18.9852C19.7667 19.0315 19.8815 19.0556 20 19.0556C20.1185 19.0556 20.2333 19.0315 20.3426 18.9852C20.4519 18.9389 20.5481 18.8741 20.6315 18.787C20.7963 18.5796 20.987 18.4 21.2056 18.25C21.4222 18.0982 21.6574 17.9815 21.9093 17.9C22.1611 17.8185 22.4204 17.7741 22.6833 17.7667C22.9481 17.7611 23.2074 17.7926 23.463 17.863C23.6833 17.9333 23.8889 18.0352 24.0815 18.1667C24.2722 18.2963 24.4426 18.4519 24.587 18.6315C24.7333 18.8111 24.8519 19.0093 24.9407 19.2222C25.0296 19.437 25.087 19.6593 25.113 19.8889C25.2241 20.7963 25.013 23.1889 20.6315 25.8963V25.8944ZM14.713 9.28704H16.3889C16.113 8.11296 14.9944 8.10556 14.713 9.28704ZM24.5056 9.28704H26.1815C25.9 8.11296 24.7815 8.11296 24.5056 9.28704ZM24.5056 9.28704H26.1815C25.9 8.11296 24.7815 8.11296 24.5056 9.28704ZM23.7241 17.013C23.3926 16.9148 23.0519 16.8685 22.7074 16.8704C22.363 16.8741 22.0241 16.9259 21.6926 17.0278C21.3611 17.1296 21.0537 17.2778 20.7648 17.4704C20.4778 17.6648 20.2241 17.8944 20.0056 18.1611C19.7852 17.8944 19.5296 17.663 19.2407 17.4704C18.9519 17.2778 18.6426 17.1296 18.3111 17.0278C17.9796 16.9259 17.6407 16.8722 17.2944 16.8704C16.9481 16.8667 16.6074 16.9148 16.2741 17.0111C12.637 18.4611 13.0926 23.1167 18.9 26.6481C19.0648 26.75 19.2407 26.8259 19.4278 26.8778C19.6148 26.9296 19.8056 26.9574 19.9981 26.9574C20.1907 26.9574 20.3833 26.9296 20.5685 26.8778C20.7556 26.8241 20.9315 26.7481 21.0963 26.6481C26.9019 23.1167 27.3593 18.4611 23.7222 17.0111L23.7241 17.013ZM20.6315 25.8944C20.437 26.0111 20.2278 26.0685 20 26.0685C19.7722 26.0685 19.563 26.0111 19.3685 25.8944C14.987 23.1889 14.7741 20.7944 14.887 19.887C15.1611 17.6259 17.95 17.05 19.3685 18.787C19.45 18.8722 19.5463 18.9389 19.6574 18.9852C19.7667 19.0315 19.8815 19.0556 20 19.0556C20.1185 19.0556 20.2333 19.0315 20.3426 18.9852C20.4519 18.9389 20.5481 18.8741 20.6315 18.787C20.7963 18.5796 20.987 18.4 21.2056 18.25C21.4222 18.0982 21.6574 17.9815 21.9093 17.9C22.1611 17.8185 22.4204 17.7741 22.6833 17.7667C22.9481 17.7611 23.2074 17.7926 23.463 17.863C23.6833 17.9333 23.8889 18.0352 24.0815 18.1667C24.2722 18.2963 24.4426 18.4519 24.587 18.6315C24.7333 18.8111 24.8519 19.0093 24.9407 19.2222C25.0296 19.437 25.087 19.6593 25.113 19.8889C25.2241 20.7963 25.013 23.1889 20.6315 25.8963V25.8944ZM14.713 9.28704H16.3889C16.113 8.11296 14.9944 8.10556 14.713 9.28704ZM23.7241 17.013C23.3926 16.9148 23.0519 16.8685 22.7074 16.8704C22.363 16.8741 22.0241 16.9259 21.6926 17.0278C21.3611 17.1296 21.0537 17.2778 20.7648 17.4704C20.4778 17.6648 20.2241 17.8944 20.0056 18.1611C19.7852 17.8944 19.5296 17.663 19.2407 17.4704C18.9519 17.2778 18.6426 17.1296 18.3111 17.0278C17.9796 16.9259 17.6407 16.8722 17.2944 16.8704C16.9481 16.8667 16.6074 16.9148 16.2741 17.0111C12.637 18.4611 13.0926 23.1167 18.9 26.6481C19.0648 26.75 19.2407 26.8259 19.4278 26.8778C19.6148 26.9296 19.8056 26.9574 19.9981 26.9574C20.1907 26.9574 20.3833 26.9296 20.5685 26.8778C20.7556 26.8241 20.9315 26.7481 21.0963 26.6481C26.9019 23.1167 27.3593 18.4611 23.7222 17.0111L23.7241 17.013ZM20.6315 25.8944C20.437 26.0111 20.2278 26.0685 20 26.0685C19.7722 26.0685 19.563 26.0111 19.3685 25.8944C14.987 23.1889 14.7741 20.7944 14.887 19.887C15.1611 17.6259 17.95 17.05 19.3685 18.787C19.45 18.8722 19.5463 18.9389 19.6574 18.9852C19.7667 19.0315 19.8815 19.0556 20 19.0556C20.1185 19.0556 20.2333 19.0315 20.3426 18.9852C20.4519 18.9389 20.5481 18.8741 20.6315 18.787C20.7963 18.5796 20.987 18.4 21.2056 18.25C21.4222 18.0982 21.6574 17.9815 21.9093 17.9C22.1611 17.8185 22.4204 17.7741 22.6833 17.7667C22.9481 17.7611 23.2074 17.7926 23.463 17.863C23.6833 17.9333 23.8889 18.0352 24.0815 18.1667C24.2722 18.2963 24.4426 18.4519 24.587 18.6315C24.7333 18.8111 24.8519 19.0093 24.9407 19.2222C25.0296 19.437 25.087 19.6593 25.113 19.8889C25.2241 20.7963 25.013 23.1889 20.6315 25.8963V25.8944ZM23.7241 17.013C23.3926 16.9148 23.0519 16.8685 22.7074 16.8704C22.363 16.8741 22.0241 16.9259 21.6926 17.0278C21.3611 17.1296 21.0537 17.2778 20.7648 17.4704C20.4778 17.6648 20.2241 17.8944 20.0056 18.1611C19.7852 17.8944 19.5296 17.663 19.2407 17.4704C18.9519 17.2778 18.6426 17.1296 18.3111 17.0278C17.9796 16.9259 17.6407 16.8722 17.2944 16.8704C16.9481 16.8667 16.6074 16.9148 16.2741 17.0111C12.637 18.4611 13.0926 23.1167 18.9 26.6481C19.0648 26.75 19.2407 26.8259 19.4278 26.8778C19.6148 26.9296 19.8056 26.9574 19.9981 26.9574C20.1907 26.9574 20.3833 26.9296 20.5685 26.8778C20.7556 26.8241 20.9315 26.7481 21.0963 26.6481C26.9019 23.1167 27.3593 18.4611 23.7222 17.0111L23.7241 17.013ZM20.6315 25.8944C20.437 26.0111 20.2278 26.0685 20 26.0685C19.7722 26.0685 19.563 26.0111 19.3685 25.8944C14.987 23.1889 14.7741 20.7944 14.887 19.887C15.1611 17.6259 17.95 17.05 19.3685 18.787C19.45 18.8722 19.5463 18.9389 19.6574 18.9852C19.7667 19.0315 19.8815 19.0556 20 19.0556C20.1185 19.0556 20.2333 19.0315 20.3426 18.9852C20.4519 18.9389 20.5481 18.8741 20.6315 18.787C20.7963 18.5796 20.987 18.4 21.2056 18.25C21.4222 18.0982 21.6574 17.9815 21.9093 17.9C22.1611 17.8185 22.4204 17.7741 22.6833 17.7667C22.9481 17.7611 23.2074 17.7926 23.463 17.863C23.6833 17.9333 23.8889 18.0352 24.0815 18.1667C24.2722 18.2963 24.4426 18.4519 24.587 18.6315C24.7333 18.8111 24.8519 19.0093 24.9407 19.2222C25.0296 19.437 25.087 19.6593 25.113 19.8889C25.2241 20.7963 25.013 23.1889 20.6315 25.8963V25.8944Z" fill="#9ABA9A"/>
</g>
</g>
<defs>
<clipPath id="clip0_262_10291">
<rect width="40" height="40" fill="white"/>
</clipPath>
</defs>
</svg>
